<?xml version="1.0" encoding="iso-8859-1"?>
<!-- Generator: Adobe Illustrator 26.5.0, SVG Export Plug-In . SVG Version: 6.00 Build 0)  -->
<svg version="1.1" id="Layer_1" xmlns="http://www.w3.org/2000/svg" xmlns:xlink="http://www.w3.org/1999/xlink" x="0px" y="0px"
	 width="1300px" height="1300px" viewBox="0 0 1300 1300" enable-background="new 0 0 1300 1300" xml:space="preserve">
<g>
	<g>
		<g>
			<defs>
				<rect id="SVGID_1_" x="-80.22" y="53.974" width="1520.377" height="1284.219"/>
			</defs>
			<clipPath id="SVGID_00000157995825396845781910000008596693463078917520_">
				<use xlink:href="#SVGID_1_"  overflow="visible"/>
			</clipPath>
			<g clip-path="url(#SVGID_00000157995825396845781910000008596693463078917520_)">
				<g>
					<g>
						<g>
							<defs>
								
									<rect id="SVGID_00000047769982316001586250000002213111725442207118_" x="234.935" y="195.556" transform="matrix(0.9808 -0.1951 0.1951 0.9808 -121.0237 163.4775)" width="1068.865" height="1001.097"/>
							</defs>
							<clipPath id="SVGID_00000141438440340298280170000005401356406365884305_">
								<use xlink:href="#SVGID_00000047769982316001586250000002213111725442207118_"  overflow="visible"/>
							</clipPath>
							<g opacity="0.45" clip-path="url(#SVGID_00000141438440340298280170000005401356406365884305_)">
								<g>
									<g>
										<g>
											<g>
												<defs>
													
														<rect id="SVGID_00000147197966229826218750000008413206842267444396_" x="5.005" y="-296.83" width="1732.178" height="2528.198"/>
												</defs>
												<clipPath id="SVGID_00000173124131672708931290000015935968654804490140_">
													<use xlink:href="#SVGID_00000147197966229826218750000008413206842267444396_"  overflow="visible"/>
												</clipPath>
												
													<path clip-path="url(#SVGID_00000173124131672708931290000015935968654804490140_)" fill="none" stroke="#B49CCA" stroke-width="3" stroke-miterlimit="10" d="
													M1361.699,1982.29l-53.206-267.485l285.383-56.767l53.206,267.485L1361.699,1982.29z M1308.435,1714.509
													l-53.208-267.497l285.383-56.767l53.208,267.497L1308.435,1714.509z M1255.227,1447.012l-53.207-267.485l285.383-56.767
													l53.207,267.485L1255.227,1447.012z M1202.02,1179.527l-53.208-267.497l285.383-56.765l53.208,267.496L1202.02,1179.527
													z M1148.811,912.031l-53.207-267.49l285.383-56.767l53.207,267.492L1148.811,912.031z M1095.604,644.54l-53.207-267.492
													l285.383-56.765l53.207,267.49L1095.604,644.54z M1042.397,377.049l-53.207-267.49l285.383-56.765l53.207,267.49
													L1042.397,377.049z M501.946,2152.998l-53.207-267.485l285.381-56.766l53.207,267.485L501.946,2152.998z
													 M788.509,2095.997l-53.206-267.485l285.383-56.767l53.206,267.485L788.509,2095.997z M1075.075,2038.996
													l-53.206-267.485l285.383-56.767l53.206,267.485L1075.075,2038.996z M448.739,1885.513l-53.208-267.497l285.381-56.766
													l53.208,267.497L448.739,1885.513z M735.303,1828.512l-53.208-267.497l285.383-56.765l53.208,267.495L735.303,1828.512z
													 M1021.869,1771.51l-53.208-267.497l285.383-56.766l53.208,267.495L1021.869,1771.51z M395.53,1618.016l-53.206-267.485
													l285.381-56.765l53.206,267.485L395.53,1618.016z M682.095,1561.015l-53.206-267.485l285.383-56.765l53.206,267.485
													L682.095,1561.015z M968.661,1504.014l-53.207-267.485l285.383-56.765l53.207,267.485L968.661,1504.014z
													 M342.325,1350.531l-53.208-267.497l285.381-56.765l53.208,267.497L342.325,1350.531z M628.889,1293.53l-53.208-267.497
													l285.383-56.765l53.208,267.497L628.889,1293.53z M915.454,1236.529l-53.208-267.497l285.383-56.765l53.208,267.497
													L915.454,1236.529z M289.116,1083.034l-53.207-267.49l285.381-56.765l53.207,267.49L289.116,1083.034z
													 M575.681,1026.033l-53.208-267.49l285.383-56.765l53.208,267.49L575.681,1026.033z M862.245,969.032l-53.207-267.49
													l285.383-56.767l53.207,267.492L862.245,969.032z M235.909,815.544l-53.208-267.49l285.381-56.767l53.208,267.492
													L235.909,815.544z M522.473,758.543l-53.207-267.49l285.383-56.767l53.207,267.492L522.473,758.543z M809.039,701.542
													l-53.207-267.49l285.383-56.767l53.207,267.49L809.039,701.542z M182.701,548.054l-53.207-267.492l285.381-56.765
													l53.207,267.49L182.701,548.054z M469.266,491.052l-53.207-267.492l285.383-56.765l53.207,267.49L469.266,491.052z
													 M755.831,434.051L702.625,166.56l285.383-56.765l53.207,267.49L755.831,434.051z M129.494,280.562L76.287,13.072
													l285.381-56.765l53.207,267.49L129.494,280.562z M416.059,223.561l-53.207-267.49l285.383-56.767l53.207,267.492
													L416.059,223.561z M702.625,166.56l-53.207-267.49L934.8-157.697l53.207,267.492L702.625,166.56z M989.19,109.558
													l-53.208-267.49l285.383-56.767l53.208,267.492L989.19,109.558z M448.147,1885.63l53.324,268.077 M394.939,1618.135
													l53.208,267.495 M341.733,1350.648l53.206,267.486 M288.525,1083.153l53.208,267.495 M235.318,815.661l53.207,267.492
													 M182.11,548.171l53.208,267.49 M128.903,280.681l53.207,267.49 M75.578,12.598l53.324,268.083 M501.946,2152.998
													l285.381-56.765 M448.739,1885.513l285.381-56.765 M734.712,1828.629l53.324,268.077 M395.53,1618.016l285.381-56.766
													 M681.503,1561.132l53.208,267.497 M342.325,1350.531l285.381-56.765 M628.298,1293.648l53.206,267.484
													 M289.116,1083.034l285.381-56.765 M575.089,1026.152l53.208,267.497 M235.909,815.544l285.381-56.765 M521.881,758.66
													l53.208,267.492 M182.701,548.054l285.381-56.767 M468.674,491.17l53.207,267.49 M129.494,280.562l285.381-56.765
													 M415.467,223.679l53.207,267.49 M76.287,13.072l285.381-56.765 M362.143-44.404l53.324,268.083 M788.509,2095.997
													l285.383-56.767 M735.303,1828.512l285.383-56.767 M1021.277,1771.628l53.323,268.077 M682.095,1561.015l285.383-56.765
													 M968.069,1504.131l53.208,267.497 M628.889,1293.53l285.383-56.765 M914.864,1236.646l53.206,267.485
													 M575.681,1026.033l285.383-56.765 M861.654,969.15l53.21,267.496 M522.473,758.543l285.383-56.765 M808.447,701.659
													l53.207,267.492 M469.266,491.052l285.383-56.767 M755.24,434.168l53.207,267.49 M416.059,223.561l285.383-56.765
													 M702.033,166.678l53.207,267.49 M362.852-43.929l285.383-56.767 M648.707-101.405l53.326,268.083 M1075.075,2038.996
													l285.383-56.767 M1021.869,1771.51l285.383-56.767 M1307.843,1714.626l53.323,268.077 M968.661,1504.014l285.383-56.765
													 M1254.635,1447.13l53.208,267.497 M915.454,1236.529l285.383-56.765 M1201.428,1179.645l53.207,267.485
													 M862.245,969.032l285.383-56.765 M1148.22,912.148l53.208,267.497 M809.039,701.542l285.383-56.767 M1095.013,644.658
													l53.207,267.49 M755.831,434.051l285.383-56.767 M1041.806,377.167l53.207,267.49 M702.625,166.56l285.383-56.765
													 M988.599,109.676l53.207,267.492 M649.418-100.931L934.8-157.697 M935.273-158.406l53.326,268.082 M1361.641,1981.993
													l285.383-56.765 M1308.435,1714.509l285.383-56.767 M1594.408,1657.625l53.324,268.077 M1255.227,1447.012
													l285.383-56.767 M1541.2,1390.128l53.208,267.497 M1202.02,1179.527l285.383-56.767 M1487.994,1122.643l53.206,267.485
													 M1148.811,912.031l285.383-56.765 M1434.786,855.147l53.208,267.497 M1095.604,644.54l285.383-56.767
													 M1381.579,587.656l53.207,267.49 M1042.397,377.049l285.383-56.765 M1328.372,320.166l53.207,267.49 M989.19,109.558
													l285.383-56.765 M1275.163,52.674l53.208,267.492 M935.982-157.932l285.383-56.767 M1221.839-215.407l53.324,268.082"/>
											</g>
										</g>
									</g>
								</g>
							</g>
						</g>
					</g>
				</g>
			</g>
		</g>
	</g>
</g>
<g>
	<g>
		<g>
			<defs>
				
					<rect id="SVGID_00000166635849012337253090000000080766151786736519_" x="-6.416" y="105.987" width="1277.92" height="1150.684"/>
			</defs>
			<clipPath id="SVGID_00000093864753185216609180000010645245880777007536_">
				<use xlink:href="#SVGID_00000166635849012337253090000000080766151786736519_"  overflow="visible"/>
			</clipPath>
			<g clip-path="url(#SVGID_00000093864753185216609180000010645245880777007536_)">
				<g>
					<g>
						<g>
							<defs>
								
									<rect id="SVGID_00000180342682181670633190000000309730628925513602_" x="-6.416" y="105.987" width="1277.917" height="1150.684"/>
							</defs>
							<clipPath id="SVGID_00000149347954750142538440000012576261916816641979_">
								<use xlink:href="#SVGID_00000180342682181670633190000000309730628925513602_"  overflow="visible"/>
							</clipPath>
							<path clip-path="url(#SVGID_00000149347954750142538440000012576261916816641979_)" fill="#EDFF00" d="M644.885,1042.496
								c-231.561-31.353-436.365-171.139-363.796-438.461c61.645-227.079,438.072-368.914,670.126-150.319
								C1122.488,615.058,1018.431,1093.073,644.885,1042.496"/>
						</g>
					</g>
				</g>
			</g>
		</g>
	</g>
</g>
<rect x="73.797" y="193.227" fill="none" width="1081.54" height="913.546"/>
<g>
	<path fill="#E85A33" d="M468.799,491.595V352.671h13.893v60.332h81.567v-60.332h13.892v138.924h-13.892v-65.691h-81.567v65.691
		L468.799,491.595L468.799,491.595z"/>
	<path fill="#E85A33" d="M608.522,441.582c0-31.754,19.25-50.609,42.868-50.609c27.388,0,44.654,22.624,41.677,53.783h-71.248
		c0.594,28.777,15.281,38.105,30.563,38.105c16.87,0,25.603-12.107,28.777-20.839l12.105,4.565
		c-5.556,15.481-20.044,27.586-41.279,27.586C625.789,494.174,608.522,476.313,608.522,441.582z M679.968,434.042
		c-0.198-21.633-13.893-32.151-28.58-32.151c-16.472,0-28.181,13.297-29.372,32.151H679.968z"/>
	<path fill="#E85A33" d="M783.567,393.753h14.09l-40.09,112.527c-5.953,17.266-12.305,24.014-29.966,24.014h-16.275v-11.908h16.075
		c8.534,0,13.694-2.183,17.664-13.296l5.756-16.075l-42.868-95.262h14.487l24.61,55.569c3.374,7.939,5.359,16.87,5.756,26.395h6.748
		c0.397-9.725,1.788-16.87,4.565-25.204L783.567,393.753z"/>
	<path fill="#E85A33" d="M808.774,516.601l13.694-25.006h-9.922v-21.832h18.655v21.832l-13.296,25.006H808.774z"/>
</g>
<g>
	<g>
		<g>
			<defs>
				
					<rect id="SVGID_00000134223630044198990130000008989631097895927690_" x="73.797" y="200.757" width="1081.54" height="913.546"/>
			</defs>
			<clipPath id="SVGID_00000049924526977770517860000010319170463977631418_">
				<use xlink:href="#SVGID_00000134223630044198990130000008989631097895927690_"  overflow="visible"/>
			</clipPath>
			<g clip-path="url(#SVGID_00000049924526977770517860000010319170463977631418_)">
				<path fill="#E85A33" d="M287,715.015v-90.864h11.427c0,7.188-2.396,13.455-5.161,18.247h7.004
					c2.396-7.741,8.847-20.826,26.726-20.826c14.007,0,24.328,9.031,27.093,22.301h6.082c2.212-9.769,10.69-22.301,28.014-22.301
					c19.72,0,32.069,13.271,32.069,33.913v59.532h-12.163v-56.399c0-18.43-9.584-25.986-23.038-25.986
					c-24.698,0-25.618,25.064-25.618,36.862v45.524h-11.98v-56.029c0-18.8-9.583-26.356-22.669-26.356
					c-25.065,0-25.618,25.064-25.618,38.705v43.681H287V715.015L287,715.015z"/>
				<path fill="#E85A33" d="M444.586,669.675c0-29.858,19.72-48.105,42.575-48.105c22.854,0,42.391,18.247,42.391,48.105
					c0,29.858-19.905,47.736-42.391,47.736C464.675,717.411,444.586,699.35,444.586,669.675z M516.834,669.861
					c0-24.882-13.455-37.416-29.673-37.416c-16.22,0-29.673,12.532-29.673,37.416c0,24.697,13.455,36.86,29.673,36.86
					C503.38,706.721,516.834,694.556,516.834,669.861z"/>
				<path fill="#E85A33" d="M554.989,604.799V586h12.902v18.799L554.989,604.799L554.989,604.799z M555.359,715.015v-90.864h12.348
					v90.864H555.359z"/>
				<path fill="#E85A33" d="M643.458,669.491c0-27.647,17.14-47.92,41.837-47.92c20.458,0,33.175,12.532,37.046,25.987
					l-11.612,3.869c-3.133-10.137-11.242-18.983-25.618-18.983c-15.482,0-28.752,12.349-28.752,37.046
					c0,24.882,12.902,37.23,29.12,37.23s23.96-11.427,26.724-21.932L724,688.657c-5.16,16.404-18.43,28.752-38.52,28.752
					C660.415,717.411,643.458,698.796,643.458,669.491z"/>
				<path fill="#E85A33" d="M742.248,630.786L739.3,599.27V586h12.718v13.269l-2.949,31.516L742.248,630.786L742.248,630.786z"/>
				<path fill="#E85A33" d="M768.975,668.569c0-29.49,17.877-46.999,39.811-46.999c25.434,0,41.469,21.012,38.705,49.948h-66.166
					c0.552,26.724,14.191,35.387,28.383,35.387c15.667,0,23.776-11.242,26.724-19.352l11.242,4.238
					c-5.16,14.377-18.615,25.62-38.335,25.62C785.009,717.411,768.975,700.823,768.975,668.569z M835.325,661.565
					c-0.184-20.09-12.902-29.858-26.541-29.858c-15.298,0-26.171,12.348-27.279,29.858H835.325z"/>
				<path fill="#E85A33" d="M865.368,691.423l11.611-3.686c2.027,9.953,9.953,19.352,26.173,19.352
					c15.297,0,23.038-6.267,23.038-15.297c0-8.11-5.714-13.822-18.247-16.587l-12.164-2.582
					c-13.271-2.948-26.724-8.478-26.724-25.065c0-15.114,14.007-25.987,32.622-25.987c20.826,0,31.332,11.059,34.465,22.301
					l-10.874,4.238c-1.843-6.634-8.294-16.403-23.591-16.403c-14.007,0-20.643,7.188-20.643,14.561
					c0,7.003,3.871,11.796,16.22,14.375l12.164,2.58c13.085,3.133,29.12,9.953,29.12,27.647c0,15.298-11.612,26.541-35.387,26.541
					C882.325,717.411,868.317,706.721,865.368,691.423z"/>
				<path fill="#E85A33" d="M995.86,715.015c-16.771,0-24.328-8.11-24.328-23.038v-57.503h-22.301v-10.322h22.301V596.69h12.163
					v27.462h25.987v10.322h-25.987v56.398c0,9.031,4.239,13.455,13.454,13.455H1013v10.689L995.86,715.015L995.86,715.015z"/>
			</g>
		</g>
	</g>
</g>
<rect x="73.797" y="193.227" fill="none" width="1081.54" height="913.546"/>
<g>
	<path fill="#E85A33" stroke="#E85A33" stroke-width="2" stroke-miterlimit="10" d="M347.676,882.235
		c12.387-53.347,58.341-66.133,67.332-66.133c21.578,0,31.368,10.19,33.366,20.38l-13.587,23.176l-1.199-0.599
		c10.19-22.577-4.995-34.165-23.975-34.165c-12.388,0-39.96,5.195-50.749,51.148c-8.991,38.961,3.996,70.129,34.965,70.129
		c11.988,0,20.379-4.995,28.371-9.391l0.999,1.998c-13.986,7.992-32.967,16.183-37.562,16.183
		C354.868,954.962,338.285,921.995,347.676,882.235z"/>
	<path fill="#E85A33" stroke="#E85A33" stroke-width="2" stroke-miterlimit="10" d="M526.096,926.19l0.4,0.599
		c-8.791,7.193-27.372,27.572-34.965,27.572c-2.997,0-6.793-0.799-4.995-20.978l18.582-65.735h-2.398
		c-16.183,48.552-26.373,87.512-47.351,87.512c-11.189,0-15.184-8.991-15.184-21.779c0-31.368,23.376-85.513,50.948-85.513
		c6.594,0,13.387,1.597,18.782,4.396l11.589-9.191l0.799,0.2l-7.992,24.974l-21.578,78.321L526.096,926.19z M502.121,860.058
		c-4.995-4.596-11.189-7.192-16.984-7.192c-18.782,0-32.767,48.35-32.767,75.323c0,10.59,2.797,17.783,9.191,17.783
		C468.555,945.97,474.149,944.772,502.121,860.058z"/>
	<path fill="#E85A33" stroke="#E85A33" stroke-width="2" stroke-miterlimit="10" d="M615.008,854.663
		c-4.995,3.196-13.386,11.188-16.183,11.188c-3.197,0-8.791-7.992-12.987-7.992c-8.991,0-30.569,50.749-44.154,95.104h-10.989
		l22.778-96.502l-30.369,18.581l-0.4-0.598c8.791-7.193,27.372-27.572,34.965-27.572c2.997,0,6.793,0.799,4.995,20.978
		l-19.18,66.133h2.398c8.192-28.971,30.169-86.913,42.757-86.913c4.396,0,10.989,10.39,17.382,10.39
		c2.997,0,5.595-1.599,8.592-3.595L615.008,854.663z"/>
	<path fill="#E85A33" stroke="#E85A33" stroke-width="2" stroke-miterlimit="10" d="M598.429,903.813
		c9.191-40.759,35.564-57.941,45.155-57.941c17.582,0,30.969,14.185,22.976,50.948c-8.791,40.759-35.364,58.141-44.955,58.141
		C604.023,954.962,590.636,940.776,598.429,903.813z M657.169,903.613c5.595-26.973-1.998-49.15-19.18-49.15
		c-7.992,0-21.977,6.993-29.77,42.957c-5.595,26.972,1.998,48.95,17.583,48.95C635.191,946.369,649.378,939.577,657.169,903.613z"/>
	<path fill="#E85A33" stroke="#E85A33" stroke-width="2" stroke-miterlimit="10" d="M720.108,802.117l0.2-0.2l-37.962,145.254
		l33.366-20.38l0.401,0.599c-8.793,7.192-27.373,27.572-34.965,27.572c-2.997,0-6.793-0.799-4.995-20.978l30.969-124.074
		l-25.775,1.198l0.4-1.198l37.362-8.592h1.199L720.108,802.117z"/>
	<path fill="#E85A33" stroke="#E85A33" stroke-width="2" stroke-miterlimit="10" d="M784.644,848.669h12.788
		c-9.191,62.137-49.95,125.674-134.264,155.842l2.797-11.389l0.799-0.598c27.773-6.993,50.749-18.782,68.932-34.367l3.996-101.298
		l-29.971,18.181l-0.4-0.598c8.791-7.193,27.372-27.572,34.966-27.572c2.997,0,4.594,0.799,6.394,20.978l-5.595,81.318
		c25.174-26.173,38.561-60.938,38.961-99.701L784.644,848.669z"/>
	<path fill="#E85A33" stroke="#E85A33" stroke-width="2" stroke-miterlimit="10" d="M888.94,926.789l0.4,0.599
		c-8.791,7.192-27.372,27.572-34.965,27.572c-2.997,0-6.793-0.799-4.995-20.978l17.983-49.75
		c8.392-23.377,0.799-28.971-3.597-28.971c-13.585,0-37.362,53.346-52.348,97.701H800.43l24.775-96.702l-30.568,18.78l-0.401-0.598
		c8.791-7.193,27.373-27.572,34.965-27.572c2.997,0,6.793,0.799,4.995,20.978l-20.78,66.133h2.398
		c11.389-32.768,34.965-87.712,55.944-87.712c9.19,0,16.583,10.588,6.793,37.562l-22.976,63.336L888.94,926.789z"/>
	<path fill="#E85A33" stroke="#E85A33" stroke-width="2" stroke-miterlimit="10" d="M908.721,903.613
		c-2.597,22.778,3.996,43.157,25.174,43.157c8.392,0,11.587-3.197,17.783-6.795l0.999,1.199
		c-13.186,8.791-21.379,13.787-26.973,13.787c-21.779,0-34.965-21.178-24.776-57.941c11.389-40.959,39.159-50.149,45.154-50.149
		c17.983,0,20.978,11.389,20.978,16.784C967.061,889.028,936.294,898.818,908.721,903.613z M911.319,890.426
		c-0.801,3.397-1.598,6.793-1.998,9.99c15.385-1.998,45.154-8.991,45.154-31.769c0-4.994-1.598-13.386-14.185-13.386
		C933.497,855.263,919.71,858.06,911.319,890.426z"/>
</g>
</svg>
