<svg xmlns="http://www.w3.org/2000/svg" viewBox="0 0 430.86 207.08"><defs><style>.cls-1{fill:#fff;}.cls-2{fill:none;stroke:#d1d3d4;stroke-width:1.25px;}</style></defs><g id="Layer_2" data-name="Layer 2"><g id="Layer_1-2" data-name="Layer 1"><path class="cls-1" d="M16.48,74.44a25.17,25.17,0,0,1-9.76-10A29.72,29.72,0,0,1,3.2,49.9,31.46,31.46,0,0,1,6.51,35.23a24.39,24.39,0,0,1,9.24-10A25.86,25.86,0,0,1,29.34,21.7,26.08,26.08,0,0,1,40,23.92a23.29,23.29,0,0,1,8.47,6.3,21.13,21.13,0,0,1,4.6,9.45l-7.54,1.65a16.82,16.82,0,0,0-6-9,16.46,16.46,0,0,0-10.28-3.46,16.68,16.68,0,0,0-9.3,2.69A18.41,18.41,0,0,0,13.43,39a24.19,24.19,0,0,0-2.38,10.9,23.12,23.12,0,0,0,2.53,10.9,18.35,18.35,0,0,0,7,7.44,19.82,19.82,0,0,0,10.18,2.63A20.17,20.17,0,0,0,39.57,69a18,18,0,0,0,6.66-5.32,17.05,17.05,0,0,0,3.36-7.85l7.64,1.55a22.18,22.18,0,0,1-4.7,10.59,26.33,26.33,0,0,1-9.45,7.38A28.43,28.43,0,0,1,30.79,78,28.4,28.4,0,0,1,16.48,74.44Z"/><path class="cls-1" d="M71.08,76A16.63,16.63,0,0,1,64,70.46a14,14,0,0,1,3.1-19.37q5.69-4.5,17.87-5.94l12.91-1.66a4.61,4.61,0,0,0,3.1-1.19,3.6,3.6,0,0,0,1.14-2.73,8.67,8.67,0,0,0-2-5.68,12.82,12.82,0,0,0-5.43-3.72,21.59,21.59,0,0,0-7.9-1.35,19.29,19.29,0,0,0-8.57,1.86,17.38,17.38,0,0,0-6.1,4.7,10.58,10.58,0,0,0-2.48,5.94l-7.13-3a15.19,15.19,0,0,1,3.82-8.16A24.13,24.13,0,0,1,75.05,24a29.77,29.77,0,0,1,12-2.38A27.7,27.7,0,0,1,98.92,24,18.86,18.86,0,0,1,107,30.79a18.06,18.06,0,0,1,2.84,10.12V67.25a4,4,0,0,0,.77,2.54,2.47,2.47,0,0,0,2,1,3.85,3.85,0,0,0,2.27-.83,7.09,7.09,0,0,0,2-2.27l4.34,5.06a12.46,12.46,0,0,1-4.65,3.77,13.24,13.24,0,0,1-6,1.5,8.4,8.4,0,0,1-4.34-1.09,7.89,7.89,0,0,1-2.94-3A10.2,10.2,0,0,1,102,69.63l-.11-2.38h-.1A19.92,19.92,0,0,1,96.91,73,21.59,21.59,0,0,1,90,76.71,26.94,26.94,0,0,1,81.51,78,26.25,26.25,0,0,1,71.08,76Zm21.59-7.39a16.89,16.89,0,0,0,6.77-6.09,16.58,16.58,0,0,0,2.42-8.94V49.9l-16.11,2Q77,53,73.09,55.68c-2.58,1.8-3.87,3.93-3.87,6.41A7.26,7.26,0,0,0,73,68.5a18.37,18.37,0,0,0,9.81,2.37A21.25,21.25,0,0,0,92.67,68.65Z"/><path class="cls-1" d="M156.93,23.56a15,15,0,0,1,5.52,5.57A22.59,22.59,0,0,1,165.19,38l-7,2.17q-.53-5.47-3.21-8.37A9,9,0,0,0,148,28.93a12,12,0,0,0-7.28,2.22,14.41,14.41,0,0,0-4.75,6.3,25.21,25.21,0,0,0-1.71,9.76V75.93h-7.85V23.76h6.61l.83,8.27h.1a18.3,18.3,0,0,1,6.1-7.65,15.11,15.11,0,0,1,9-2.79A15.46,15.46,0,0,1,156.93,23.56Z"/><path class="cls-1" d="M181.26,75.16a19.59,19.59,0,0,1-8.42-8,24.29,24.29,0,0,1-2.9-12.08,35.45,35.45,0,0,1,4.08-17,30.47,30.47,0,0,1,11.42-12,31.93,31.93,0,0,1,16.74-4.39,28,28,0,0,1,12.91,2.84,20,20,0,0,1,8.52,8,23.86,23.86,0,0,1,2.95,12.14,35.07,35.07,0,0,1-4.13,16.94,30.68,30.68,0,0,1-11.58,12A32,32,0,0,1,194.32,78,28.26,28.26,0,0,1,181.26,75.16Zm25.62-7.8a23.91,23.91,0,0,0,8.57-9.45A27.81,27.81,0,0,0,218.5,45a18.38,18.38,0,0,0-2-8.73,12.73,12.73,0,0,0-5.74-5.52,19.47,19.47,0,0,0-8.73-1.86,23.44,23.44,0,0,0-21.23,12.81,28.12,28.12,0,0,0-3,13.12,17.24,17.24,0,0,0,2,8.42,13.65,13.65,0,0,0,5.78,5.63,18.89,18.89,0,0,0,8.84,2A22.76,22.76,0,0,0,206.88,67.36Z"/><path class="cls-1" d="M234.31,0h7.85V75.93h-7.85Z"/><path class="cls-1" d="M263.08,98A37.61,37.61,0,0,1,252,93.34a25.15,25.15,0,0,1-7.18-6.66l5.48-5.27a25.38,25.38,0,0,0,6.4,5.73,33.73,33.73,0,0,0,8.94,4,39.31,39.31,0,0,0,10.9,1.45,30.87,30.87,0,0,0,12.65-2.38,19.37,19.37,0,0,0,8.32-6.77,17.92,17.92,0,0,0,3-10.38V68h-.11a22.13,22.13,0,0,1-9.14,8.83,29.43,29.43,0,0,1-27.12-.1,23.51,23.51,0,0,1-9.25-9.25,27.82,27.82,0,0,1-3.25-13.64V23.76h7.85V53.41a20.76,20.76,0,0,0,2.43,10.13,17.4,17.4,0,0,0,6.82,6.92,20.15,20.15,0,0,0,10.07,2.48,22.93,22.93,0,0,0,11-2.69,19.74,19.74,0,0,0,7.86-7.54,21.93,21.93,0,0,0,2.84-11.26V23.76h7.85V73a25.44,25.44,0,0,1-3.93,14.2,25,25,0,0,1-11.05,9.25,40.45,40.45,0,0,1-16.74,3.2A53.82,53.82,0,0,1,263.08,98Z"/><path class="cls-1" d="M356.52,24.18a16.21,16.21,0,0,1,6.61,7.07,24.54,24.54,0,0,1,2.27,11V75.93h-7.85V43q0-6.61-3.61-10.54T344,28.51a18.93,18.93,0,0,0-9.3,2.28,15.9,15.9,0,0,0-6.4,6.4,18.73,18.73,0,0,0-2.28,9.2V75.93h-7.85V23.76h7.13l.72,7.75h.11a22.33,22.33,0,0,1,8.36-7.33,25.75,25.75,0,0,1,11.68-2.48A20.41,20.41,0,0,1,356.52,24.18Z"/><path class="cls-1" d="M387.15,74.33a26.26,26.26,0,0,1-10.28-10.28,29.57,29.57,0,0,1-3.72-14.77,29.29,29.29,0,0,1,3.41-14.15A25,25,0,0,1,386,25.26,26.6,26.6,0,0,1,399.8,21.7a24.92,24.92,0,0,1,13.28,3.51A24,24,0,0,1,422,35.07a32.41,32.41,0,0,1,3.3,14.31v1.5a12.61,12.61,0,0,1-.1,1.6h-44a20.72,20.72,0,0,0,3.46,9.61A19.72,19.72,0,0,0,392,68.55a22.84,22.84,0,0,0,21-.47A16.9,16.9,0,0,0,420.05,61l6.72,2.79a18.9,18.9,0,0,1-5.32,7.44,26.75,26.75,0,0,1-8.73,5A31.62,31.62,0,0,1,402,78,29.79,29.79,0,0,1,387.15,74.33Zm29.91-28.77a21,21,0,0,0-2.84-9,15.53,15.53,0,0,0-6.05-5.73,19,19,0,0,0-17.15.15,17.35,17.35,0,0,0-6.4,5.94,22.82,22.82,0,0,0-3.31,8.68Z"/><path class="cls-1" d="M11.47,154.24H.1L0,147.73H11.47v-9.09a16.22,16.22,0,0,1,2.17-8.42,15.56,15.56,0,0,1,6-5.78,18.06,18.06,0,0,1,8.88-2.12A18.18,18.18,0,0,1,40,126.09a17,17,0,0,1,6.3,9.66l-6.92,2.89a11.84,11.84,0,0,0-3.82-6.76,10,10,0,0,0-6.82-2.64,8.6,8.6,0,0,0-6.77,3A11.34,11.34,0,0,0,19.32,140v7.74H41.84v6.51H19.32l.1,45.67H11.57Z"/><path class="cls-1" d="M53.93,200a16.63,16.63,0,0,1-7.13-5.58,14,14,0,0,1,3.1-19.37q5.68-4.5,17.87-5.94l12.92-1.65a4.68,4.68,0,0,0,3.09-1.19,3.62,3.62,0,0,0,1.14-2.74,8.62,8.62,0,0,0-2-5.68,12.91,12.91,0,0,0-5.43-3.72,21.59,21.59,0,0,0-7.9-1.34,19.29,19.29,0,0,0-8.57,1.86,17.27,17.27,0,0,0-6.1,4.7,10.59,10.59,0,0,0-2.48,5.94l-7.13-3a15.13,15.13,0,0,1,3.83-8.16,24.07,24.07,0,0,1,8.73-6.2,29.69,29.69,0,0,1,12-2.37A27.7,27.7,0,0,1,81.77,148a18.93,18.93,0,0,1,8.06,6.77,18.09,18.09,0,0,1,2.84,10.12v26.35a4,4,0,0,0,.77,2.53,2.47,2.47,0,0,0,2,1,3.79,3.79,0,0,0,2.27-.83,7,7,0,0,0,2-2.27L104,196.7a12.53,12.53,0,0,1-4.64,3.78,13.43,13.43,0,0,1-6,1.49,8.5,8.5,0,0,1-4.34-1.08,7.92,7.92,0,0,1-2.94-3,10.3,10.3,0,0,1-1.29-4.29l-.11-2.37h-.1A20,20,0,0,1,79.76,197a21.59,21.59,0,0,1-6.93,3.72A26.94,26.94,0,0,1,64.36,202,26.08,26.08,0,0,1,53.93,200Zm21.59-7.39a16.89,16.89,0,0,0,6.77-6.09,16.54,16.54,0,0,0,2.42-8.94v-3.72l-16.11,2q-8.79,1.14-12.66,3.83t-3.87,6.4a7.25,7.25,0,0,0,3.82,6.41,18.38,18.38,0,0,0,9.82,2.37A21.21,21.21,0,0,0,75.52,192.62Z"/><path class="cls-1" d="M121.8,199a18.86,18.86,0,0,1-7.33-8.11h-.1l-2.48,9h-6.82l12-75.94h8l-5.38,32.13h.11a29.44,29.44,0,0,1,9.81-7.75,26.6,26.6,0,0,1,11.68-2.68,23.63,23.63,0,0,1,12.08,2.94,20.6,20.6,0,0,1,7.91,8.27,25.2,25.2,0,0,1,2.84,12A34.25,34.25,0,0,1,160,185.39a32.21,32.21,0,0,1-11.11,12.09,28.3,28.3,0,0,1-15.6,4.49A21.72,21.72,0,0,1,121.8,199Zm22.78-7.8a25.25,25.25,0,0,0,8.63-9.46,25.7,25.7,0,0,0,3.1-12.24,18.86,18.86,0,0,0-2-8.68,13.8,13.8,0,0,0-5.69-5.88,17.31,17.31,0,0,0-8.57-2.07,21.3,21.3,0,0,0-11.93,3.56,26.29,26.29,0,0,0-11.73,21.75,18,18,0,0,0,2,8.63,14.91,14.91,0,0,0,5.57,5.89,16.43,16.43,0,0,0,8.53,2.11A21.52,21.52,0,0,0,144.58,191.23Z"/><path class="cls-1" d="M202.38,147.53a15,15,0,0,1,5.53,5.58,22.65,22.65,0,0,1,2.74,8.88l-7,2.17q-.51-5.47-3.2-8.37a9,9,0,0,0-6.92-2.89,12,12,0,0,0-7.28,2.22,14.43,14.43,0,0,0-4.76,6.3,25.4,25.4,0,0,0-1.7,9.76v28.73h-7.85V147.73h6.61l.83,8.27h.1a18.3,18.3,0,0,1,6.1-7.65,15.16,15.16,0,0,1,9-2.78A15.43,15.43,0,0,1,202.38,147.53Z"/><path class="cls-1" d="M228.78,198.3A26.36,26.36,0,0,1,218.5,188a29.64,29.64,0,0,1-3.72-14.78,29.29,29.29,0,0,1,3.41-14.15,25.08,25.08,0,0,1,9.45-9.87,26.71,26.71,0,0,1,13.8-3.56,24.91,24.91,0,0,1,13.27,3.51,23.92,23.92,0,0,1,8.94,9.87,32.34,32.34,0,0,1,3.3,14.31v1.49a12.88,12.88,0,0,1-.1,1.61h-44a20.75,20.75,0,0,0,3.46,9.6,19.72,19.72,0,0,0,7.34,6.46,22.84,22.84,0,0,0,21-.47,17,17,0,0,0,7.08-7.12l6.71,2.78a18.9,18.9,0,0,1-5.32,7.44,26.75,26.75,0,0,1-8.73,5A31.58,31.58,0,0,1,243.61,202,29.79,29.79,0,0,1,228.78,198.3Zm29.91-28.77a21,21,0,0,0-2.84-9,15.6,15.6,0,0,0-6-5.73,19.09,19.09,0,0,0-17.15.15,17.52,17.52,0,0,0-6.4,5.94,22.88,22.88,0,0,0-3.31,8.68Z"/><path class="cls-2" d="M19.77,78.92A25.17,25.17,0,0,1,10,69,29.72,29.72,0,0,1,6.49,54.38,31.46,31.46,0,0,1,9.8,39.71a24.35,24.35,0,0,1,9.25-10,25.91,25.91,0,0,1,13.58-3.56A26.08,26.08,0,0,1,43.32,28.4a23.41,23.41,0,0,1,8.48,6.3,21.26,21.26,0,0,1,4.59,9.46l-7.54,1.65a16.78,16.78,0,0,0-6-9,16.4,16.4,0,0,0-10.28-3.46A16.67,16.67,0,0,0,23.23,36a18.48,18.48,0,0,0-6.51,7.49,24.35,24.35,0,0,0-2.38,10.9,23,23,0,0,0,2.54,10.9,18.33,18.33,0,0,0,7,7.44,19.73,19.73,0,0,0,10.18,2.64,20.18,20.18,0,0,0,8.78-1.92,17.94,17.94,0,0,0,6.66-5.32,17.05,17.05,0,0,0,3.36-7.85l7.64,1.55a22,22,0,0,1-4.7,10.59,26.25,26.25,0,0,1-9.45,7.39,28.42,28.42,0,0,1-12.29,2.68A28.35,28.35,0,0,1,19.77,78.92Z"/><path class="cls-2" d="M74.37,80.52a16.63,16.63,0,0,1-7.13-5.58,14,14,0,0,1,3.1-19.37Q76,51.08,88.21,49.63L101.13,48a4.73,4.73,0,0,0,3.1-1.19,3.63,3.63,0,0,0,1.13-2.74,8.64,8.64,0,0,0-2-5.68A13,13,0,0,0,98,34.65a21.9,21.9,0,0,0-7.91-1.34,19.29,19.29,0,0,0-8.57,1.86,17.47,17.47,0,0,0-6.1,4.7,10.59,10.59,0,0,0-2.48,5.94l-7.13-3a15.13,15.13,0,0,1,3.83-8.16,24.07,24.07,0,0,1,8.73-6.2,29.69,29.69,0,0,1,12-2.37,27.85,27.85,0,0,1,11.83,2.42,18.93,18.93,0,0,1,8.06,6.77,18.1,18.1,0,0,1,2.84,10.13V71.74a3.94,3.94,0,0,0,.78,2.53,2.41,2.41,0,0,0,2,1,3.84,3.84,0,0,0,2.27-.82,7.17,7.17,0,0,0,2-2.28l4.33,5.07A12.6,12.6,0,0,1,119.83,81a13.43,13.43,0,0,1-6,1.49,8.5,8.5,0,0,1-4.34-1.08,7.85,7.85,0,0,1-2.94-3,10.45,10.45,0,0,1-1.29-4.28l-.1-2.38h-.11a19.88,19.88,0,0,1-4.85,5.73,21.59,21.59,0,0,1-6.93,3.72,26.94,26.94,0,0,1-8.47,1.29A26.08,26.08,0,0,1,74.37,80.52ZM96,73.13A16.89,16.89,0,0,0,102.73,67a16.46,16.46,0,0,0,2.43-8.94V54.38L89,56.35c-5.86.75-10.07,2-12.66,3.82s-3.87,3.92-3.87,6.4A7.24,7.24,0,0,0,76.33,73a18.38,18.38,0,0,0,9.82,2.38A21.09,21.09,0,0,0,96,73.13Z"/><path class="cls-2" d="M160.22,28a15.18,15.18,0,0,1,5.53,5.58,22.65,22.65,0,0,1,2.73,8.88l-7,2.17c-.35-3.65-1.41-6.44-3.2-8.36a9,9,0,0,0-6.93-2.9,12,12,0,0,0-7.28,2.22,14.41,14.41,0,0,0-4.75,6.3,25.26,25.26,0,0,0-1.71,9.77V80.42h-7.85V28.25h6.61l.83,8.26h.1a18.27,18.27,0,0,1,6.1-7.64,15.13,15.13,0,0,1,9-2.79A15.43,15.43,0,0,1,160.22,28Z"/><path class="cls-2" d="M184.55,79.64a19.63,19.63,0,0,1-8.42-8,24.36,24.36,0,0,1-2.9-12.09,35.27,35.27,0,0,1,4.09-16.94,30.47,30.47,0,0,1,11.41-12,31.93,31.93,0,0,1,16.74-4.39A28.12,28.12,0,0,1,218.38,29a20.09,20.09,0,0,1,8.52,8,23.83,23.83,0,0,1,2.95,12.13,35.14,35.14,0,0,1-4.13,17,30.64,30.64,0,0,1-11.57,12,31.89,31.89,0,0,1-16.53,4.39A28.15,28.15,0,0,1,184.55,79.64Zm25.62-7.8a23.91,23.91,0,0,0,8.57-9.45,27.79,27.79,0,0,0,3-12.86,18.21,18.21,0,0,0-2-8.73,12.75,12.75,0,0,0-5.74-5.53,19.47,19.47,0,0,0-8.73-1.86,23.44,23.44,0,0,0-21.23,12.81,28.15,28.15,0,0,0-3,13.12,17.22,17.22,0,0,0,2,8.42,13.56,13.56,0,0,0,5.79,5.63,18.82,18.82,0,0,0,8.83,2A22.68,22.68,0,0,0,210.17,71.84Z"/><path class="cls-2" d="M237.6,4.48h7.85V80.42H237.6Z"/><path class="cls-2" d="M266.37,102.53a37.88,37.88,0,0,1-11.06-4.7,25.32,25.32,0,0,1-7.18-6.67l5.48-5.27a25.39,25.39,0,0,0,6.4,5.74,33.72,33.72,0,0,0,8.94,4,38.94,38.94,0,0,0,10.9,1.45,31,31,0,0,0,12.66-2.37,19.48,19.48,0,0,0,8.31-6.77,18,18,0,0,0,3-10.39V72.46h-.1a22.24,22.24,0,0,1-9.15,8.84,29.47,29.47,0,0,1-27.12-.11A23.4,23.4,0,0,1,258.21,72,27.77,27.77,0,0,1,255,58.31V28.25h7.85V57.9A20.75,20.75,0,0,0,265.23,68a17.33,17.33,0,0,0,6.82,6.92,20,20,0,0,0,10.07,2.48,23,23,0,0,0,11-2.68A19.73,19.73,0,0,0,301,67.19a21.9,21.9,0,0,0,2.84-11.26V28.25h7.85V77.52a25.49,25.49,0,0,1-3.93,14.21A25,25,0,0,1,296.69,101a40.61,40.61,0,0,1-16.74,3.2A53.82,53.82,0,0,1,266.37,102.53Z"/><path class="cls-2" d="M359.81,28.66a16.18,16.18,0,0,1,6.61,7.08,24.5,24.5,0,0,1,2.28,11V80.42h-7.86v-33q0-6.62-3.61-10.54T347.31,33a19.06,19.06,0,0,0-9.3,2.27,15.92,15.92,0,0,0-6.4,6.41,18.69,18.69,0,0,0-2.28,9.19V80.42h-7.85V28.25h7.13l.72,7.74h.11a22.37,22.37,0,0,1,8.37-7.33,25.8,25.8,0,0,1,11.67-2.48A20.52,20.52,0,0,1,359.81,28.66Z"/><path class="cls-2" d="M390.44,78.82a26.39,26.39,0,0,1-10.28-10.28,29.61,29.61,0,0,1-3.72-14.78,29.29,29.29,0,0,1,3.41-14.15,25.14,25.14,0,0,1,9.45-9.87,26.71,26.71,0,0,1,13.8-3.56,24.91,24.91,0,0,1,13.27,3.51,24,24,0,0,1,8.94,9.87,32.41,32.41,0,0,1,3.3,14.31v1.5a12.72,12.72,0,0,1-.1,1.6h-44a20.75,20.75,0,0,0,3.46,9.6A19.72,19.72,0,0,0,395.3,73a22.8,22.8,0,0,0,21-.46,17,17,0,0,0,7.07-7.13l6.72,2.79a19,19,0,0,1-5.32,7.44,27.11,27.11,0,0,1-8.73,5,31.86,31.86,0,0,1-10.74,1.8A29.91,29.91,0,0,1,390.44,78.82ZM420.35,50a21,21,0,0,0-2.84-9,15.6,15.6,0,0,0-6.05-5.73,19,19,0,0,0-17.14.16,17.3,17.3,0,0,0-6.41,5.94A22.83,22.83,0,0,0,384.6,50Z"/><path class="cls-2" d="M14.76,158.73H3.39l-.1-6.51H14.76v-9.09a16.17,16.17,0,0,1,2.17-8.42,15.51,15.51,0,0,1,6-5.79,18.06,18.06,0,0,1,8.88-2.12,18.13,18.13,0,0,1,11.47,3.78,17,17,0,0,1,6.3,9.66l-6.92,2.89a11.81,11.81,0,0,0-3.82-6.77A10,10,0,0,0,32,133.73a8.57,8.57,0,0,0-6.76,3,11.29,11.29,0,0,0-2.64,7.75v7.75H45.13v6.51H22.61l.1,45.66H14.86Z"/><path class="cls-2" d="M57.22,204.49a16.48,16.48,0,0,1-7.13-5.58,14,14,0,0,1,3.1-19.37q5.69-4.48,17.87-5.94L84,172a4.68,4.68,0,0,0,3.1-1.19A3.63,3.63,0,0,0,88.21,168a8.65,8.65,0,0,0-2-5.69,13,13,0,0,0-5.42-3.72,21.9,21.9,0,0,0-7.91-1.34,19.32,19.32,0,0,0-8.57,1.86,17.47,17.47,0,0,0-6.1,4.7,10.65,10.65,0,0,0-2.48,5.94l-7.13-3a15.13,15.13,0,0,1,3.83-8.17,24.19,24.19,0,0,1,8.73-6.2,29.69,29.69,0,0,1,12-2.37,27.7,27.7,0,0,1,11.83,2.43,18.91,18.91,0,0,1,8.06,6.76A18.12,18.12,0,0,1,96,169.37v26.34a3.92,3.92,0,0,0,.78,2.53,2.42,2.42,0,0,0,2,1,3.85,3.85,0,0,0,2.27-.83,7.24,7.24,0,0,0,2-2.27l4.34,5.06a12.72,12.72,0,0,1-4.65,3.77,13.31,13.31,0,0,1-6,1.5,8.34,8.34,0,0,1-4.33-1.09,7.92,7.92,0,0,1-2.95-3,10.54,10.54,0,0,1-1.29-4.29l-.1-2.38H87.9a19.92,19.92,0,0,1-4.85,5.74,21.65,21.65,0,0,1-6.92,3.72,27.05,27.05,0,0,1-8.48,1.29A26.08,26.08,0,0,1,57.22,204.49Zm21.59-7.38a16.84,16.84,0,0,0,6.77-6.1A16.44,16.44,0,0,0,88,182.08v-3.72l-16.12,2c-5.86.76-10.07,2-12.66,3.82s-3.87,3.93-3.87,6.41a7.23,7.23,0,0,0,3.82,6.4A18.29,18.29,0,0,0,69,199.33,21.21,21.21,0,0,0,78.81,197.11Z"/><path class="cls-2" d="M125.1,203.51a18.71,18.71,0,0,1-7.34-8.11h-.1l-2.48,9h-6.82l12-75.93h8l-5.38,32.13H123a29.19,29.19,0,0,1,9.81-7.75,26.61,26.61,0,0,1,11.68-2.69,23.53,23.53,0,0,1,12.08,2.95,20.57,20.57,0,0,1,7.91,8.26,25.21,25.21,0,0,1,2.84,12,34.24,34.24,0,0,1-4.08,16.47A32.06,32.06,0,0,1,152.16,202a28.31,28.31,0,0,1-15.6,4.5A21.58,21.58,0,0,1,125.1,203.51Zm22.77-7.8a25.29,25.29,0,0,0,8.63-9.45A25.7,25.7,0,0,0,159.6,174a18.71,18.71,0,0,0-2-8.68,13.86,13.86,0,0,0-5.68-5.89,17.35,17.35,0,0,0-8.58-2.07A21.23,21.23,0,0,0,131.45,161a26.25,26.25,0,0,0-11.73,21.75,17.93,17.93,0,0,0,2,8.62,14.74,14.74,0,0,0,5.58,5.89,16.37,16.37,0,0,0,8.52,2.12A21.53,21.53,0,0,0,147.87,195.71Z"/><path class="cls-2" d="M205.68,152a15.08,15.08,0,0,1,5.52,5.58,22.65,22.65,0,0,1,2.74,8.89l-7,2.17q-.53-5.47-3.21-8.37a9,9,0,0,0-6.92-2.9,12,12,0,0,0-7.28,2.23,14.41,14.41,0,0,0-4.75,6.3,25.17,25.17,0,0,0-1.71,9.76v28.72H175.2V152.22h6.61l.83,8.26h.1a18.33,18.33,0,0,1,6.1-7.64,15.11,15.11,0,0,1,9-2.79A15.55,15.55,0,0,1,205.68,152Z"/><path class="cls-2" d="M232.07,202.79a26.32,26.32,0,0,1-10.28-10.28,29.6,29.6,0,0,1-3.72-14.77,29.3,29.3,0,0,1,3.41-14.16,25.08,25.08,0,0,1,9.46-9.86,26.56,26.56,0,0,1,13.79-3.57A24.82,24.82,0,0,1,258,153.67a23.89,23.89,0,0,1,8.94,9.86,32.41,32.41,0,0,1,3.31,14.31v1.5a12.79,12.79,0,0,1-.11,1.6h-44a21,21,0,0,0,3.46,9.61,19.86,19.86,0,0,0,7.34,6.45,22.8,22.8,0,0,0,21-.46,17,17,0,0,0,7.08-7.13l6.71,2.79a19,19,0,0,1-5.32,7.44,26.9,26.9,0,0,1-8.73,5,31.82,31.82,0,0,1-10.74,1.81A30,30,0,0,1,232.07,202.79ZM262,174a20.77,20.77,0,0,0-2.84-9,15.6,15.6,0,0,0-6-5.74,19,19,0,0,0-17.15.16,17.3,17.3,0,0,0-6.41,5.94,22.8,22.8,0,0,0-3.3,8.68Z"/></g></g></svg>