<svg xmlns="http://www.w3.org/2000/svg" viewBox="0 0 178.38 85.87"><defs><style>.cls-1{fill:#231f20;}.cls-2{fill:none;stroke:#58595b;stroke-width:1.25px;}</style></defs><g id="Layer_2" data-name="Layer 2"><g id="Layer_1-2" data-name="Layer 1"><path class="cls-1" d="M6.8,30.74a10.5,10.5,0,0,1-4-4.12,12.38,12.38,0,0,1-1.45-6,13,13,0,0,1,1.37-6.05,10,10,0,0,1,3.82-4.12A10.66,10.66,0,0,1,12.11,9a10.64,10.64,0,0,1,4.42.92,9.61,9.61,0,0,1,3.5,2.6,8.8,8.8,0,0,1,1.9,3.9l-3.12.68a6.92,6.92,0,0,0-2.49-3.73,6.81,6.81,0,0,0-4.25-1.43A6.9,6.9,0,0,0,8.23,13,7.65,7.65,0,0,0,5.55,16.1a10,10,0,0,0-1,4.5,9.46,9.46,0,0,0,1.05,4.5,7.57,7.57,0,0,0,2.9,3.08,8.21,8.21,0,0,0,4.2,1.08,8.31,8.31,0,0,0,3.63-.79,7.39,7.39,0,0,0,2.75-2.19A7.15,7.15,0,0,0,20.48,23l3.15.64a9.1,9.1,0,0,1-1.94,4.37,11,11,0,0,1-3.9,3.05,11.75,11.75,0,0,1-5.08,1.11A11.73,11.73,0,0,1,6.8,30.74Z"/><path class="cls-1" d="M29.35,31.4a6.83,6.83,0,0,1-2.94-2.31,5.59,5.59,0,0,1-1.07-3.37,5.69,5.69,0,0,1,2.34-4.63q2.36-1.85,7.38-2.45L40.4,18a2,2,0,0,0,1.28-.49,1.52,1.52,0,0,0,.47-1.13A3.59,3.59,0,0,0,41.34,14a5.44,5.44,0,0,0-2.24-1.53,9,9,0,0,0-3.27-.56,8,8,0,0,0-3.54.77,7.12,7.12,0,0,0-2.51,1.94,4.36,4.36,0,0,0-1,2.45l-2.94-1.23a6.2,6.2,0,0,1,1.58-3.37A9.82,9.82,0,0,1,31,9.9a12.15,12.15,0,0,1,5-1,11.38,11.38,0,0,1,4.88,1,7.8,7.8,0,0,1,3.33,2.79,7.5,7.5,0,0,1,1.18,4.18V27.77a1.61,1.61,0,0,0,.32,1.05,1,1,0,0,0,.83.4,1.6,1.6,0,0,0,.94-.34,3,3,0,0,0,.81-.94L50,30a5.19,5.19,0,0,1-1.92,1.56,5.55,5.55,0,0,1-2.48.62,3.47,3.47,0,0,1-1.79-.45,3.28,3.28,0,0,1-1.21-1.24,4.27,4.27,0,0,1-.54-1.77l0-1h0a8.14,8.14,0,0,1-2,2.37,8.69,8.69,0,0,1-2.85,1.53,11.06,11.06,0,0,1-3.5.54A10.79,10.79,0,0,1,29.35,31.4Zm8.91-3a6.92,6.92,0,0,0,2.8-2.52,6.8,6.8,0,0,0,1-3.69V20.6l-6.65.81A12.39,12.39,0,0,0,30.18,23a3.18,3.18,0,0,0-1.6,2.65,3,3,0,0,0,1.58,2.64,7.5,7.5,0,0,0,4.05,1A8.75,8.75,0,0,0,38.26,28.35Z"/><path class="cls-1" d="M64.8,9.73A6.14,6.14,0,0,1,67.08,12a9.44,9.44,0,0,1,1.13,3.67l-2.9.89A5.72,5.72,0,0,0,64,13.14a3.73,3.73,0,0,0-2.86-1.2,5,5,0,0,0-3,.92,6,6,0,0,0-2,2.6,10.45,10.45,0,0,0-.71,4V31.35H52.21V9.81h2.73l.34,3.41h0a7.52,7.52,0,0,1,2.51-3.15,6.24,6.24,0,0,1,3.72-1.15A6.39,6.39,0,0,1,64.8,9.73Z"/><path class="cls-1" d="M74.84,31a8.09,8.09,0,0,1-3.47-3.3,10,10,0,0,1-1.2-5,14.58,14.58,0,0,1,1.69-7,12.59,12.59,0,0,1,4.71-5A13.17,13.17,0,0,1,83.48,9a11.59,11.59,0,0,1,5.33,1.17,8.25,8.25,0,0,1,3.52,3.29,9.86,9.86,0,0,1,1.22,5,14.41,14.41,0,0,1-1.71,7,12.56,12.56,0,0,1-4.78,5,13.14,13.14,0,0,1-6.82,1.82A11.56,11.56,0,0,1,74.84,31Zm10.58-3.22A9.81,9.81,0,0,0,89,23.91a11.48,11.48,0,0,0,1.26-5.31A7.57,7.57,0,0,0,89.41,15,5.28,5.28,0,0,0,87,12.71a8.08,8.08,0,0,0-3.6-.77,9.71,9.71,0,0,0-5.21,1.43,9.81,9.81,0,0,0-3.56,3.86,11.61,11.61,0,0,0-1.26,5.42,7.06,7.06,0,0,0,.84,3.48,5.61,5.61,0,0,0,2.38,2.32,7.83,7.83,0,0,0,3.65.81A9.34,9.34,0,0,0,85.42,27.81Z"/><path class="cls-1" d="M96.75,0H100V31.35H96.75Z"/><path class="cls-1" d="M108.63,40.48a15.44,15.44,0,0,1-4.57-1.94,10.28,10.28,0,0,1-3-2.75l2.26-2.18A10.33,10.33,0,0,0,106,36a13.48,13.48,0,0,0,3.69,1.64,16.11,16.11,0,0,0,4.5.6,12.85,12.85,0,0,0,5.23-1,8,8,0,0,0,3.43-2.79,7.39,7.39,0,0,0,1.24-4.29V28.07h0a9.19,9.19,0,0,1-3.78,3.65,11.5,11.5,0,0,1-5.52,1.34,11.32,11.32,0,0,1-5.67-1.39,9.59,9.59,0,0,1-3.82-3.81,11.45,11.45,0,0,1-1.35-5.64V9.81h3.25V22.05a8.53,8.53,0,0,0,1,4.18A7.1,7.1,0,0,0,111,29.09a8.25,8.25,0,0,0,4.16,1A9.48,9.48,0,0,0,119.68,29a8.17,8.17,0,0,0,3.24-3.12,9,9,0,0,0,1.17-4.65V9.81h3.24V30.16A10.5,10.5,0,0,1,125.71,36a10.29,10.29,0,0,1-4.56,3.82,16.77,16.77,0,0,1-6.91,1.33A22,22,0,0,1,108.63,40.48Z"/><path class="cls-1" d="M147.21,10a6.65,6.65,0,0,1,2.73,2.92,10.12,10.12,0,0,1,.94,4.55v13.9h-3.24V17.75a6.19,6.19,0,0,0-1.5-4.36,5.28,5.28,0,0,0-4.09-1.62,7.91,7.91,0,0,0-3.84.94,6.54,6.54,0,0,0-2.64,2.65,7.69,7.69,0,0,0-.94,3.79v12.2h-3.25V9.81h3l.3,3.2h0a9.23,9.23,0,0,1,3.45-3A10.74,10.74,0,0,1,143,9,8.47,8.47,0,0,1,147.21,10Z"/><path class="cls-1" d="M159.86,30.69a10.9,10.9,0,0,1-4.25-4.24,12.28,12.28,0,0,1-1.53-6.1,12.11,12.11,0,0,1,1.41-5.85,10.32,10.32,0,0,1,3.9-4.07A11,11,0,0,1,165.08,9a10.28,10.28,0,0,1,5.49,1.45,10,10,0,0,1,3.69,4.07,13.39,13.39,0,0,1,1.36,5.91V21a5.07,5.07,0,0,1,0,.66H157.41a8.6,8.6,0,0,0,1.42,4,8.26,8.26,0,0,0,3,2.66,9.43,9.43,0,0,0,8.66-.19,7.08,7.08,0,0,0,2.93-2.94l2.77,1.15a7.83,7.83,0,0,1-2.2,3.07,11.17,11.17,0,0,1-3.6,2.07,13.1,13.1,0,0,1-4.44.75A12.29,12.29,0,0,1,159.86,30.69Zm12.35-11.88A8.59,8.59,0,0,0,171,15.08a6.36,6.36,0,0,0-2.49-2.37,7.84,7.84,0,0,0-7.08.07,7.23,7.23,0,0,0-2.65,2.45,9.49,9.49,0,0,0-1.36,3.58Z"/><path class="cls-1" d="M4.73,63.69H0L0,61H4.73V57.25a6.68,6.68,0,0,1,.9-3.48,6.41,6.41,0,0,1,2.48-2.39,7.45,7.45,0,0,1,3.66-.87,7.56,7.56,0,0,1,4.74,1.55,7.1,7.1,0,0,1,2.6,4l-2.86,1.2a4.89,4.89,0,0,0-1.58-2.8,4.14,4.14,0,0,0-2.81-1.08,3.58,3.58,0,0,0-2.8,1.23A4.7,4.7,0,0,0,8,57.8V61h9.3v2.69H8L8,82.54H4.78Z"/><path class="cls-1" d="M22.27,82.59a6.86,6.86,0,0,1-2.95-2.31,5.8,5.8,0,0,1,1.28-8Q23,70.44,28,69.83l5.34-.68a2,2,0,0,0,1.28-.49,1.52,1.52,0,0,0,.47-1.13,3.6,3.6,0,0,0-.82-2.35A5.31,5.31,0,0,0,32,63.65a9,9,0,0,0-3.26-.56,8,8,0,0,0-3.54.77,7.25,7.25,0,0,0-2.52,1.94,4.41,4.41,0,0,0-1,2.45L18.73,67a6.13,6.13,0,0,1,1.58-3.37,9.73,9.73,0,0,1,3.6-2.56,12.15,12.15,0,0,1,5-1,11.38,11.38,0,0,1,4.88,1,7.8,7.8,0,0,1,3.33,2.79,7.49,7.49,0,0,1,1.17,4.18V79A1.66,1.66,0,0,0,38.58,80a1,1,0,0,0,.84.4,1.55,1.55,0,0,0,.93-.34,2.92,2.92,0,0,0,.82-.94L43,81.22A5.19,5.19,0,0,1,41,82.78a5.55,5.55,0,0,1-2.48.62A3.47,3.47,0,0,1,36.77,83a3.21,3.21,0,0,1-1.21-1.24A4.27,4.27,0,0,1,35,79.94l0-1h0a8.14,8.14,0,0,1-2,2.37,8.74,8.74,0,0,1-2.86,1.53,11,11,0,0,1-3.49.54A10.76,10.76,0,0,1,22.27,82.59Zm8.91-3A6.92,6.92,0,0,0,34,77a6.8,6.8,0,0,0,1-3.69V71.79l-6.66.81a12.38,12.38,0,0,0-5.22,1.58,3.18,3.18,0,0,0-1.6,2.65,3,3,0,0,0,1.58,2.64,7.5,7.5,0,0,0,4.05,1A8.75,8.75,0,0,0,31.18,79.54Z"/><path class="cls-1" d="M50.29,82.18a7.78,7.78,0,0,1-3-3.35h-.05l-1,3.71H43.38l4.95-31.35h3.29L49.4,64.46h0a12.12,12.12,0,0,1,4.05-3.2,11,11,0,0,1,4.82-1.11,9.73,9.73,0,0,1,5,1.21,8.42,8.42,0,0,1,3.27,3.42,10.39,10.39,0,0,1,1.17,5,14.18,14.18,0,0,1-1.68,6.8,13.38,13.38,0,0,1-4.59,5A11.67,11.67,0,0,1,55,83.4,9,9,0,0,1,50.29,82.18ZM59.7,79a10.43,10.43,0,0,0,3.56-3.9A10.57,10.57,0,0,0,64.54,70a7.73,7.73,0,0,0-.81-3.58A5.72,5.72,0,0,0,61.39,64a7.2,7.2,0,0,0-3.55-.86,8.7,8.7,0,0,0-4.92,1.48,10.84,10.84,0,0,0-4.84,9,7.39,7.39,0,0,0,.83,3.56,6.05,6.05,0,0,0,2.3,2.43,6.81,6.81,0,0,0,3.52.87A8.86,8.86,0,0,0,59.7,79Z"/><path class="cls-1" d="M83.57,60.92a6.14,6.14,0,0,1,2.28,2.3A9.44,9.44,0,0,1,87,66.89l-2.9.89a5.72,5.72,0,0,0-1.32-3.45,3.73,3.73,0,0,0-2.86-1.2,5,5,0,0,0-3,.92,6,6,0,0,0-2,2.6,10.45,10.45,0,0,0-.71,4V82.54H71V61h2.73l.34,3.41h0a7.52,7.52,0,0,1,2.51-3.15,6.24,6.24,0,0,1,3.72-1.15A6.39,6.39,0,0,1,83.57,60.92Z"/><path class="cls-1" d="M94.47,81.88a10.9,10.9,0,0,1-4.25-4.24,12.92,12.92,0,0,1-.13-12A10.35,10.35,0,0,1,94,61.62a11,11,0,0,1,5.69-1.47,10.22,10.22,0,0,1,5.48,1.45,9.84,9.84,0,0,1,3.69,4.07,13.39,13.39,0,0,1,1.37,5.91v.62c0,.21,0,.43,0,.66H92a8.61,8.61,0,0,0,1.43,4,8.11,8.11,0,0,0,3,2.66,9.43,9.43,0,0,0,8.66-.19,7,7,0,0,0,2.92-2.94l2.78,1.15a7.83,7.83,0,0,1-2.2,3.07A11.11,11.11,0,0,1,105,82.65a13,13,0,0,1-4.43.75A12.29,12.29,0,0,1,94.47,81.88ZM106.82,70a8.73,8.73,0,0,0-1.18-3.73,6.43,6.43,0,0,0-2.49-2.37,7.84,7.84,0,0,0-7.08.07,7.08,7.08,0,0,0-2.65,2.45A9.33,9.33,0,0,0,92.06,70Z"/><path class="cls-2" d="M8.16,32.59a10.44,10.44,0,0,1-4-4.12,12.26,12.26,0,0,1-1.45-6A13,13,0,0,1,4.05,16.4a10.12,10.12,0,0,1,3.81-4.12,10.72,10.72,0,0,1,5.61-1.47,10.8,10.8,0,0,1,4.42.92,9.73,9.73,0,0,1,3.5,2.6,8.8,8.8,0,0,1,1.9,3.9l-3.12.69a7,7,0,0,0-2.49-3.74,6.81,6.81,0,0,0-4.25-1.43,6.9,6.9,0,0,0-3.84,1.11A7.63,7.63,0,0,0,6.9,18a10.06,10.06,0,0,0-1,4.5A9.51,9.51,0,0,0,7,27,7.54,7.54,0,0,0,9.87,30a8.22,8.22,0,0,0,4.2,1.09,8.46,8.46,0,0,0,3.63-.79,7.52,7.52,0,0,0,2.75-2.2,7.15,7.15,0,0,0,1.39-3.24l3.15.64a9.06,9.06,0,0,1-1.94,4.37A11,11,0,0,1,19.15,33a11.75,11.75,0,0,1-5.08,1.11A11.73,11.73,0,0,1,8.16,32.59Z"/><path class="cls-2" d="M30.71,33.25a6.86,6.86,0,0,1-2.95-2.31A5.79,5.79,0,0,1,29,23q2.36-1.86,7.38-2.46l5.34-.68A2,2,0,0,0,43,19.32a1.5,1.5,0,0,0,.47-1.13,3.6,3.6,0,0,0-.82-2.35,5.34,5.34,0,0,0-2.23-1.53,9,9,0,0,0-3.27-.56,8,8,0,0,0-3.54.77,7.25,7.25,0,0,0-2.52,1.94,4.41,4.41,0,0,0-1,2.46l-2.94-1.24a6.2,6.2,0,0,1,1.58-3.37,9.93,9.93,0,0,1,3.6-2.56,12.15,12.15,0,0,1,5-1,11.38,11.38,0,0,1,4.88,1,7.8,7.8,0,0,1,3.33,2.79,7.49,7.49,0,0,1,1.17,4.18V29.62A1.66,1.66,0,0,0,47,30.67a1,1,0,0,0,.84.4,1.55,1.55,0,0,0,.93-.34,2.92,2.92,0,0,0,.82-.94l1.79,2.09a5.19,5.19,0,0,1-1.92,1.56,5.55,5.55,0,0,1-2.48.62,3.47,3.47,0,0,1-1.79-.45A3.21,3.21,0,0,1,44,32.37a4.27,4.27,0,0,1-.54-1.77l0-1h0a8.14,8.14,0,0,1-2,2.37,9,9,0,0,1-2.86,1.54,11.24,11.24,0,0,1-3.49.53A10.79,10.79,0,0,1,30.71,33.25Zm8.91-3.05a6.92,6.92,0,0,0,2.8-2.52,6.76,6.76,0,0,0,1-3.69V22.46l-6.66.81a12.4,12.4,0,0,0-5.22,1.57,3.2,3.2,0,0,0-1.6,2.65,3,3,0,0,0,1.58,2.64,7.5,7.5,0,0,0,4.05,1A8.75,8.75,0,0,0,39.62,30.2Z"/><path class="cls-2" d="M66.16,11.58a6.37,6.37,0,0,1,2.28,2.3,9.44,9.44,0,0,1,1.13,3.67l-2.9.9A5.79,5.79,0,0,0,65.35,15a3.72,3.72,0,0,0-2.86-1.19,5,5,0,0,0-3,.91,5.94,5.94,0,0,0-2,2.61,10.38,10.38,0,0,0-.71,4V33.21H53.57V11.66H56.3l.34,3.42h0a7.49,7.49,0,0,1,2.51-3.16,6.23,6.23,0,0,1,3.71-1.15A6.4,6.4,0,0,1,66.16,11.58Z"/><path class="cls-2" d="M76.2,32.89a8.17,8.17,0,0,1-3.47-3.31,10,10,0,0,1-1.2-5,14.58,14.58,0,0,1,1.69-7,12.59,12.59,0,0,1,4.71-5,13.17,13.17,0,0,1,6.91-1.81A11.59,11.59,0,0,1,90.17,12a8.31,8.31,0,0,1,3.52,3.29,9.89,9.89,0,0,1,1.22,5,14.48,14.48,0,0,1-1.71,7,12.69,12.69,0,0,1-4.78,5,13.22,13.22,0,0,1-6.82,1.81A11.69,11.69,0,0,1,76.2,32.89Zm10.58-3.23a9.81,9.81,0,0,0,3.54-3.9,11.42,11.42,0,0,0,1.26-5.31,7.53,7.53,0,0,0-.81-3.6,5.3,5.3,0,0,0-2.37-2.29,8.08,8.08,0,0,0-3.6-.76A9.63,9.63,0,0,0,76,19.09a11.57,11.57,0,0,0-1.26,5.41A7.16,7.16,0,0,0,75.6,28,5.63,5.63,0,0,0,78,30.3a7.71,7.71,0,0,0,3.65.82A9.35,9.35,0,0,0,86.78,29.66Z"/><path class="cls-2" d="M98.11,1.85h3.24V33.21H98.11Z"/><path class="cls-2" d="M110,42.33a15.44,15.44,0,0,1-4.57-1.94,10.28,10.28,0,0,1-3-2.75l2.26-2.17a10.3,10.3,0,0,0,2.64,2.36,13.81,13.81,0,0,0,3.69,1.65,16.49,16.49,0,0,0,4.5.59,12.68,12.68,0,0,0,5.23-1,7.93,7.93,0,0,0,3.43-2.79A7.39,7.39,0,0,0,125.45,32V29.92h0a9.18,9.18,0,0,1-3.78,3.65,12.21,12.21,0,0,1-11.2,0,9.65,9.65,0,0,1-3.81-3.82,11.41,11.41,0,0,1-1.35-5.63V11.66h3.24V23.91a8.59,8.59,0,0,0,1,4.18,7.14,7.14,0,0,0,2.81,2.85,8.25,8.25,0,0,0,4.16,1A9.48,9.48,0,0,0,121,30.86a8.24,8.24,0,0,0,3.24-3.12,9,9,0,0,0,1.17-4.64V11.66h3.24V32a10.55,10.55,0,0,1-1.62,5.87,10.34,10.34,0,0,1-4.56,3.81A16.64,16.64,0,0,1,115.6,43,21.94,21.94,0,0,1,110,42.33Z"/><path class="cls-2" d="M148.57,11.83a6.79,6.79,0,0,1,2.73,2.93,10.08,10.08,0,0,1,.94,4.54V33.21H149V19.6a6.15,6.15,0,0,0-1.5-4.35,5.28,5.28,0,0,0-4.09-1.62,7.91,7.91,0,0,0-3.84.93,6.63,6.63,0,0,0-2.65,2.65A7.8,7.8,0,0,0,136,21v12.2h-3.25V11.66h2.95l.3,3.2h0a9.41,9.41,0,0,1,3.45-3,10.73,10.73,0,0,1,4.82-1A8.49,8.49,0,0,1,148.57,11.83Z"/><path class="cls-2" d="M161.22,32.54A10.83,10.83,0,0,1,157,28.3a12.25,12.25,0,0,1-1.53-6.1,12,12,0,0,1,1.41-5.84,10.22,10.22,0,0,1,3.9-4.08,11,11,0,0,1,5.69-1.47,10.22,10.22,0,0,1,5.48,1.45,9.91,9.91,0,0,1,3.69,4.07A13.26,13.26,0,0,1,177,22.24v.62a5.07,5.07,0,0,1,0,.66H158.76a8.73,8.73,0,0,0,1.43,4,8.29,8.29,0,0,0,3,2.67,9.4,9.4,0,0,0,8.66-.2A6.94,6.94,0,0,0,174.8,27l2.78,1.15a7.83,7.83,0,0,1-2.2,3.07,11.17,11.17,0,0,1-3.6,2.07,13.1,13.1,0,0,1-4.44.75A12.29,12.29,0,0,1,161.22,32.54Zm12.35-11.88a8.73,8.73,0,0,0-1.18-3.73,6.43,6.43,0,0,0-2.49-2.37,7.84,7.84,0,0,0-7.08.07,7.23,7.23,0,0,0-2.65,2.45,9.33,9.33,0,0,0-1.36,3.58Z"/><path class="cls-2" d="M6.09,65.54H1.4l0-2.69H6.09V59.1A6.68,6.68,0,0,1,7,55.62a6.52,6.52,0,0,1,2.47-2.39,7.51,7.51,0,0,1,3.67-.87,7.5,7.5,0,0,1,4.74,1.56,7,7,0,0,1,2.6,4l-2.86,1.2A4.84,4.84,0,0,0,16,56.31a4.11,4.11,0,0,0-2.81-1.09,3.58,3.58,0,0,0-2.8,1.23,4.71,4.71,0,0,0-1.08,3.2v3.2h9.3v2.69H9.34l0,18.86H6.14Z"/><path class="cls-2" d="M23.63,84.44a6.8,6.8,0,0,1-2.95-2.31,5.79,5.79,0,0,1,1.28-8q2.36-1.86,7.38-2.46L34.67,71A1.93,1.93,0,0,0,36,70.51a1.48,1.48,0,0,0,.47-1.13A3.59,3.59,0,0,0,35.61,67a5.31,5.31,0,0,0-2.24-1.53,9,9,0,0,0-3.26-.56,8,8,0,0,0-3.54.77,7.25,7.25,0,0,0-2.52,1.94,4.41,4.41,0,0,0-1,2.45l-2.94-1.23a6.19,6.19,0,0,1,1.57-3.37,10,10,0,0,1,3.61-2.56,12.15,12.15,0,0,1,5-1,11.38,11.38,0,0,1,4.88,1,7.8,7.8,0,0,1,3.33,2.79,7.49,7.49,0,0,1,1.17,4.18V80.81a1.66,1.66,0,0,0,.32,1,1,1,0,0,0,.83.4,1.55,1.55,0,0,0,.94-.34,2.78,2.78,0,0,0,.81-.94l1.8,2.09a5.19,5.19,0,0,1-1.92,1.56,5.55,5.55,0,0,1-2.48.62,3.47,3.47,0,0,1-1.79-.45,3.3,3.3,0,0,1-1.22-1.24,4.41,4.41,0,0,1-.53-1.77l0-1h0a8.29,8.29,0,0,1-2,2.37,9,9,0,0,1-2.86,1.54,11.24,11.24,0,0,1-3.49.53A10.76,10.76,0,0,1,23.63,84.44Zm8.91-3a6.71,6.71,0,0,0,3.8-6.21V73.65l-6.66.81A12.35,12.35,0,0,0,24.46,76a3.18,3.18,0,0,0-1.6,2.65,3,3,0,0,0,1.58,2.64,7.5,7.5,0,0,0,4,1A8.75,8.75,0,0,0,32.54,81.39Z"/><path class="cls-2" d="M51.65,84a7.8,7.8,0,0,1-3-3.35h0l-1,3.72H44.74L49.69,53H53L50.76,66.31h0a12.12,12.12,0,0,1,4.05-3.2A11,11,0,0,1,59.67,62a9.64,9.64,0,0,1,5,1.22,8.46,8.46,0,0,1,3.27,3.41,10.39,10.39,0,0,1,1.17,5,14.18,14.18,0,0,1-1.68,6.8,13.3,13.3,0,0,1-4.59,5,11.67,11.67,0,0,1-6.44,1.86A9,9,0,0,1,51.65,84Zm9.41-3.22a10.35,10.35,0,0,0,3.56-3.9,10.68,10.68,0,0,0,1.28-5.06,7.73,7.73,0,0,0-.81-3.58,5.68,5.68,0,0,0-2.35-2.43A7.13,7.13,0,0,0,59.2,65a8.77,8.77,0,0,0-4.92,1.47,10.41,10.41,0,0,0-3.54,3.88,10.58,10.58,0,0,0-1.31,5.1A7.4,7.4,0,0,0,50.27,79a6.05,6.05,0,0,0,2.3,2.43,6.78,6.78,0,0,0,3.52.87A8.86,8.86,0,0,0,61.06,80.81Z"/><path class="cls-2" d="M84.93,62.77a6.37,6.37,0,0,1,2.28,2.3,9.44,9.44,0,0,1,1.13,3.67l-2.9.9a5.79,5.79,0,0,0-1.32-3.46A3.72,3.72,0,0,0,81.26,65a5,5,0,0,0-3,.91,5.94,5.94,0,0,0-2,2.61,10.38,10.38,0,0,0-.71,4V84.4H72.34V62.85h2.73l.34,3.42h0A7.49,7.49,0,0,1,78,63.11,6.23,6.23,0,0,1,81.68,62,6.4,6.4,0,0,1,84.93,62.77Z"/><path class="cls-2" d="M95.83,83.73a10.83,10.83,0,0,1-4.25-4.24,12.25,12.25,0,0,1-1.53-6.1,12,12,0,0,1,1.4-5.84,10.31,10.31,0,0,1,3.91-4.08A11,11,0,0,1,101.05,62a10.24,10.24,0,0,1,5.48,1.45,9.84,9.84,0,0,1,3.69,4.07,13.39,13.39,0,0,1,1.37,5.91v.62a5.14,5.14,0,0,1,0,.66H93.37a8.61,8.61,0,0,0,1.43,4,8.13,8.13,0,0,0,3,2.67,9,9,0,0,0,4.16,1,8.92,8.92,0,0,0,4.5-1.15,7,7,0,0,0,2.92-2.94l2.77,1.15A7.71,7.71,0,0,1,110,82.43a11.11,11.11,0,0,1-3.61,2.07,13,13,0,0,1-4.43.75A12.29,12.29,0,0,1,95.83,83.73Zm12.34-11.88A8.59,8.59,0,0,0,107,68.12a6.43,6.43,0,0,0-2.49-2.37,7.86,7.86,0,0,0-7.09.07,7.13,7.13,0,0,0-2.64,2.45,9.33,9.33,0,0,0-1.36,3.58Z"/></g></g></svg>