<?xml version="1.0" encoding="iso-8859-1"?>
<!-- Generator: Adobe Illustrator 26.5.0, SVG Export Plug-In . SVG Version: 6.00 Build 0)  -->
<svg version="1.1" id="Layer_1" xmlns="http://www.w3.org/2000/svg" xmlns:xlink="http://www.w3.org/1999/xlink" x="0px" y="0px"
	 width="1000px" height="1000px" viewBox="0 0 1000 1000" enable-background="new 0 0 1000 1000" xml:space="preserve">
<g>
	<g>
		<g>
			<defs>
				<rect id="SVGID_1_" x="-116.621" y="15.568" width="1147.031" height="968.865"/>
			</defs>
			<clipPath id="SVGID_00000031173274683968702830000003990345830630438067_">
				<use xlink:href="#SVGID_1_"  overflow="visible"/>
			</clipPath>
			<g clip-path="url(#SVGID_00000031173274683968702830000003990345830630438067_)">
				<g>
					<g>
						<g>
							<defs>
								
									<rect id="SVGID_00000117677423152225986370000009543909808131785862_" x="121.144" y="122.383" transform="matrix(0.9808 -0.1951 0.1951 0.9808 -87.4759 111.9056)" width="806.393" height="755.267"/>
							</defs>
							<clipPath id="SVGID_00000023265524001231668700000013837385765946405289_">
								<use xlink:href="#SVGID_00000117677423152225986370000009543909808131785862_"  overflow="visible"/>
							</clipPath>
							<g opacity="0.45" clip-path="url(#SVGID_00000023265524001231668700000013837385765946405289_)">
								<g>
									<g>
										<g>
											<g>
												<defs>
													
														<rect id="SVGID_00000020390935153467784690000017567799687115915413_" x="-52.324" y="-249.093" width="1306.823" height="1907.371"/>
												</defs>
												<clipPath id="SVGID_00000018934526386118389560000016027617317990495875_">
													<use xlink:href="#SVGID_00000020390935153467784690000017567799687115915413_"  overflow="visible"/>
												</clipPath>
												
													<path clip-path="url(#SVGID_00000018934526386118389560000016027617317990495875_)" fill="none" stroke="#B49CCA" stroke-width="2.2633" stroke-miterlimit="10" d="
													M971.219,1470.365l-40.14-201.801l215.304-42.827l40.14,201.801L971.219,1470.365z M931.034,1268.34l-40.142-201.81
													l215.304-42.827l40.142,201.81L931.034,1268.34z M890.892,1066.53L850.75,864.729l215.304-42.827l40.141,201.801
													L890.892,1066.53z M850.75,864.729l-40.142-201.81l215.304-42.826l40.142,201.809L850.75,864.729z M810.608,662.919
													l-40.141-201.805l215.304-42.827l40.141,201.806L810.608,662.919z M770.467,461.114l-40.141-201.806l215.304-42.826
													l40.141,201.805L770.467,461.114z M730.325,259.308L690.184,57.503l215.304-42.826l40.141,201.805L730.325,259.308z
													 M322.587,1599.154l-40.141-201.801l215.303-42.826l40.141,201.801L322.587,1599.154z M538.782,1556.15l-40.14-201.801
													l215.304-42.827l40.14,201.801L538.782,1556.15z M754.978,1513.146l-40.14-201.801l215.304-42.827l40.14,201.801
													L754.978,1513.146z M282.446,1397.352l-40.142-201.81l215.303-42.826l40.142,201.81L282.446,1397.352z
													 M498.641,1354.348l-40.142-201.81l215.304-42.826l40.142,201.809L498.641,1354.348z M714.838,1311.344l-40.142-201.81
													l215.304-42.826l40.142,201.809L714.838,1311.344z M242.304,1195.542l-40.14-201.801l215.303-42.826l40.14,201.801
													L242.304,1195.542z M458.499,1152.538l-40.14-201.801l215.304-42.826l40.14,201.801L458.499,1152.538z
													 M674.695,1109.534l-40.141-201.801l215.304-42.826l40.141,201.801L674.695,1109.534z M202.163,993.741l-40.142-201.81
													l215.303-42.826l40.142,201.81L202.163,993.741z M418.359,950.737l-40.142-201.81l215.304-42.826l40.142,201.81
													L418.359,950.737z M634.554,907.733l-40.142-201.81l215.304-42.826l40.142,201.81L634.554,907.733z M162.021,791.931
													l-40.141-201.805L337.182,547.3l40.141,201.805L162.021,791.931z M378.216,748.927l-40.142-201.805l215.304-42.826
													l40.142,201.805L378.216,748.927z M594.412,705.923L554.27,504.118l215.304-42.827l40.141,201.806L594.412,705.923z
													 M121.879,590.126L81.737,388.321l215.303-42.827L337.182,547.3L121.879,590.126z M338.074,547.122l-40.141-201.805
													l215.304-42.827l40.141,201.806L338.074,547.122z M554.27,504.118l-40.141-201.805l215.304-42.827l40.141,201.805
													L554.27,504.118z M81.737,388.321L41.595,186.515l215.303-42.826l40.141,201.805L81.737,388.321z M297.932,345.317
													l-40.141-201.806l215.304-42.826l40.141,201.805L297.932,345.317z M514.129,302.313l-40.141-201.806l215.304-42.826
													l40.141,201.805L514.129,302.313z M41.595,186.515L1.454-15.29l215.303-42.826l40.141,201.805L41.595,186.515z
													 M257.791,143.511L217.65-58.294l215.304-42.827l40.141,201.806L257.791,143.511z M473.987,100.507l-40.141-201.805
													l215.304-42.827l40.141,201.806L473.987,100.507z M690.184,57.503l-40.142-201.805l215.304-42.827l40.142,201.806
													L690.184,57.503z M282,1397.441l40.23,202.247 M241.857,1195.632L282,1397.441 M201.717,993.83l40.14,201.802
													 M161.574,792.021l40.142,201.809 M121.433,590.214l40.141,201.806 M81.291,388.409l40.142,201.805 M41.149,186.604
													l40.141,201.805 M0.919-15.648l40.23,202.252 M322.587,1599.154l215.303-42.826 M282.446,1397.352l215.303-42.826
													 M498.195,1354.437l40.23,202.247 M242.304,1195.542l215.303-42.826 M458.053,1152.627l40.142,201.81 M202.163,993.741
													l215.303-42.826 M417.912,950.827l40.14,201.8 M162.021,791.931l215.303-42.826 M377.77,749.017l40.142,201.81
													 M121.879,590.126L337.182,547.3 M337.627,547.211l40.142,201.806 M81.737,388.321l215.303-42.827 M297.486,345.405
													l40.141,201.805 M41.595,186.515l215.303-42.826 M257.345,143.6l40.141,201.805 M1.454-15.29l215.303-42.826
													 M217.115-58.652l40.23,202.252 M538.782,1556.15l215.304-42.827 M498.641,1354.348l215.304-42.827 M714.392,1311.433
													l40.229,202.248 M458.499,1152.538l215.304-42.826 M674.249,1109.623l40.142,201.81 M418.359,950.737l215.304-42.826
													 M634.109,907.822l40.14,201.801 M378.216,748.927l215.304-42.826 M593.965,706.013l40.143,201.809 M338.074,547.122
													l215.304-42.826 M553.824,504.207l40.141,201.806 M297.932,345.317l215.304-42.827 M513.682,302.401l40.141,201.805
													 M257.791,143.511l215.304-42.826 M473.541,100.596l40.141,201.805 M217.65-58.294l215.304-42.827 M433.31-101.656
													l40.231,202.252 M754.978,1513.146l215.304-42.827 M714.838,1311.344l215.304-42.827 M930.588,1268.429l40.229,202.248
													 M674.695,1109.534l215.304-42.826 M890.446,1066.619l40.142,201.81 M634.554,907.733l215.304-42.826 M850.304,864.818
													l40.141,201.801 M594.412,705.923l215.304-42.826 M810.162,663.008l40.142,201.81 M554.27,504.118l215.304-42.827
													 M770.02,461.203l40.141,201.805 M514.129,302.313l215.304-42.827 M729.879,259.397l40.141,201.805 M473.987,100.507
													l215.304-42.826 M689.738,57.591l40.141,201.806 M433.846-101.298l215.304-42.827 M649.507-144.66l40.231,202.251
													 M971.175,1470.141l215.304-42.826 M931.034,1268.34l215.304-42.827 M1146.783,1225.425l40.23,202.247 M890.892,1066.53
													l215.304-42.827 M1106.641,1023.615l40.142,201.81 M850.75,864.729l215.304-42.827 M1066.501,821.814l40.14,201.801
													 M810.608,662.919l215.304-42.826 M1026.358,620.004l40.142,201.81 M770.467,461.114l215.304-42.827 M986.217,418.199
													l40.141,201.805 M730.325,259.308l215.304-42.826 M946.075,216.394l40.141,201.805 M690.184,57.503l215.304-42.826
													 M905.933,14.587l40.142,201.806 M650.041-144.302l215.304-42.827 M865.703-187.664l40.23,202.251"/>
											</g>
										</g>
									</g>
								</g>
							</g>
						</g>
					</g>
				</g>
			</g>
		</g>
	</g>
</g>
<g>
	<g>
		<g>
			<defs>
				
					<rect id="SVGID_00000013891619119121508180000016297849859789846975_" x="-60.941" y="54.808" width="964.112" height="868.121"/>
			</defs>
			<clipPath id="SVGID_00000067957476676281041800000011456991505545392047_">
				<use xlink:href="#SVGID_00000013891619119121508180000016297849859789846975_"  overflow="visible"/>
			</clipPath>
			<g clip-path="url(#SVGID_00000067957476676281041800000011456991505545392047_)">
				<g>
					<g>
						<g>
							<defs>
								
									<rect id="SVGID_00000154387980400891716180000004684214719634887326_" x="-60.941" y="54.808" width="964.111" height="868.121"/>
							</defs>
							<clipPath id="SVGID_00000075120448894273842400000008703401173092533131_">
								<use xlink:href="#SVGID_00000154387980400891716180000004684214719634887326_"  overflow="visible"/>
							</clipPath>
							<path clip-path="url(#SVGID_00000075120448894273842400000008703401173092533131_)" fill="#EDFF00" d="M430.426,761.348
								c-174.699-23.654-329.211-129.114-274.462-330.792c46.508-171.317,330.499-278.323,505.569-113.406
								C790.749,438.871,712.244,799.505,430.426,761.348"/>
						</g>
					</g>
				</g>
			</g>
		</g>
	</g>
</g>
<g>
	<rect x="248.652" y="359.979" fill="none" width="654.518" height="159.946"/>
	<path fill="#E0ABA6" d="M255.888,414.514c8.442-36.181,42.077-42.881,51.457-42.881c15.678,0,25.594,8.71,27.738,17.152
		l-25.46,20.234l-0.67-0.67c-0.134-19.564-6.834-30.15-16.214-30.15c-7.772,0-15.276,10.05-16.482,25.729
		c-1.072,20.101,8.174,43.015,30.687,43.015c4.69,0,8.71-1.206,12.999-2.546l0.268,1.072c-9.782,7.236-25.863,19.966-28.811,19.966
		C268.484,465.435,248.25,446.272,255.888,414.514z"/>
	<path fill="#E0ABA6" d="M385.466,446.54l12.998-6.7l0.402,0.804c-15.276,19.162-19.698,24.791-25.862,24.791
		c-6.298,0-8.844-7.504-7.638-20.369l10.452-40.334h-2.412c-13.802,52.931-24.388,60.703-34.573,60.703
		c-8.174,0-13.534-6.834-12.73-18.76c1.474-22.513,18.626-55.478,48.509-55.478c6.164,0,11.122,1.206,15.008,4.288h0.134
		l11.122-4.422h0.804l-4.824,14.204l-11.658,41.273H385.466z M367.778,394.815c-10.05,0-20.502,36.181-20.502,49.849
		c0,4.154,1.206,6.164,3.752,6.164c6.03,0,12.462-22.245,19.564-44.891C372.736,396.155,369.654,394.815,367.778,394.815z"/>
	<path fill="#E0ABA6" d="M466.269,396.959c-0.67,1.742-8.442,18.626-13.534,18.626c-2.948,0-6.834-4.958-9.112-4.958
		c-2.412,0-6.834,13.132-21.977,53.333h-22.378l13.802-53.333l-12.73,6.566l-0.402-0.938c15.276-19.028,19.698-24.656,25.729-24.656
		c6.432,0,8.978,7.504,7.772,20.234l-11.256,39.396h1.608c16.214-44.489,20.637-59.631,25.997-59.631
		c2.814,0,8.442,7.236,12.462,7.236c1.34,0,2.412-0.804,3.484-2.278L466.269,396.959z"/>
	<path fill="#E0ABA6" d="M457.423,427.78c7.236-31.491,34.975-37.119,39.263-37.119c19.162,0,27.202,17.286,22.378,38.593
		c-7.103,31.088-34.707,36.717-38.995,36.717C460.907,465.971,452.733,448.684,457.423,427.78z M496.82,424.832
		c-2.144-20.904-6.298-29.882-12.06-28.006c-4.824,2.01-6.969,11.926-5.227,34.841c1.876,20.904,6.566,30.15,12.194,28.006
		C496.552,457.662,498.16,447.88,496.82,424.832z"/>
	<path fill="#E0ABA6" d="M542.916,446.942l12.998-6.566l0.402,0.804c-15.276,19.162-19.698,24.791-25.862,24.791
		c-6.298,0-8.845-7.638-7.639-20.369l18.358-73.835l-7.102-1.876l0.268-0.804l31.223-9.112h0.804l-23.584,86.968H542.916z"/>
	<path fill="#E0ABA6" d="M602.412,392.671h23.45c-8.576,36.985-51.725,94.07-92.327,105.728l5.896-19.028l0.805-0.67
		c10.72,0.402,19.698-1.474,27.068-5.092l1.474-62.848l-12.596,6.432l-0.402-0.938c15.276-19.028,19.698-24.656,25.729-24.656
		c6.433,0,8.174,7.504,7.906,20.234l-2.01,44.087c13.668-19.833,15.812-47.705,14.606-62.713L602.412,392.671z"/>
	<path fill="#E0ABA6" d="M676.916,446.674l12.998-6.7l0.402,0.938c-15.276,19.028-19.699,24.656-25.863,24.656
		c-6.298,0-8.844-7.504-7.638-20.234l9.246-25.997c1.34-3.886,3.618-11.926,0.67-11.926c-4.422,0-10.854,13.132-26.265,56.549
		h-22.378l13.4-53.333l-12.597,6.566l-0.402-0.938c15.276-19.028,19.698-24.656,25.729-24.656c6.433,0,8.979,7.504,7.772,20.234
		l-11.122,39.396h1.607c11.123-33.366,22.915-60.167,38.325-60.167c6.164,0,13.534,4.824,7.103,23.584l-11.257,32.027H676.916z"/>
	<path fill="#E0ABA6" d="M753.562,405.535c-1.206,14.07-17.287,23.048-36.583,25.729c2.546,9.648,8.309,17.42,17.956,17.42
		c4.021,0,7.505-1.072,10.988-2.68l0.134,0.67c-8.441,9.916-21.306,18.894-25.192,18.894c-14.606,0-27.202-10.184-25.862-30.285
		c1.206-25.996,21.038-44.489,43.015-44.489C745.388,390.795,754.366,395.753,753.562,405.535z M731.05,406.473
		c0-5.494-1.742-9.916-6.298-9.916c-4.423,0-8.309,6.7-9.246,18.76c-0.269,4.556,0.134,9.246,1.071,13.802
		C724.082,427.646,731.05,416.658,731.05,406.473z"/>
</g>
<g>
	<rect x="259.567" y="525.006" fill="none" width="654.518" height="159.946"/>
	<path fill="#E0ABA6" d="M334.962,574.282l-0.64-0.128c-1.28-4.224-2.432-8.448-3.712-12.673
		c-4.992-18.305-8.192-21.249-22.401-21.249h-1.28l-10.241,40.834h2.176c6.784,0,12.161-2.304,24.449-19.2h0.896L314.098,602.7
		l-0.896-0.257c-3.968-15.744-7.936-19.072-14.72-19.072h-2.304l-8.32,33.281l4.608,6.912v0.769h-36.866v-0.769l8.448-6.912
		l17.665-71.299l-5.76-6.657v-0.768h68.099L334.962,574.282z"/>
	<path fill="#E0ABA6" d="M390.768,607.692l12.417-6.4l0.384,0.768c-14.593,18.305-18.817,23.682-24.705,23.682
		c-6.016,0-8.448-7.169-7.296-19.457l9.984-38.53h-2.304c-13.185,50.562-23.297,57.987-33.025,57.987
		c-7.808,0-12.929-6.528-12.161-17.921c1.408-21.505,17.793-52.995,46.338-52.995c5.888,0,10.625,1.152,14.336,4.097h0.128
		l10.625-4.225h0.768l-4.608,13.569l-11.137,39.426H390.768z M373.872,558.281c-9.601,0-19.585,34.562-19.585,47.618
		c0,3.969,1.152,5.889,3.584,5.889c5.76,0,11.905-21.249,18.689-42.882C378.608,559.562,375.664,558.281,373.872,558.281z"/>
	<path fill="#E0ABA6" d="M473.457,572.746c-1.408,21.505-17.921,52.995-46.466,52.995c-9.729,0-16.257-3.328-20.609-12.289
		l19.073-77.188l-6.656-1.792l0.128-0.769L448.88,525h0.768l-0.128,0.128h0.128l-23.169,87.685h1.792
		c13.057-50.435,23.297-57.987,32.898-57.987C468.977,554.825,474.097,561.354,473.457,572.746z M453.104,574.666
		c0-3.968-1.152-5.888-3.584-5.888c-5.76,0-11.904,21.377-18.561,42.882c-2.176,9.345,0.896,10.624,2.688,10.624
		C443.248,622.284,453.104,587.723,453.104,574.666z"/>
	<path fill="#E0ABA6" d="M537.967,560.33c-0.641,1.664-8.064,17.793-12.929,17.793c-2.816,0-6.528-4.736-8.704-4.736
		c-2.305,0-6.528,12.544-20.993,50.946h-21.377l13.185-50.946l-12.161,6.271l-0.384-0.896
		c14.593-18.177,18.817-23.553,24.577-23.553c6.144,0,8.576,7.168,7.424,19.328l-10.752,37.634h1.536
		c15.489-42.498,19.712-56.962,24.833-56.962c2.688,0,8.064,6.912,11.905,6.912c1.279,0,2.304-0.769,3.328-2.177L537.967,560.33z"/>
	<path fill="#E0ABA6" d="M584.941,568.522c-1.151,13.44-16.513,22.017-34.945,24.577c2.432,9.216,7.937,16.641,17.152,16.641
		c3.841,0,7.169-1.024,10.497-2.561l0.128,0.641c-8.064,9.472-20.354,18.049-24.065,18.049c-13.952,0-25.985-9.729-24.705-28.93
		c1.152-24.833,20.097-42.498,41.09-42.498C577.133,554.441,585.71,559.178,584.941,568.522z M563.437,569.418
		c0-5.248-1.664-9.473-6.017-9.473c-4.224,0-7.936,6.4-8.832,17.921c-0.256,4.353,0.128,8.833,1.024,13.185
		C556.78,589.644,563.437,579.146,563.437,569.418z"/>
</g>
<g>
</g>
<g>
</g>
<g>
</g>
<g>
</g>
<g>
</g>
<g>
</g>
</svg>
