<?xml version="1.0" encoding="utf-8"?>
<!-- Generator: Adobe Illustrator 26.0.2, SVG Export Plug-In . SVG Version: 6.00 Build 0)  -->
<svg version="1.1" id="Layer_1" xmlns="http://www.w3.org/2000/svg" xmlns:xlink="http://www.w3.org/1999/xlink" x="0px" y="0px"
	 viewBox="0 0 612 792" style="enable-background:new 0 0 612 792;" xml:space="preserve">
<style type="text/css">
	.st0{fill:none;stroke:#58595B;stroke-width:0.75;}
</style>
<g>
	<path d="M107.6,366.63c-4.17-2.38-7.42-5.7-9.76-9.97c-2.34-4.27-3.51-9.13-3.51-14.57c0-5.51,1.1-10.4,3.31-14.67
		c2.2-4.27,5.28-7.59,9.25-9.97c3.96-2.37,8.49-3.56,13.58-3.56c3.79,0,7.35,0.74,10.69,2.22c3.34,1.48,6.16,3.58,8.47,6.3
		c2.31,2.72,3.84,5.87,4.6,9.45l-7.54,1.65c-1.03-3.72-3.05-6.73-6.04-9.04c-3-2.31-6.42-3.46-10.28-3.46c-3.45,0-6.54,0.9-9.3,2.69
		c-2.76,1.79-4.93,4.29-6.51,7.49c-1.59,3.2-2.38,6.84-2.38,10.9c0,4.06,0.84,7.7,2.53,10.9c1.69,3.2,4.03,5.68,7.02,7.44
		c3,1.76,6.39,2.63,10.18,2.63c3.17,0,6.09-0.64,8.78-1.91c2.69-1.27,4.91-3.05,6.66-5.32c1.76-2.27,2.87-4.89,3.36-7.85l7.64,1.55
		c-0.62,3.93-2.19,7.46-4.7,10.59c-2.52,3.14-5.67,5.6-9.45,7.39c-3.79,1.79-7.89,2.69-12.29,2.69
		C116.54,370.19,111.77,369,107.6,366.63z"/>
	<path d="M162.2,368.23c-3.03-1.31-5.41-3.17-7.13-5.58c-1.72-2.41-2.58-5.13-2.58-8.16c0-4.48,1.89-8.21,5.68-11.21
		c3.79-2.99,9.74-4.97,17.87-5.94l12.91-1.65c1.31-0.07,2.34-0.46,3.1-1.19c0.76-0.72,1.14-1.63,1.14-2.74c0-2.2-0.66-4.1-1.96-5.68
		c-1.31-1.58-3.12-2.82-5.42-3.72c-2.31-0.89-4.94-1.34-7.9-1.34c-3.17,0-6.03,0.62-8.57,1.86c-2.55,1.24-4.58,2.81-6.09,4.7
		c-1.52,1.89-2.34,3.87-2.48,5.94l-7.13-3c0.34-2.89,1.62-5.61,3.82-8.16c2.2-2.55,5.11-4.61,8.73-6.2
		c3.62-1.58,7.63-2.37,12.04-2.37c4.41,0,8.35,0.81,11.83,2.43c3.48,1.62,6.16,3.87,8.06,6.77c1.89,2.89,2.84,6.27,2.84,10.12v26.34
		c0,1.03,0.26,1.88,0.77,2.53c0.52,0.65,1.19,0.98,2.01,0.98c0.76,0,1.51-0.27,2.27-0.83c0.76-0.55,1.41-1.31,1.96-2.27l4.34,5.06
		c-1.1,1.52-2.65,2.77-4.65,3.77c-2,1-4,1.5-5.99,1.5c-1.65,0-3.1-0.36-4.34-1.09c-1.24-0.72-2.22-1.72-2.94-2.99
		c-0.72-1.28-1.15-2.7-1.29-4.29l-0.1-2.38h-0.1c-1.24,2.21-2.86,4.12-4.85,5.73c-2,1.62-4.31,2.86-6.92,3.72
		c-2.62,0.86-5.44,1.29-8.47,1.29C168.71,370.19,165.23,369.53,162.2,368.23z M183.79,360.84c2.89-1.48,5.15-3.51,6.77-6.09
		c1.62-2.58,2.43-5.56,2.43-8.94v-3.72l-16.12,1.96c-5.85,0.76-10.07,2.03-12.66,3.82c-2.58,1.79-3.87,3.92-3.87,6.4
		c0,2.69,1.27,4.82,3.82,6.41c2.55,1.58,5.82,2.37,9.81,2.37C177.63,363.06,180.9,362.32,183.79,360.84z"/>
	<path d="M248.05,315.75c2.27,1.31,4.11,3.17,5.53,5.58c1.41,2.41,2.32,5.37,2.74,8.89l-7.02,2.17c-0.35-3.65-1.41-6.44-3.2-8.37
		c-1.79-1.93-4.1-2.89-6.92-2.89c-2.82,0-5.25,0.74-7.28,2.22c-2.03,1.48-3.62,3.58-4.75,6.3c-1.14,2.72-1.71,5.98-1.71,9.76v28.72
		h-7.85v-52.17h6.61l0.83,8.26h0.1c1.45-3.24,3.48-5.78,6.1-7.65c2.62-1.86,5.61-2.79,8.99-2.79
		C243.16,313.78,245.78,314.44,248.05,315.75z"/>
	<path d="M272.38,367.35c-3.69-1.89-6.49-4.56-8.42-8.01c-1.93-3.44-2.89-7.47-2.89-12.09c0-6.2,1.36-11.85,4.08-16.94
		c2.72-5.1,6.52-9.11,11.42-12.04c4.89-2.93,10.47-4.39,16.74-4.39c4.89,0,9.2,0.95,12.91,2.84c3.72,1.89,6.56,4.55,8.52,7.95
		c1.96,3.41,2.94,7.46,2.94,12.14c0,6.2-1.38,11.85-4.13,16.94c-2.76,5.1-6.61,9.11-11.57,12.04c-4.96,2.93-10.47,4.39-16.53,4.39
		C280.42,370.19,276.06,369.24,272.38,367.35z M298,359.55c3.68-2.34,6.54-5.49,8.58-9.45c2.03-3.96,3.05-8.25,3.05-12.86
		c0-3.37-0.65-6.28-1.96-8.73c-1.31-2.44-3.22-4.29-5.73-5.53c-2.52-1.24-5.42-1.86-8.73-1.86c-4.68,0-8.89,1.15-12.6,3.46
		c-3.72,2.31-6.6,5.42-8.63,9.35c-2.03,3.92-3.05,8.3-3.05,13.12c0,3.17,0.67,5.98,2.01,8.42c1.34,2.45,3.27,4.32,5.78,5.63
		c2.51,1.31,5.46,1.96,8.83,1.96C290.16,363.06,294.31,361.89,298,359.55z"/>
	<path d="M325.43,292.19h7.85v75.93h-7.85V292.19z"/>
	<path d="M354.2,390.23c-4.24-1.1-7.92-2.67-11.05-4.7c-3.13-2.03-5.53-4.25-7.18-6.66l5.48-5.27c1.65,2.13,3.79,4.04,6.4,5.73
		c2.62,1.69,5.6,3.01,8.94,3.98c3.34,0.96,6.97,1.45,10.9,1.45c4.89,0,9.11-0.79,12.66-2.37c3.55-1.59,6.32-3.84,8.32-6.77
		c2-2.93,3-6.39,3-10.38v-5.06h-0.1c-2.07,3.72-5.11,6.66-9.14,8.83c-4.03,2.17-8.49,3.25-13.38,3.25c-5.17,0-9.75-1.12-13.74-3.36
		c-4-2.24-7.08-5.32-9.25-9.25c-2.17-3.93-3.25-8.47-3.25-13.64v-30.06h7.85v29.65c0,3.79,0.81,7.17,2.43,10.13
		c1.62,2.96,3.89,5.27,6.82,6.92c2.93,1.65,6.28,2.48,10.07,2.48c3.99,0,7.66-0.89,11-2.69c3.34-1.79,5.96-4.3,7.85-7.54
		c1.89-3.24,2.84-6.99,2.84-11.26v-27.69h7.85v49.28c0,5.44-1.31,10.18-3.93,14.21c-2.62,4.03-6.3,7.11-11.05,9.25
		c-4.75,2.13-10.33,3.2-16.74,3.2C362.96,391.88,358.44,391.33,354.2,390.23z"/>
	<path d="M447.64,316.36c2.89,1.65,5.1,4.01,6.61,7.08c1.51,3.07,2.27,6.73,2.27,11v33.68h-7.85v-32.96c0-4.41-1.21-7.92-3.62-10.54
		c-2.41-2.62-5.72-3.93-9.92-3.93c-3.44,0-6.54,0.76-9.3,2.27c-2.76,1.52-4.89,3.65-6.41,6.4c-1.52,2.76-2.27,5.82-2.27,9.2v29.55
		h-7.85v-52.17h7.13l0.72,7.75h0.1c2.27-3.24,5.06-5.68,8.37-7.33c3.31-1.65,7.2-2.48,11.67-2.48
		C441.31,313.88,444.75,314.71,447.64,316.36z"/>
	<path d="M478.27,366.52c-4.37-2.44-7.8-5.87-10.28-10.28c-2.48-4.41-3.72-9.33-3.72-14.77c0-5.23,1.14-9.95,3.41-14.15
		c2.27-4.2,5.42-7.49,9.45-9.87c4.03-2.37,8.63-3.56,13.79-3.56c5.03,0,9.45,1.17,13.28,3.51c3.82,2.34,6.8,5.63,8.93,9.86
		c2.13,4.24,3.24,9.01,3.31,14.31c0,0.48,0,0.98,0,1.5c0,0.52-0.04,1.05-0.1,1.6h-44.01c0.41,3.65,1.57,6.85,3.46,9.61
		c1.89,2.76,4.34,4.91,7.33,6.46c3,1.55,6.35,2.32,10.07,2.32c3.99,0,7.63-0.93,10.9-2.79c3.27-1.86,5.63-4.24,7.08-7.13l6.72,2.79
		c-1.1,2.82-2.88,5.3-5.32,7.44c-2.45,2.13-5.36,3.81-8.73,5.01c-3.37,1.2-6.96,1.81-10.74,1.81
		C487.59,370.19,482.65,368.97,478.27,366.52z M508.18,337.75c-0.35-3.51-1.29-6.52-2.84-9.04c-1.55-2.51-3.57-4.43-6.04-5.73
		c-2.48-1.31-5.3-1.96-8.47-1.96c-3.17,0-6.06,0.71-8.68,2.12c-2.62,1.41-4.75,3.39-6.41,5.94c-1.65,2.55-2.76,5.44-3.31,8.68
		H508.18z"/>
	<path d="M102.59,446.43H91.23l-0.1-6.51h11.47v-9.09c0-3.17,0.72-5.97,2.17-8.42c1.45-2.45,3.44-4.37,5.99-5.79
		c2.55-1.41,5.51-2.12,8.88-2.12c4.41,0,8.23,1.26,11.47,3.77c3.24,2.51,5.34,5.73,6.3,9.66l-6.92,2.89
		c-0.55-2.75-1.83-5.01-3.82-6.77c-2-1.76-4.27-2.64-6.82-2.64c-2.76,0-5.01,1-6.77,3c-1.76,2-2.64,4.58-2.64,7.75v7.75h22.52v6.51
		h-22.52l0.1,45.66h-7.85L102.59,446.43z"/>
	<path d="M145.05,492.2c-3.03-1.31-5.41-3.17-7.13-5.58c-1.72-2.41-2.58-5.13-2.58-8.16c0-4.48,1.89-8.21,5.68-11.21
		c3.79-2.99,9.74-4.97,17.87-5.94l12.91-1.65c1.31-0.07,2.34-0.46,3.1-1.19c0.76-0.72,1.14-1.63,1.14-2.74c0-2.2-0.66-4.1-1.96-5.68
		c-1.31-1.58-3.12-2.82-5.42-3.72c-2.31-0.89-4.94-1.34-7.9-1.34c-3.17,0-6.03,0.62-8.57,1.86c-2.55,1.24-4.58,2.81-6.09,4.7
		c-1.52,1.89-2.34,3.87-2.48,5.94l-7.13-3c0.34-2.89,1.62-5.61,3.82-8.16c2.2-2.55,5.11-4.61,8.73-6.2
		c3.62-1.58,7.63-2.37,12.04-2.37c4.41,0,8.35,0.81,11.83,2.43c3.48,1.62,6.16,3.87,8.06,6.77c1.89,2.89,2.84,6.27,2.84,10.12v26.34
		c0,1.03,0.26,1.88,0.77,2.53c0.52,0.65,1.19,0.98,2.01,0.98c0.76,0,1.51-0.27,2.27-0.83c0.76-0.55,1.41-1.31,1.96-2.27l4.34,5.06
		c-1.1,1.52-2.65,2.77-4.65,3.77c-2,1-4,1.5-5.99,1.5c-1.65,0-3.1-0.36-4.34-1.09c-1.24-0.72-2.22-1.72-2.94-2.99
		c-0.72-1.28-1.15-2.7-1.29-4.29l-0.1-2.38h-0.1c-1.24,2.21-2.86,4.12-4.85,5.73c-2,1.62-4.31,2.86-6.92,3.72
		c-2.62,0.86-5.44,1.29-8.47,1.29C151.56,494.16,148.08,493.51,145.05,492.2z M166.64,484.81c2.89-1.48,5.15-3.51,6.77-6.09
		c1.62-2.58,2.43-5.56,2.43-8.94v-3.72l-16.12,1.96c-5.85,0.76-10.07,2.03-12.66,3.82c-2.58,1.79-3.87,3.92-3.87,6.4
		c0,2.69,1.27,4.82,3.82,6.41c2.55,1.58,5.82,2.37,9.81,2.37C160.48,487.03,163.75,486.29,166.64,484.81z"/>
	<path d="M212.93,491.22c-3.24-1.96-5.68-4.67-7.34-8.11h-0.1l-2.48,8.99h-6.82l11.98-75.93h7.96l-5.37,32.13h0.1
		c2.82-3.37,6.09-5.96,9.81-7.75c3.72-1.79,7.61-2.69,11.67-2.69c4.68,0,8.71,0.98,12.09,2.94c3.37,1.96,6.01,4.72,7.9,8.26
		c1.89,3.55,2.84,7.56,2.84,12.04c0,5.92-1.36,11.42-4.08,16.48c-2.72,5.06-6.42,9.09-11.11,12.09c-4.69,3-9.88,4.49-15.6,4.49
		C219.99,494.16,216.16,493.18,212.93,491.22z M235.71,483.42c3.68-2.41,6.56-5.56,8.63-9.45c2.07-3.89,3.1-7.97,3.1-12.24
		c0-3.24-0.65-6.13-1.96-8.68c-1.31-2.55-3.2-4.51-5.68-5.89c-2.48-1.38-5.34-2.07-8.57-2.07c-4.34,0-8.32,1.19-11.93,3.56
		c-3.62,2.38-6.47,5.51-8.57,9.4c-2.1,3.89-3.15,8.01-3.15,12.34c0,3.24,0.67,6.11,2.01,8.63c1.34,2.52,3.2,4.48,5.58,5.89
		c2.38,1.41,5.22,2.12,8.52,2.12C228.01,487.03,232.02,485.83,235.71,483.42z"/>
	<path d="M293.51,439.72c2.27,1.31,4.11,3.17,5.53,5.58c1.41,2.41,2.32,5.37,2.74,8.89l-7.02,2.17c-0.35-3.65-1.41-6.44-3.2-8.37
		c-1.79-1.93-4.1-2.89-6.92-2.89c-2.82,0-5.25,0.74-7.28,2.22c-2.03,1.48-3.62,3.58-4.75,6.3c-1.14,2.72-1.71,5.98-1.71,9.76v28.72
		h-7.85v-52.17h6.61l0.83,8.26h0.1c1.45-3.24,3.48-5.79,6.1-7.65c2.62-1.86,5.61-2.79,8.99-2.79
		C288.62,437.75,291.23,438.41,293.51,439.72z"/>
	<path d="M319.9,490.49c-4.37-2.44-7.8-5.87-10.28-10.28c-2.48-4.41-3.72-9.33-3.72-14.77c0-5.23,1.14-9.95,3.41-14.15
		c2.27-4.2,5.42-7.49,9.45-9.87c4.03-2.37,8.63-3.56,13.79-3.56c5.03,0,9.45,1.17,13.28,3.51c3.82,2.34,6.8,5.63,8.94,9.86
		c2.13,4.24,3.24,9.01,3.31,14.31c0,0.48,0,0.98,0,1.5c0,0.52-0.04,1.05-0.1,1.6h-44.01c0.41,3.65,1.57,6.85,3.46,9.61
		c1.89,2.76,4.34,4.91,7.33,6.46c3,1.55,6.35,2.32,10.07,2.32c3.99,0,7.63-0.93,10.9-2.79c3.27-1.86,5.63-4.24,7.08-7.13l6.72,2.79
		c-1.1,2.82-2.88,5.3-5.32,7.44c-2.45,2.13-5.36,3.81-8.73,5.01c-3.37,1.2-6.96,1.81-10.74,1.81
		C329.22,494.16,324.28,492.94,319.9,490.49z M349.81,461.72c-0.35-3.51-1.29-6.52-2.84-9.04c-1.55-2.51-3.56-4.42-6.04-5.73
		c-2.48-1.31-5.3-1.96-8.47-1.96c-3.17,0-6.06,0.71-8.68,2.12c-2.62,1.41-4.75,3.39-6.41,5.94c-1.65,2.55-2.76,5.44-3.31,8.68
		H349.81z"/>
</g>
<g>
	<path class="st0" d="M110.89,371.11c-4.17-2.38-7.42-5.7-9.76-9.97c-2.34-4.27-3.51-9.13-3.51-14.57c0-5.51,1.1-10.4,3.31-14.67
		c2.2-4.27,5.28-7.59,9.25-9.97c3.96-2.37,8.49-3.56,13.58-3.56c3.79,0,7.35,0.74,10.69,2.22c3.34,1.48,6.16,3.58,8.47,6.3
		c2.31,2.72,3.84,5.87,4.6,9.45l-7.54,1.65c-1.03-3.72-3.05-6.73-6.04-9.04c-3-2.31-6.42-3.46-10.28-3.46c-3.45,0-6.54,0.9-9.3,2.69
		c-2.76,1.79-4.93,4.29-6.51,7.49c-1.59,3.2-2.38,6.84-2.38,10.9s0.84,7.7,2.53,10.9c1.69,3.2,4.03,5.68,7.02,7.44
		c3,1.76,6.39,2.63,10.18,2.63c3.17,0,6.09-0.64,8.78-1.91c2.69-1.27,4.91-3.05,6.66-5.32c1.76-2.27,2.87-4.89,3.36-7.85l7.64,1.55
		c-0.62,3.93-2.19,7.46-4.7,10.59c-2.52,3.14-5.67,5.6-9.45,7.39c-3.79,1.79-7.89,2.69-12.29,2.69
		C119.83,374.67,115.06,373.49,110.89,371.11z"/>
	<path class="st0" d="M165.49,372.71c-3.03-1.31-5.41-3.17-7.13-5.58c-1.72-2.41-2.58-5.13-2.58-8.16c0-4.48,1.89-8.21,5.68-11.21
		c3.79-2.99,9.74-4.97,17.87-5.94l12.91-1.65c1.31-0.07,2.34-0.46,3.1-1.19c0.76-0.72,1.14-1.63,1.14-2.74c0-2.2-0.66-4.1-1.96-5.68
		c-1.31-1.58-3.12-2.82-5.42-3.72c-2.31-0.89-4.94-1.34-7.9-1.34c-3.17,0-6.03,0.62-8.57,1.86c-2.55,1.24-4.58,2.81-6.09,4.7
		c-1.52,1.89-2.34,3.87-2.48,5.94l-7.13-3c0.34-2.89,1.62-5.61,3.82-8.16c2.2-2.55,5.11-4.61,8.73-6.2
		c3.62-1.58,7.63-2.37,12.04-2.37c4.41,0,8.35,0.81,11.83,2.43c3.48,1.62,6.16,3.87,8.06,6.77c1.89,2.89,2.84,6.27,2.84,10.12v26.34
		c0,1.03,0.26,1.88,0.77,2.53c0.52,0.65,1.19,0.98,2.01,0.98c0.76,0,1.51-0.27,2.27-0.83c0.76-0.55,1.41-1.31,1.96-2.27l4.34,5.06
		c-1.1,1.52-2.65,2.77-4.65,3.77c-2,1-4,1.5-5.99,1.5c-1.65,0-3.1-0.36-4.34-1.09c-1.24-0.72-2.22-1.72-2.94-2.99
		c-0.72-1.28-1.15-2.7-1.29-4.29l-0.1-2.38h-0.1c-1.24,2.21-2.86,4.12-4.85,5.73c-2,1.62-4.31,2.86-6.92,3.72
		c-2.62,0.86-5.44,1.29-8.47,1.29C172,374.67,168.52,374.02,165.49,372.71z M187.08,365.32c2.89-1.48,5.15-3.51,6.77-6.09
		c1.62-2.58,2.43-5.56,2.43-8.94v-3.72l-16.12,1.96c-5.85,0.76-10.07,2.03-12.66,3.82c-2.58,1.79-3.87,3.92-3.87,6.4
		c0,2.69,1.27,4.82,3.82,6.41c2.55,1.58,5.82,2.37,9.81,2.37C180.92,367.55,184.19,366.81,187.08,365.32z"/>
	<path class="st0" d="M251.34,320.23c2.27,1.31,4.11,3.17,5.53,5.58c1.41,2.41,2.32,5.37,2.74,8.89l-7.02,2.17
		c-0.35-3.65-1.41-6.44-3.2-8.37c-1.79-1.93-4.1-2.89-6.92-2.89c-2.82,0-5.25,0.74-7.28,2.22c-2.03,1.48-3.62,3.58-4.75,6.3
		c-1.14,2.72-1.71,5.98-1.71,9.76v28.72h-7.85v-52.17h6.61l0.83,8.26h0.1c1.45-3.24,3.48-5.79,6.1-7.65
		c2.62-1.86,5.61-2.79,8.99-2.79C246.45,318.27,249.07,318.92,251.34,320.23z"/>
	<path class="st0" d="M275.67,371.83c-3.69-1.89-6.49-4.56-8.42-8.01c-1.93-3.44-2.89-7.47-2.89-12.09c0-6.2,1.36-11.85,4.08-16.94
		c2.72-5.1,6.52-9.11,11.42-12.04c4.89-2.93,10.47-4.39,16.74-4.39c4.89,0,9.2,0.95,12.91,2.84c3.72,1.89,6.56,4.55,8.52,7.95
		c1.96,3.41,2.94,7.46,2.94,12.14c0,6.2-1.38,11.85-4.13,16.94c-2.76,5.1-6.61,9.11-11.57,12.04s-10.47,4.39-16.53,4.39
		C283.71,374.67,279.35,373.73,275.67,371.83z M301.29,364.03c3.68-2.34,6.54-5.49,8.58-9.45c2.03-3.96,3.05-8.25,3.05-12.86
		c0-3.37-0.65-6.28-1.96-8.73c-1.31-2.44-3.22-4.29-5.73-5.53c-2.52-1.24-5.42-1.86-8.73-1.86c-4.68,0-8.89,1.15-12.6,3.46
		c-3.72,2.31-6.6,5.42-8.63,9.35c-2.03,3.92-3.05,8.3-3.05,13.12c0,3.17,0.67,5.98,2.01,8.42c1.34,2.45,3.27,4.32,5.79,5.63
		c2.51,1.31,5.46,1.96,8.83,1.96C293.46,367.55,297.61,366.37,301.29,364.03z"/>
	<path class="st0" d="M328.72,296.67h7.85v75.93h-7.85V296.67z"/>
	<path class="st0" d="M357.49,394.72c-4.24-1.1-7.92-2.67-11.05-4.7c-3.13-2.03-5.53-4.25-7.18-6.66l5.48-5.27
		c1.65,2.13,3.79,4.04,6.4,5.73c2.62,1.69,5.6,3.01,8.94,3.98c3.34,0.96,6.97,1.45,10.9,1.45c4.89,0,9.11-0.79,12.66-2.37
		c3.55-1.59,6.32-3.84,8.32-6.77c2-2.93,3-6.39,3-10.38v-5.06h-0.1c-2.07,3.72-5.11,6.66-9.14,8.83c-4.03,2.17-8.49,3.25-13.38,3.25
		c-5.17,0-9.75-1.12-13.74-3.36c-4-2.24-7.08-5.32-9.25-9.25c-2.17-3.93-3.25-8.47-3.25-13.64v-30.06h7.85v29.65
		c0,3.79,0.81,7.17,2.43,10.13c1.62,2.96,3.89,5.27,6.82,6.92c2.93,1.65,6.28,2.48,10.07,2.48c3.99,0,7.66-0.89,11-2.69
		c3.34-1.79,5.96-4.3,7.85-7.54c1.89-3.24,2.84-6.99,2.84-11.26v-27.69h7.85v49.28c0,5.44-1.31,10.18-3.93,14.21
		c-2.62,4.03-6.3,7.11-11.05,9.25c-4.75,2.13-10.33,3.2-16.74,3.2C366.25,396.37,361.73,395.82,357.49,394.72z"/>
	<path class="st0" d="M450.93,320.85c2.89,1.65,5.1,4.01,6.61,7.08c1.51,3.07,2.27,6.73,2.27,11v33.68h-7.85v-32.96
		c0-4.41-1.21-7.92-3.62-10.54c-2.41-2.62-5.72-3.93-9.92-3.93c-3.44,0-6.54,0.76-9.3,2.27c-2.76,1.52-4.89,3.65-6.41,6.4
		c-1.52,2.76-2.27,5.82-2.27,9.2v29.55h-7.85v-52.17h7.13l0.72,7.75h0.1c2.27-3.24,5.06-5.68,8.37-7.33
		c3.31-1.65,7.2-2.48,11.67-2.48C444.6,318.37,448.04,319.2,450.93,320.85z"/>
	<path class="st0" d="M481.56,371.01c-4.37-2.44-7.8-5.87-10.28-10.28c-2.48-4.41-3.72-9.33-3.72-14.77c0-5.23,1.14-9.95,3.41-14.15
		c2.27-4.2,5.42-7.49,9.45-9.87c4.03-2.37,8.63-3.56,13.79-3.56c5.03,0,9.45,1.17,13.28,3.51c3.82,2.34,6.8,5.63,8.94,9.86
		c2.13,4.24,3.24,9.01,3.31,14.31c0,0.48,0,0.98,0,1.5s-0.03,1.05-0.1,1.6h-44.01c0.41,3.65,1.57,6.85,3.46,9.61
		c1.89,2.76,4.34,4.91,7.33,6.46c3,1.55,6.35,2.32,10.07,2.32c3.99,0,7.63-0.93,10.9-2.79c3.27-1.86,5.63-4.24,7.08-7.13l6.72,2.79
		c-1.1,2.82-2.88,5.3-5.32,7.44c-2.45,2.13-5.36,3.81-8.73,5.01c-3.38,1.2-6.96,1.81-10.74,1.81
		C490.88,374.67,485.94,373.45,481.56,371.01z M511.47,342.23c-0.35-3.51-1.29-6.52-2.84-9.04c-1.55-2.51-3.56-4.43-6.04-5.73
		s-5.3-1.96-8.47-1.96c-3.17,0-6.06,0.71-8.68,2.12c-2.62,1.41-4.75,3.39-6.41,5.94c-1.65,2.55-2.76,5.44-3.31,8.68H511.47z"/>
	<path class="st0" d="M105.88,450.92H94.52l-0.1-6.51h11.47v-9.09c0-3.17,0.72-5.97,2.17-8.42c1.45-2.45,3.44-4.37,5.99-5.79
		c2.55-1.41,5.51-2.12,8.88-2.12c4.41,0,8.23,1.26,11.47,3.77c3.24,2.51,5.34,5.73,6.3,9.66l-6.92,2.89
		c-0.55-2.75-1.83-5.01-3.82-6.77c-2-1.76-4.27-2.64-6.82-2.64c-2.76,0-5.01,1-6.77,3c-1.76,2-2.64,4.58-2.64,7.75v7.75h22.52v6.51
		h-22.52l0.1,45.66h-7.85L105.88,450.92z"/>
	<path class="st0" d="M148.34,496.68c-3.03-1.31-5.41-3.17-7.13-5.58c-1.72-2.41-2.58-5.13-2.58-8.16c0-4.48,1.89-8.21,5.68-11.21
		c3.79-2.99,9.74-4.97,17.87-5.94l12.91-1.65c1.31-0.07,2.34-0.46,3.1-1.19c0.76-0.72,1.14-1.63,1.14-2.74c0-2.2-0.66-4.1-1.96-5.68
		c-1.31-1.58-3.12-2.82-5.42-3.72c-2.31-0.89-4.94-1.34-7.9-1.34c-3.17,0-6.03,0.62-8.57,1.86c-2.55,1.24-4.58,2.81-6.09,4.7
		c-1.52,1.89-2.34,3.87-2.48,5.94l-7.13-3c0.34-2.89,1.62-5.61,3.82-8.16c2.2-2.55,5.11-4.61,8.73-6.2
		c3.62-1.58,7.63-2.37,12.04-2.37c4.41,0,8.35,0.81,11.83,2.43c3.48,1.62,6.16,3.87,8.06,6.77c1.89,2.89,2.84,6.27,2.84,10.12v26.34
		c0,1.03,0.26,1.88,0.77,2.53c0.52,0.65,1.19,0.98,2.01,0.98c0.76,0,1.51-0.27,2.27-0.83c0.76-0.55,1.41-1.31,1.96-2.27l4.34,5.06
		c-1.1,1.52-2.65,2.77-4.65,3.77c-2,1-4,1.5-5.99,1.5c-1.65,0-3.1-0.36-4.34-1.09c-1.24-0.72-2.22-1.72-2.94-2.99
		c-0.72-1.28-1.15-2.7-1.29-4.29l-0.1-2.38h-0.1c-1.24,2.21-2.86,4.12-4.85,5.73c-2,1.62-4.31,2.86-6.92,3.72
		c-2.62,0.86-5.44,1.29-8.47,1.29C154.85,498.65,151.37,497.99,148.34,496.68z M169.93,489.3c2.89-1.48,5.15-3.51,6.77-6.09
		c1.62-2.58,2.43-5.56,2.43-8.94v-3.72l-16.12,1.96c-5.85,0.76-10.07,2.03-12.66,3.82c-2.58,1.79-3.87,3.92-3.87,6.4
		c0,2.69,1.27,4.82,3.82,6.41c2.55,1.58,5.82,2.37,9.81,2.37C163.77,491.52,167.04,490.78,169.93,489.3z"/>
	<path class="st0" d="M216.22,495.7c-3.24-1.96-5.68-4.67-7.34-8.11h-0.1l-2.48,8.99h-6.82l11.98-75.93h7.96l-5.37,32.13h0.1
		c2.82-3.37,6.09-5.96,9.81-7.75c3.72-1.79,7.61-2.69,11.67-2.69c4.68,0,8.71,0.98,12.09,2.94c3.37,1.96,6.01,4.72,7.9,8.26
		c1.89,3.55,2.84,7.56,2.84,12.04c0,5.92-1.36,11.42-4.08,16.48c-2.72,5.06-6.42,9.09-11.11,12.09c-4.69,3-9.88,4.49-15.6,4.49
		C223.28,498.65,219.45,497.67,216.22,495.7z M239,487.9c3.68-2.41,6.56-5.56,8.63-9.45c2.07-3.89,3.1-7.97,3.1-12.24
		c0-3.24-0.65-6.13-1.96-8.68c-1.31-2.55-3.2-4.51-5.68-5.89c-2.48-1.38-5.34-2.07-8.57-2.07c-4.34,0-8.32,1.19-11.93,3.56
		c-3.62,2.38-6.47,5.51-8.57,9.4c-2.1,3.89-3.15,8.01-3.15,12.34c0,3.24,0.67,6.11,2.01,8.63c1.34,2.52,3.2,4.48,5.58,5.89
		c2.38,1.41,5.22,2.12,8.52,2.12C231.3,491.52,235.31,490.31,239,487.9z"/>
	<path class="st0" d="M296.8,444.2c2.27,1.31,4.11,3.17,5.53,5.58c1.41,2.41,2.32,5.37,2.74,8.89l-7.02,2.17
		c-0.35-3.65-1.41-6.44-3.2-8.37c-1.79-1.93-4.1-2.89-6.92-2.89c-2.82,0-5.25,0.74-7.28,2.22c-2.03,1.48-3.62,3.58-4.75,6.3
		c-1.14,2.72-1.71,5.98-1.71,9.76v28.72h-7.85v-52.17h6.61l0.83,8.26h0.1c1.45-3.24,3.48-5.78,6.1-7.65
		c2.62-1.86,5.61-2.79,8.99-2.79C291.91,442.24,294.53,442.9,296.8,444.2z"/>
	<path class="st0" d="M323.19,494.98c-4.37-2.44-7.8-5.87-10.28-10.28c-2.48-4.41-3.72-9.33-3.72-14.77c0-5.23,1.14-9.95,3.41-14.15
		c2.27-4.2,5.42-7.49,9.45-9.87c4.03-2.37,8.63-3.56,13.79-3.56c5.03,0,9.45,1.17,13.28,3.51c3.82,2.34,6.8,5.63,8.94,9.86
		c2.13,4.24,3.24,9.01,3.31,14.31c0,0.48,0,0.98,0,1.5c0,0.52-0.04,1.05-0.1,1.6h-44.01c0.41,3.65,1.57,6.85,3.46,9.61
		c1.89,2.76,4.34,4.91,7.33,6.46c3,1.55,6.35,2.32,10.07,2.32c3.99,0,7.63-0.93,10.9-2.79c3.27-1.86,5.63-4.24,7.08-7.13l6.72,2.79
		c-1.1,2.82-2.88,5.3-5.32,7.44c-2.45,2.13-5.36,3.81-8.73,5.01c-3.37,1.2-6.96,1.81-10.74,1.81
		C332.51,498.65,327.57,497.42,323.19,494.98z M353.1,466.21c-0.35-3.51-1.29-6.52-2.84-9.04c-1.55-2.51-3.56-4.43-6.04-5.73
		c-2.48-1.31-5.3-1.96-8.47-1.96c-3.17,0-6.06,0.71-8.68,2.12c-2.62,1.41-4.75,3.39-6.41,5.94c-1.65,2.55-2.76,5.44-3.31,8.68H353.1
		z"/>
</g>
</svg>
