<?xml version="1.0" encoding="utf-8"?>
<!-- Generator: Adobe Illustrator 25.4.1, SVG Export Plug-In . SVG Version: 6.00 Build 0)  -->
<svg version="1.1" id="Layer_1" xmlns="http://www.w3.org/2000/svg" xmlns:xlink="http://www.w3.org/1999/xlink" x="0px" y="0px"
	 width="51.2px" height="211.1px" viewBox="0 0 51.2 211.1" style="enable-background:new 0 0 51.2 211.1;" xml:space="preserve">
<style type="text/css">
	.st0{fill:#FFFFFF;}
	.st1{fill:none;stroke:#D1D3D4;stroke-width:0.75;}
</style>
<g id="Layer_2_00000021821208639153283430000017611746657912833960_">
	<g id="Layer_1-2">
		<path class="st0" d="M38.4,206.4c-0.6,1.4-1.5,2.6-2.7,3.4c-3,2.1-7.2,1.5-9.4-1.5c-1.4-1.8-2.4-4.7-2.9-8.6l-0.8-6.2
			c0-0.6-0.2-1.1-0.6-1.5c-0.3-0.4-0.8-0.6-1.3-0.6c-1,0-2,0.3-2.8,1c-0.8,0.7-1.4,1.6-1.8,2.6c-0.5,1.2-0.7,2.5-0.6,3.8
			c0,1.4,0.3,2.9,0.9,4.1c0.5,1.1,1.3,2.1,2.3,2.9c0.8,0.7,1.8,1.1,2.9,1.2l-1.5,3.4c-1.5-0.2-2.8-0.8-4-1.9c-1.3-1.2-2.3-2.6-3-4.2
			c-0.8-1.8-1.2-3.8-1.1-5.8c0-2,0.4-3.9,1.2-5.7c0.7-1.6,1.8-3,3.3-3.9c1.5-0.9,3.2-1.4,4.9-1.4h12.8c0.4,0,0.9-0.1,1.2-0.4
			c0.3-0.2,0.5-0.6,0.5-1c0-0.4-0.1-0.8-0.4-1.1c-0.3-0.4-0.7-0.8-1.1-1l2.5-2.1c0.8,0.6,1.4,1.4,1.8,2.2c0.5,0.9,0.7,1.9,0.7,2.9
			c0,0.7-0.2,1.5-0.5,2.1c-0.3,0.6-0.8,1.1-1.4,1.4c-0.6,0.4-1.3,0.6-2.1,0.6h-1.2v0.1c1.1,0.6,2,1.4,2.8,2.4c0.8,1,1.4,2.1,1.8,3.3
			c0.4,1.3,0.6,2.7,0.6,4.1C39.4,203,39.1,204.8,38.4,206.4z M34.8,196c-0.7-1.3-1.7-2.5-2.9-3.3c-1.3-0.8-2.8-1.2-4.3-1.2h-1.8
			l1,7.8c0.1,2.2,0.8,4.2,1.9,6.1c0.6,1.1,1.8,1.8,3.1,1.9c1.3,0,2.5-0.7,3.1-1.9c0.8-1.4,1.2-3.1,1.2-4.8
			C35.9,199.1,35.6,197.5,34.8,196z M1.2,204.4L0,202.9l7.2-5.8l1.2,1.4L1.2,204.4z"/>
		<path class="st0" d="M13.1,166.1v-3.3l4.3-0.4v-0.1c-1.6-1-3-2.5-3.9-4.2c-0.9-1.7-1.4-3.7-1.4-5.6c-0.1-4.7,2.5-9,6.6-11.2
			c2.2-1.1,4.6-1.7,7-1.6c2.4,0,4.8,0.5,7,1.6c4.1,2.2,6.7,6.5,6.6,11.1c0,1.9-0.5,3.8-1.4,5.5c-0.9,1.7-2.2,3.1-3.8,4.2l0,0h14.7
			v3.8L13.1,166.1z M34.5,148.1c-0.9-1.4-2.1-2.6-3.6-3.4c-1.6-0.8-3.3-1.2-5.1-1.2c-1.8,0-3.6,0.4-5.2,1.2
			c-1.5,0.8-2.8,1.9-3.6,3.4c-0.9,1.5-1.3,3.1-1.3,4.9c0,1.7,0.4,3.4,1.3,4.9c0.9,1.4,2.2,2.6,3.7,3.4c1.6,0.8,3.4,1.3,5.2,1.2
			c1.8,0,3.5-0.4,5.1-1.2c1.5-0.8,2.7-1.9,3.6-3.4c0.9-1.5,1.4-3.2,1.3-4.9C35.9,151.2,35.4,149.5,34.5,148.1L34.5,148.1z"/>
		<path class="st0" d="M13,120.9c0.6-1.1,1.6-2,2.7-2.7c1.3-0.7,2.8-1.2,4.3-1.3l1,3.4c-1.5,0-2.9,0.6-4,1.5
			c-0.9,0.9-1.4,2.1-1.4,3.3c0,1.3,0.3,2.5,1.1,3.5c0.8,1,1.8,1.8,3,2.3c1.5,0.6,3.1,0.9,4.7,0.8h13.9v3.8H13.1v-3.2l4-0.4V132
			c-1.5-0.6-2.8-1.7-3.7-2.9c-0.9-1.3-1.4-2.8-1.4-4.3C12,123.4,12.4,122.1,13,120.9z"/>
		<path class="st0" d="M37.7,108.5c-1.1,2-2.8,3.6-4.8,4.7c-2.2,1.2-4.6,1.7-7.1,1.7c-2.5,0.1-5-0.5-7.2-1.7c-2-1.1-3.7-2.7-4.8-4.7
			c-2.3-4.4-2.3-9.7,0-14.1c1.1-2,2.8-3.7,4.8-4.8c2.2-1.1,4.7-1.7,7.2-1.6c2.5-0.1,4.9,0.5,7.1,1.7c2,1.1,3.7,2.7,4.8,4.8
			C39.9,98.9,39.9,104.1,37.7,108.5L37.7,108.5z M34.7,96.4c-0.8-1.5-2.1-2.6-3.6-3.4c-1.6-0.8-3.5-1.2-5.3-1.2
			c-1.9,0-3.7,0.4-5.4,1.2c-1.5,0.7-2.7,1.9-3.5,3.4c-0.8,1.5-1.3,3.3-1.2,5c0,1.8,0.4,3.5,1.2,5.1c0.8,1.5,2,2.6,3.5,3.4
			c1.7,0.8,3.5,1.2,5.4,1.2c1.8,0,3.7-0.4,5.3-1.2c1.5-0.8,2.7-1.9,3.6-3.4c0.9-1.6,1.3-3.3,1.3-5.1C35.9,99.6,35.5,97.9,34.7,96.4
			L34.7,96.4z"/>
		<path class="st0" d="M13.1,84v-3.3l4.3-0.4v-0.1c-1.7-1.1-3-2.5-3.9-4.2c-0.9-1.7-1.4-3.7-1.4-5.6c-0.1-4.7,2.5-9,6.6-11.2
			c2.2-1.1,4.6-1.7,7-1.7c2.4,0,4.8,0.5,7,1.7c4.1,2.2,6.7,6.5,6.6,11.1c0,2-0.5,3.9-1.4,5.6c-0.9,1.7-2.2,3.1-3.8,4.2l0,0h14.7V84
			H13.1z M34.5,66c-0.9-1.4-2.1-2.6-3.6-3.4c-1.6-0.8-3.3-1.2-5.1-1.2c-1.8,0-3.6,0.4-5.2,1.2c-1.5,0.8-2.8,1.9-3.6,3.4
			c-0.9,1.5-1.3,3.1-1.3,4.8c0,1.7,0.4,3.4,1.3,4.9c0.9,1.4,2.2,2.5,3.7,3.3c1.6,0.8,3.4,1.3,5.2,1.2c1.8,0,3.5-0.4,5.1-1.2
			c1.5-0.8,2.8-1.9,3.6-3.3c0.9-1.5,1.4-3.2,1.3-4.9C35.9,69.1,35.4,67.4,34.5,66L34.5,66z"/>
		<path class="st0" d="M37.7,48.2c-1.1,2-2.8,3.6-4.8,4.7c-2.2,1.2-4.6,1.7-7.1,1.7c-2.5,0.1-5-0.5-7.2-1.7c-2-1.1-3.7-2.7-4.8-4.7
			c-1.2-2.2-1.8-4.6-1.7-7.1c0-2.4,0.5-4.8,1.7-7c1.1-2,2.8-3.7,4.8-4.8c2.2-1.2,4.7-1.7,7.2-1.7c2.5-0.1,4.9,0.5,7.1,1.7
			c2,1.1,3.7,2.7,4.8,4.7c1.2,2.2,1.7,4.6,1.7,7C39.4,43.5,38.8,46,37.7,48.2z M34.6,36c-0.8-1.5-2.1-2.6-3.6-3.4
			c-1.6-0.8-3.5-1.2-5.3-1.2c-1.9,0-3.7,0.4-5.4,1.2c-1.5,0.8-2.7,1.9-3.5,3.4c-0.9,1.5-1.3,3.3-1.2,5c0,1.8,0.4,3.5,1.2,5.1
			c0.8,1.5,2,2.6,3.5,3.4c1.7,0.8,3.5,1.2,5.4,1.2c1.8,0,3.7-0.4,5.3-1.2c1.5-0.8,2.7-1.9,3.6-3.4c0.9-1.6,1.3-3.3,1.3-5.1
			C35.9,39.3,35.5,37.5,34.6,36z"/>
		<path class="st0" d="M38.3,19c-0.6,1.7-1.6,3.1-3,4.3c-1.3,1.1-2.9,1.7-4.6,1.9L30,21.4c1.1-0.1,2.2-0.5,3.1-1.2
			c0.9-0.8,1.7-1.8,2.1-2.9c0.5-1.3,0.8-2.7,0.8-4.1c0-1.2-0.2-2.4-0.6-3.6c-0.3-1-0.9-1.8-1.6-2.5c-0.6-0.6-1.4-0.9-2.3-0.9
			c-1,0-2,0.5-2.5,1.5c-0.8,1.4-1.3,3-1.6,4.6l-0.8,4.1c-0.3,2.1-1.2,4.1-2.5,5.7c-1.2,1.2-2.8,1.9-4.4,1.8c-1.4,0-2.7-0.4-3.8-1.2
			c-1.2-0.9-2.1-2-2.8-3.4c-0.7-1.5-1-3.1-1-4.8c0-1.6,0.3-3.3,0.9-4.8c0.5-1.4,1.4-2.6,2.5-3.6c1-0.9,2.2-1.6,3.6-1.8l1.1,3.6
			c-1.4,0.2-2.6,0.9-3.3,2.1c-0.9,1.3-1.3,2.9-1.3,4.5c0,1,0.2,2,0.5,2.9c0.3,0.8,0.8,1.5,1.5,2c0.6,0.5,1.3,0.7,2,0.8
			c0.9,0,1.7-0.4,2.2-1.2c0.7-1.2,1.2-2.5,1.4-3.8L24,11c0.4-2.3,1.3-4.5,2.6-6.5c1.1-1.3,2.8-2.1,4.5-2c1.5,0,3,0.5,4.3,1.4
			c1.3,1,2.3,2.3,3,3.8c0.7,1.8,1.1,3.6,1,5.5C39.4,15.2,39,17.2,38.3,19z"/>
		<path class="st1" d="M40.4,204.3c-0.6,1.4-1.5,2.6-2.7,3.4c-3,2.1-7.2,1.5-9.4-1.5c-1.4-1.8-2.4-4.7-2.9-8.6l-0.8-6.2
			c0-0.6-0.2-1.1-0.6-1.5c-0.3-0.4-0.8-0.6-1.3-0.6c-1,0-2,0.3-2.8,1c-0.8,0.7-1.4,1.6-1.8,2.6c-0.4,1.2-0.7,2.5-0.6,3.8
			c0,1.4,0.3,2.9,0.9,4.1c0.5,1.1,1.3,2.1,2.3,2.9c0.8,0.7,1.8,1.1,2.9,1.1l-1.5,3.4c-1.5-0.2-2.9-0.8-4-1.9c-1.3-1.2-2.3-2.6-3-4.2
			c-0.8-1.8-1.2-3.8-1.1-5.8c0-2,0.4-3.9,1.2-5.7c0.7-1.6,1.9-2.9,3.3-3.8c1.5-0.9,3.2-1.4,4.9-1.4h12.8c0.4,0,0.9-0.1,1.2-0.4
			c0.3-0.2,0.5-0.6,0.5-1c0-0.4-0.2-0.8-0.4-1.1c-0.3-0.4-0.7-0.7-1.1-1l2.5-2.1c0.8,0.6,1.4,1.4,1.8,2.2c0.5,0.9,0.7,1.9,0.7,2.9
			c0,0.7-0.2,1.5-0.5,2.1c-0.3,0.6-0.8,1.1-1.4,1.4c-0.6,0.4-1.3,0.6-2.1,0.6h-1.2v0.1c1.1,0.6,2,1.4,2.8,2.4c0.8,1,1.4,2.1,1.8,3.4
			c0.4,1.3,0.6,2.7,0.6,4.1C41.4,201,41.1,202.7,40.4,204.3z M36.8,193.9c-1.3-2.8-4.2-4.5-7.3-4.4h-1.8l1,7.8
			c0.1,2.2,0.8,4.3,1.9,6.1c0.6,1.1,1.8,1.8,3.1,1.9c1.3,0,2.5-0.7,3.1-1.9c0.8-1.4,1.2-3.1,1.2-4.8C37.9,197,37.6,195.3,36.8,193.9
			L36.8,193.9z M3.2,202.3L2,200.8l7.2-5.8l1.2,1.4L3.2,202.3z"/>
		<path class="st1" d="M15.1,164v-3.3l4.3-0.4v-0.1c-1.6-1-3-2.5-3.9-4.2c-0.9-1.7-1.4-3.7-1.4-5.6c-0.1-4.7,2.5-9,6.6-11.2
			c2.2-1.1,4.6-1.7,7-1.6c2.4,0,4.8,0.5,7,1.6c2,1.1,3.7,2.6,4.8,4.6c1.2,2,1.8,4.3,1.8,6.6c0,2-0.5,3.9-1.4,5.6
			c-0.9,1.7-2.2,3.1-3.8,4.2l0,0h14.7v3.8H15.1z M36.5,146c-0.9-1.4-2.1-2.6-3.6-3.4c-1.6-0.8-3.3-1.2-5.1-1.2
			c-1.8,0-3.6,0.4-5.2,1.2c-1.5,0.8-2.8,1.9-3.6,3.4c-0.9,1.5-1.3,3.1-1.3,4.9c0,1.7,0.4,3.4,1.4,4.9c0.9,1.4,2.2,2.6,3.7,3.4
			c1.6,0.8,3.4,1.2,5.2,1.2c1.8,0,3.5-0.4,5.1-1.2c1.5-0.8,2.7-1.9,3.6-3.4c0.9-1.5,1.4-3.2,1.3-4.9C37.9,149.2,37.4,147.5,36.5,146
			z"/>
		<path class="st1" d="M15,118.8c0.6-1.1,1.6-2,2.7-2.7c1.3-0.7,2.8-1.2,4.3-1.3l1,3.4c-1.5,0.1-2.9,0.6-4,1.5
			c-0.9,0.9-1.4,2.1-1.4,3.3c0,1.3,0.3,2.5,1.1,3.5c0.8,1,1.8,1.8,3,2.3c1.5,0.6,3.1,0.9,4.7,0.8h13.9v3.8H15.1v-3.2l4-0.4v-0.1
			c-1.5-0.6-2.8-1.6-3.7-2.9c-0.9-1.3-1.4-2.8-1.4-4.3C14,121.3,14.3,120,15,118.8z"/>
		<path class="st1" d="M39.7,106.4c-1.1,2-2.8,3.6-4.8,4.7c-2.2,1.2-4.7,1.7-7.1,1.7c-2.5,0.1-5-0.5-7.2-1.7c-2-1.1-3.7-2.7-4.8-4.7
			c-2.3-4.4-2.3-9.7,0-14.1c1.1-2,2.8-3.7,4.8-4.8c2.2-1.2,4.7-1.7,7.2-1.7c2.5-0.1,4.9,0.5,7.1,1.7c2,1.1,3.7,2.7,4.8,4.8
			C41.9,96.7,41.9,102,39.7,106.4z M36.7,94.3c-0.8-1.4-2.1-2.6-3.6-3.4c-1.6-0.8-3.5-1.2-5.3-1.2c-1.9,0-3.7,0.4-5.4,1.2
			c-1.5,0.7-2.7,1.9-3.5,3.4c-1.7,3.2-1.7,7,0,10.2c0.8,1.5,2,2.6,3.5,3.4c1.7,0.8,3.5,1.2,5.4,1.2c1.8,0,3.7-0.4,5.3-1.2
			c1.5-0.8,2.7-1.9,3.6-3.4C38.4,101.3,38.4,97.4,36.7,94.3z"/>
		<path class="st1" d="M15.1,81.9v-3.3l4.3-0.4l0,0c-1.6-1-3-2.5-3.9-4.2c-0.9-1.7-1.4-3.7-1.4-5.6c-0.1-4.7,2.5-9.1,6.6-11.2
			c2.2-1.1,4.6-1.7,7-1.7c2.4,0,4.8,0.5,7,1.7c2,1.1,3.7,2.6,4.8,4.5c1.2,2,1.8,4.3,1.8,6.6c0,1.9-0.5,3.8-1.4,5.5
			c-0.9,1.7-2.2,3.1-3.8,4.2v0.1h14.7v3.8L15.1,81.9z M36.5,63.9c-0.9-1.4-2.1-2.6-3.6-3.4c-1.6-0.8-3.3-1.2-5.1-1.2
			c-1.8,0-3.6,0.4-5.2,1.2c-1.5,0.8-2.8,2-3.6,3.4c-0.9,1.5-1.3,3.1-1.3,4.8c0,1.7,0.4,3.4,1.3,4.8c0.9,1.4,2.2,2.6,3.7,3.4
			c1.6,0.8,3.4,1.2,5.2,1.2c1.8,0,3.5-0.4,5.1-1.2c1.5-0.8,2.7-1.9,3.6-3.3c0.9-1.5,1.4-3.2,1.3-4.9C37.9,67,37.4,65.3,36.5,63.9
			L36.5,63.9z"/>
		<path class="st1" d="M39.7,46.1c-1.1,2-2.8,3.6-4.8,4.7c-2.2,1.2-4.6,1.7-7.1,1.7c-2.5,0.1-5-0.5-7.2-1.7c-2-1.1-3.7-2.7-4.8-4.7
			c-1.2-2.2-1.7-4.6-1.7-7.1c0-2.4,0.5-4.8,1.7-7c1.1-2,2.8-3.7,4.8-4.8c2.2-1.2,4.7-1.7,7.2-1.7c2.5-0.1,4.9,0.5,7.1,1.7
			c2,1.1,3.7,2.7,4.8,4.8c1.2,2.2,1.7,4.6,1.7,7C41.4,41.5,40.8,43.9,39.7,46.1z M36.7,33.9c-0.8-1.5-2.1-2.6-3.6-3.4
			c-1.6-0.8-3.5-1.2-5.3-1.2c-1.9,0-3.7,0.4-5.4,1.2c-1.5,0.7-2.7,1.9-3.5,3.4c-0.8,1.5-1.3,3.3-1.2,5c0,1.8,0.4,3.5,1.2,5.1
			c0.8,1.5,2,2.6,3.5,3.4c1.7,0.8,3.5,1.2,5.4,1.2c1.8,0,3.7-0.4,5.3-1.2c1.5-0.8,2.7-1.9,3.6-3.4c0.9-1.5,1.3-3.3,1.2-5
			C37.9,37.2,37.5,35.5,36.7,33.9L36.7,33.9z"/>
		<path class="st1" d="M40.3,16.9c-0.6,1.7-1.6,3.1-3,4.3c-1.3,1.1-2.9,1.7-4.6,1.8L32,19.3c1.1-0.1,2.2-0.6,3-1.3
			c0.9-0.8,1.7-1.8,2.1-2.9c0.5-1.3,0.8-2.6,0.8-4c0-1.2-0.2-2.4-0.6-3.6c-0.3-1-0.9-1.8-1.6-2.5c-0.6-0.6-1.4-0.9-2.3-0.9
			c-1,0-2,0.6-2.5,1.5c-0.8,1.4-1.3,3-1.6,4.6l-0.8,4.1c-0.3,2.1-1.2,4.1-2.5,5.7c-1.2,1.2-2.8,1.8-4.5,1.8c-1.4,0-2.7-0.4-3.9-1.2
			c-1.2-0.9-2.1-2-2.7-3.4c-0.7-1.5-1-3.1-1-4.8c0-1.6,0.3-3.3,0.9-4.8C15.5,6.2,16.4,5,17.5,4c1-0.9,2.2-1.6,3.6-1.9l1.1,3.6
			c-1.4,0.2-2.6,0.9-3.3,2.1c-0.9,1.3-1.3,2.9-1.3,4.5c0,1,0.2,2,0.5,2.9c0.3,0.8,0.8,1.5,1.5,2c0.6,0.5,1.3,0.7,2,0.8
			c0.9,0,1.7-0.4,2.2-1.2c0.7-1.2,1.2-2.5,1.4-3.8L26,8.9c0.4-2.3,1.3-4.5,2.6-6.5c1.1-1.3,2.8-2.1,4.5-2c1.5,0,3,0.5,4.2,1.4
			c1.3,1,2.3,2.3,2.9,3.8c0.7,1.8,1.1,3.6,1,5.5C41.4,13.1,41,15,40.3,16.9z"/>
	</g>
</g>
</svg>
