<?xml version="1.0" encoding="iso-8859-1"?>
<!-- Generator: Adobe Illustrator 26.5.0, SVG Export Plug-In . SVG Version: 6.00 Build 0)  -->
<svg version="1.1" id="Layer_1" xmlns="http://www.w3.org/2000/svg" xmlns:xlink="http://www.w3.org/1999/xlink" x="0px" y="0px"
	 width="1000px" height="1000px" viewBox="0 0 1000 1000" enable-background="new 0 0 1000 1000" xml:space="preserve">
<g>
	<g>
		<g>
			<defs>
				<rect id="SVGID_1_" x="-156.416" y="-44.013" width="1277.92" height="1150.684"/>
			</defs>
			<clipPath id="SVGID_00000052066720545784957230000015183583410763157657_">
				<use xlink:href="#SVGID_1_"  overflow="visible"/>
			</clipPath>
			<g clip-path="url(#SVGID_00000052066720545784957230000015183583410763157657_)">
				<g>
					<g>
						<g>
							<defs>
								
									<rect id="SVGID_00000126305811479675234640000015532784892751132309_" x="-156.416" y="-44.013" width="1277.917" height="1150.684"/>
							</defs>
							<clipPath id="SVGID_00000037671153143498376370000012478517983081888167_">
								<use xlink:href="#SVGID_00000126305811479675234640000015532784892751132309_"  overflow="visible"/>
							</clipPath>
							<path clip-path="url(#SVGID_00000037671153143498376370000012478517983081888167_)" fill="#EDFF00" d="M494.885,892.496
								C263.323,861.143,58.52,721.358,131.089,454.036c61.645-227.079,438.072-368.914,670.126-150.319
								C972.488,465.058,868.431,943.073,494.885,892.496"/>
						</g>
					</g>
				</g>
			</g>
		</g>
	</g>
</g>
<g>
	<g>
		<g>
			<defs>
				
					<rect id="SVGID_00000096023980600173665860000013355250841744872321_" x="-76.203" y="43.227" width="1081.54" height="913.546"/>
			</defs>
			<clipPath id="SVGID_00000119833005397465367910000003262284059673571000_">
				<use xlink:href="#SVGID_00000096023980600173665860000013355250841744872321_"  overflow="visible"/>
			</clipPath>
			<g clip-path="url(#SVGID_00000119833005397465367910000003262284059673571000_)">
				<g>
					<g>
						<g>
							<defs>
								
									<rect id="SVGID_00000138569935152520998930000012648071509331544507_" x="117.999" y="115.857" transform="matrix(0.9808 -0.1951 0.1951 0.9808 -87.4022 112.6511)" width="820.326" height="768.317"/>
							</defs>
							<clipPath id="SVGID_00000160162986635143526040000015728313488687245984_">
								<use xlink:href="#SVGID_00000138569935152520998930000012648071509331544507_"  overflow="visible"/>
							</clipPath>
							<g opacity="0.45" clip-path="url(#SVGID_00000160162986635143526040000015728313488687245984_)">
								<g>
									<g>
										<g>
											<g>
												<defs>
													
														<rect id="SVGID_00000048469438666254048830000007335029952098857899_" x="-58.466" y="-262.037" width="1329.403" height="1940.328"/>
												</defs>
												<clipPath id="SVGID_00000065777893075350446500000014551336436594520197_">
													<use xlink:href="#SVGID_00000048469438666254048830000007335029952098857899_"  overflow="visible"/>
												</clipPath>
												
													<path clip-path="url(#SVGID_00000065777893075350446500000014551336436594520197_)" fill="none" stroke="#B49CCA" stroke-width="0.926" stroke-miterlimit="10" d="
													M982.762,1487.13l-40.834-205.288l219.024-43.567l40.834,205.288L982.762,1487.13z M941.883,1281.615l-40.836-205.297
													l219.024-43.567l40.836,205.297L941.883,1281.615z M901.047,1076.318L860.212,871.03l219.024-43.567l40.835,205.288
													L901.047,1076.318z M860.212,871.03l-40.836-205.297l219.024-43.566l40.836,205.296L860.212,871.03z M819.376,665.733
													l-40.835-205.292l219.024-43.567l40.835,205.293L819.376,665.733z M778.541,460.441l-40.835-205.293l219.024-43.566
													l40.835,205.292L778.541,460.441z M737.706,255.148L696.871,49.856L915.895,6.29l40.835,205.292L737.706,255.148z
													 M322.923,1618.144l-40.835-205.288l219.023-43.566l40.835,205.288L322.923,1618.144z M542.853,1574.397
													l-40.834-205.288l219.024-43.567l40.834,205.288L542.853,1574.397z M762.785,1530.65l-40.834-205.288l219.024-43.567
													l40.834,205.288L762.785,1530.65z M282.088,1412.856l-40.836-205.297l219.023-43.566l40.836,205.297L282.088,1412.856z
													 M502.019,1369.109l-40.836-205.297l219.024-43.566l40.836,205.296L502.019,1369.109z M721.951,1325.362
													l-40.836-205.297l219.024-43.566l40.836,205.296L721.951,1325.362z M241.252,1207.559l-40.834-205.288l219.023-43.566
													l40.834,205.288L241.252,1207.559z M461.183,1163.812l-40.834-205.288l219.024-43.566l40.834,205.288L461.183,1163.812z
													 M681.115,1120.065L640.28,914.777l219.024-43.566l40.835,205.288L681.115,1120.065z M200.418,1002.271l-40.836-205.297
													l219.023-43.566l40.836,205.297L200.418,1002.271z M420.349,958.524l-40.836-205.297l219.024-43.566l40.836,205.297
													L420.349,958.524z M640.28,914.777L599.444,709.48l219.024-43.566l40.836,205.297L640.28,914.777z M159.582,796.974
													l-40.835-205.292l219.023-43.566l40.835,205.292L159.582,796.974z M379.513,753.227l-40.836-205.292l219.024-43.566
													l40.836,205.292L379.513,753.227z M599.444,709.48l-40.835-205.292l219.024-43.567l40.835,205.293L599.444,709.48z
													 M118.747,591.682L77.911,386.39l219.023-43.567l40.836,205.293L118.747,591.682z M338.677,547.935l-40.835-205.292
													l219.024-43.567l40.835,205.293L338.677,547.935z M558.609,504.188l-40.835-205.292l219.024-43.567l40.835,205.292
													L558.609,504.188z M77.911,386.39L37.076,181.097l219.023-43.566l40.835,205.292L77.911,386.39z M297.842,342.643
													L257.007,137.35l219.024-43.566l40.835,205.292L297.842,342.643z M517.774,298.896L476.939,93.603l219.024-43.566
													l40.835,205.292L517.774,298.896z M37.076,181.097L-3.759-24.195l219.023-43.566l40.835,205.292L37.076,181.097z
													 M257.007,137.35L216.172-67.942l219.024-43.567l40.835,205.293L257.007,137.35z M476.939,93.603l-40.835-205.292
													l219.024-43.567l40.835,205.293L476.939,93.603z M696.871,49.856l-40.836-205.292l219.024-43.567L915.895,6.29
													L696.871,49.856z M281.634,1412.946l40.925,205.742 M240.798,1207.65l40.836,205.296 M199.964,1002.361l40.834,205.289
													 M159.128,797.065l40.836,205.296 M118.293,591.772l40.835,205.293 M77.457,386.48l40.836,205.292 M36.622,181.188
													L77.457,386.48 M-4.303-24.559l40.925,205.747 M322.923,1618.144l219.023-43.566 M282.088,1412.856l219.023-43.566
													 M501.565,1369.199l40.925,205.742 M241.252,1207.559l219.023-43.566 M460.729,1163.902l40.836,205.297
													 M200.418,1002.271l219.023-43.566 M419.895,958.615l40.834,205.287 M159.582,796.974l219.023-43.566 M379.059,753.318
													l40.836,205.297 M118.747,591.682l219.023-43.566 M338.223,548.025l40.836,205.293 M77.911,386.39l219.023-43.567
													 M297.388,342.733l40.835,205.292 M37.076,181.097l219.023-43.566 M256.553,137.441l40.835,205.292 M-3.759-24.195
													l219.023-43.566 M215.628-68.306l40.925,205.747 M542.853,1574.397l219.024-43.567 M502.019,1369.109l219.024-43.567
													 M721.497,1325.452l40.924,205.742 M461.183,1163.812l219.024-43.566 M680.661,1120.155l40.836,205.297
													 M420.349,958.524l219.024-43.566 M639.827,914.867l40.834,205.288 M379.513,753.227l219.024-43.566 M598.99,709.571
													l40.837,205.296 M338.677,547.935l219.024-43.566 M558.155,504.278l40.835,205.293 M297.842,342.643l219.024-43.567
													 M517.32,298.986l40.835,205.292 M257.007,137.35l219.024-43.566 M476.485,93.694l40.835,205.292 M216.172-67.942
													l219.024-43.567 M435.559-112.053l40.926,205.747 M762.785,1530.65l219.024-43.567 M721.951,1325.362l219.024-43.567
													 M941.429,1281.705l40.924,205.742 M681.115,1120.065l219.024-43.566 M900.593,1076.408l40.836,205.297 M640.28,914.777
													l219.024-43.566 M859.758,871.12l40.835,205.288 M599.444,709.48l219.024-43.566 M818.922,665.823l40.836,205.297
													 M558.609,504.188l219.024-43.567 M778.087,460.531l40.835,205.292 M517.774,298.896l219.024-43.567 M737.252,255.239
													l40.835,205.292 M476.939,93.603l219.024-43.566 M696.417,49.946l40.835,205.293 M436.104-111.689l219.024-43.567
													 M655.491-155.8l40.926,205.746 M982.717,1486.902l219.024-43.566 M941.883,1281.615l219.024-43.567 M1161.36,1237.958
													l40.925,205.742 M901.047,1076.318l219.024-43.567 M1120.524,1032.661l40.836,205.297 M860.212,871.03l219.024-43.567
													 M1079.69,827.373l40.834,205.288 M819.376,665.733l219.024-43.566 M1038.854,622.076l40.836,205.297 M778.541,460.441
													l219.024-43.567 M998.019,416.784l40.835,205.292 M737.706,255.148l219.024-43.566 M957.184,211.492l40.835,205.292
													 M696.871,49.856L915.895,6.29 M916.348,6.199l40.836,205.293 M656.035-155.436l219.024-43.567 M875.423-199.547
													L916.348,6.199"/>
											</g>
										</g>
									</g>
								</g>
							</g>
						</g>
					</g>
				</g>
			</g>
		</g>
	</g>
</g>
<rect x="-76.203" y="43.227" fill="none" width="1081.54" height="913.546"/>
<g>
	<path fill="#101232" d="M318.799,341.595V202.671h13.893v60.332h81.567v-60.332h13.892v138.924h-13.892v-65.691h-81.567v65.691
		L318.799,341.595L318.799,341.595z"/>
	<path fill="#101232" d="M458.522,291.582c0-31.754,19.25-50.609,42.868-50.609c27.388,0,44.654,22.624,41.677,53.783h-71.248
		c0.594,28.777,15.281,38.105,30.563,38.105c16.87,0,25.603-12.107,28.777-20.839l12.105,4.565
		c-5.556,15.481-20.044,27.586-41.279,27.586C475.789,344.174,458.522,326.313,458.522,291.582z M529.968,284.042
		c-0.198-21.633-13.893-32.151-28.58-32.151c-16.472,0-28.181,13.297-29.372,32.151H529.968z"/>
	<path fill="#101232" d="M633.567,243.753h14.09l-40.09,112.527c-5.953,17.266-12.305,24.014-29.966,24.014h-16.275v-11.908h16.075
		c8.534,0,13.694-2.183,17.664-13.296l5.756-16.075l-42.868-95.262h14.487l24.61,55.569c3.374,7.939,5.359,16.87,5.756,26.395h6.748
		c0.397-9.725,1.788-16.87,4.565-25.204L633.567,243.753z"/>
	<path fill="#101232" d="M658.774,366.601l13.694-25.006h-9.922v-21.832h18.655v21.832l-13.296,25.006H658.774z"/>
</g>
<g>
	<g>
		<g>
			<defs>
				
					<rect id="SVGID_00000099656256258831368000000017712613687939682445_" x="-76.203" y="50.757" width="1081.54" height="913.546"/>
			</defs>
			<clipPath id="SVGID_00000161620522487863762220000007102260928654948025_">
				<use xlink:href="#SVGID_00000099656256258831368000000017712613687939682445_"  overflow="visible"/>
			</clipPath>
			<g clip-path="url(#SVGID_00000161620522487863762220000007102260928654948025_)">
				<path fill="#101232" d="M137,565.015v-90.864h11.427c0,7.188-2.396,13.455-5.161,18.247h7.004
					c2.396-7.741,8.847-20.826,26.726-20.826c14.007,0,24.328,9.031,27.093,22.301h6.082c2.212-9.769,10.69-22.301,28.014-22.301
					c19.72,0,32.069,13.271,32.069,33.913v59.532h-12.163v-56.399c0-18.43-9.584-25.986-23.038-25.986
					c-24.698,0-25.618,25.064-25.618,36.862v45.524h-11.98v-56.029c0-18.8-9.583-26.356-22.669-26.356
					c-25.065,0-25.618,25.064-25.618,38.705v43.681H137V565.015L137,565.015z"/>
				<path fill="#101232" d="M294.586,519.675c0-29.858,19.72-48.105,42.575-48.105c22.854,0,42.391,18.247,42.391,48.105
					c0,29.858-19.905,47.736-42.391,47.736C314.675,567.411,294.586,549.35,294.586,519.675z M366.834,519.861
					c0-24.882-13.455-37.416-29.673-37.416c-16.22,0-29.673,12.532-29.673,37.416c0,24.697,13.455,36.86,29.673,36.86
					C353.38,556.721,366.834,544.556,366.834,519.861z"/>
				<path fill="#101232" d="M404.989,454.799V436h12.902v18.799L404.989,454.799L404.989,454.799z M405.359,565.015v-90.864h12.348
					v90.864H405.359z"/>
				<path fill="#101232" d="M493.458,519.491c0-27.647,17.14-47.92,41.837-47.92c20.458,0,33.175,12.532,37.046,25.987
					l-11.612,3.869c-3.133-10.137-11.242-18.983-25.618-18.983c-15.482,0-28.752,12.349-28.752,37.046
					c0,24.882,12.902,37.23,29.12,37.23s23.96-11.427,26.724-21.932L574,538.657c-5.16,16.404-18.43,28.752-38.52,28.752
					C510.415,567.411,493.458,548.796,493.458,519.491z"/>
				<path fill="#101232" d="M592.248,480.786L589.3,449.27V436h12.718v13.269l-2.949,31.516L592.248,480.786L592.248,480.786z"/>
				<path fill="#101232" d="M618.975,518.569c0-29.49,17.877-46.999,39.811-46.999c25.434,0,41.469,21.012,38.705,49.948h-66.166
					c0.552,26.724,14.191,35.387,28.383,35.387c15.667,0,23.776-11.242,26.724-19.352l11.242,4.238
					c-5.16,14.377-18.615,25.62-38.335,25.62C635.009,567.411,618.975,550.823,618.975,518.569z M685.325,511.565
					c-0.184-20.09-12.902-29.858-26.541-29.858c-15.298,0-26.171,12.348-27.279,29.858H685.325z"/>
				<path fill="#101232" d="M715.368,541.423l11.611-3.686c2.027,9.953,9.953,19.352,26.173,19.352
					c15.297,0,23.038-6.267,23.038-15.297c0-8.11-5.714-13.822-18.247-16.587l-12.164-2.582
					c-13.271-2.948-26.724-8.478-26.724-25.065c0-15.114,14.007-25.987,32.622-25.987c20.826,0,31.332,11.059,34.465,22.301
					l-10.874,4.238c-1.843-6.634-8.294-16.403-23.591-16.403c-14.007,0-20.643,7.188-20.643,14.561
					c0,7.003,3.871,11.796,16.22,14.375l12.164,2.58c13.085,3.133,29.12,9.953,29.12,27.647c0,15.298-11.612,26.541-35.387,26.541
					C732.325,567.411,718.317,556.721,715.368,541.423z"/>
				<path fill="#101232" d="M845.86,565.015c-16.771,0-24.328-8.11-24.328-23.038v-57.503h-22.301v-10.322h22.301V446.69h12.163
					v27.462h25.987v10.322h-25.987v56.398c0,9.031,4.239,13.455,13.454,13.455H863v10.689L845.86,565.015L845.86,565.015z"/>
			</g>
		</g>
	</g>
</g>
<rect x="-76.203" y="43.227" fill="none" width="1081.54" height="913.546"/>
<g>
	<path fill="#101232" stroke="#101232" stroke-width="2.3472" stroke-miterlimit="10" d="M197.676,732.235
		c12.387-53.347,58.341-66.133,67.332-66.133c21.578,0,31.368,10.19,33.366,20.38l-13.587,23.176l-1.199-0.599
		c10.19-22.577-4.995-34.165-23.975-34.165c-12.388,0-39.96,5.195-50.749,51.148c-8.991,38.961,3.996,70.129,34.965,70.129
		c11.988,0,20.379-4.995,28.371-9.391l0.999,1.998c-13.986,7.992-32.967,16.183-37.562,16.183
		C204.868,804.962,188.285,771.995,197.676,732.235z"/>
	<path fill="#101232" stroke="#101232" stroke-width="2.3472" stroke-miterlimit="10" d="M376.096,776.19l0.4,0.599
		c-8.791,7.193-27.372,27.572-34.965,27.572c-2.997,0-6.793-0.799-4.995-20.978l18.582-65.735h-2.398
		c-16.183,48.552-26.373,87.512-47.351,87.512c-11.189,0-15.184-8.991-15.184-21.779c0-31.368,23.376-85.513,50.948-85.513
		c6.594,0,13.387,1.597,18.782,4.396l11.589-9.191l0.799,0.2l-7.992,24.974l-21.578,78.321L376.096,776.19z M352.121,710.058
		c-4.995-4.596-11.189-7.192-16.984-7.192c-18.782,0-32.767,48.35-32.767,75.323c0,10.59,2.797,17.783,9.191,17.783
		C318.555,795.97,324.149,794.772,352.121,710.058z"/>
	<path fill="#101232" stroke="#101232" stroke-width="2.3472" stroke-miterlimit="10" d="M465.008,704.663
		c-4.995,3.196-13.386,11.188-16.183,11.188c-3.197,0-8.791-7.992-12.987-7.992c-8.991,0-30.569,50.749-44.154,95.104h-10.989
		l22.778-96.502l-30.369,18.581l-0.4-0.598c8.791-7.193,27.372-27.572,34.965-27.572c2.997,0,6.793,0.799,4.995,20.978
		l-19.18,66.133h2.398c8.192-28.971,30.169-86.913,42.757-86.913c4.396,0,10.989,10.39,17.382,10.39
		c2.997,0,5.595-1.599,8.592-3.595L465.008,704.663z"/>
	<path fill="#101232" stroke="#101232" stroke-width="2.3472" stroke-miterlimit="10" d="M448.429,753.813
		c9.191-40.759,35.564-57.941,45.155-57.941c17.582,0,30.969,14.185,22.976,50.948c-8.791,40.759-35.364,58.141-44.955,58.141
		C454.023,804.962,440.636,790.776,448.429,753.813z M507.169,753.613c5.595-26.973-1.998-49.15-19.18-49.15
		c-7.992,0-21.977,6.993-29.77,42.957c-5.595,26.972,1.998,48.95,17.583,48.95C485.191,796.369,499.378,789.577,507.169,753.613z"/>
	<path fill="#101232" stroke="#101232" stroke-width="2.3472" stroke-miterlimit="10" d="M570.108,652.117l0.2-0.2l-37.962,145.254
		l33.366-20.38l0.401,0.599c-8.793,7.192-27.373,27.572-34.965,27.572c-2.997,0-6.793-0.799-4.995-20.978l30.969-124.074
		l-25.775,1.198l0.4-1.198l37.362-8.592h1.199L570.108,652.117z"/>
	<path fill="#101232" stroke="#101232" stroke-width="2.3472" stroke-miterlimit="10" d="M634.644,698.669h12.788
		c-9.191,62.137-49.95,125.674-134.264,155.842l2.797-11.389l0.799-0.598c27.773-6.993,50.749-18.782,68.932-34.367l3.996-101.298
		l-29.971,18.181l-0.4-0.598c8.791-7.193,27.372-27.572,34.966-27.572c2.997,0,4.594,0.799,6.394,20.978l-5.595,81.318
		c25.174-26.173,38.561-60.938,38.961-99.701L634.644,698.669z"/>
	<path fill="#101232" stroke="#101232" stroke-width="2.3472" stroke-miterlimit="10" d="M738.94,776.789l0.4,0.599
		c-8.791,7.192-27.372,27.572-34.965,27.572c-2.997,0-6.793-0.799-4.995-20.978l17.983-49.75
		c8.392-23.377,0.799-28.971-3.597-28.971c-13.585,0-37.362,53.346-52.348,97.701H650.43l24.775-96.702l-30.568,18.78l-0.401-0.598
		c8.791-7.193,27.373-27.572,34.965-27.572c2.997,0,6.793,0.799,4.995,20.978l-20.78,66.133h2.398
		c11.389-32.768,34.965-87.712,55.944-87.712c9.19,0,16.583,10.588,6.793,37.562l-22.976,63.336L738.94,776.789z"/>
	<path fill="#101232" stroke="#101232" stroke-width="2.3472" stroke-miterlimit="10" d="M758.721,753.613
		c-2.597,22.778,3.996,43.157,25.174,43.157c8.392,0,11.587-3.197,17.783-6.795l0.999,1.199
		c-13.186,8.791-21.379,13.787-26.973,13.787c-21.779,0-34.965-21.178-24.776-57.941c11.389-40.959,39.159-50.149,45.154-50.149
		c17.983,0,20.978,11.389,20.978,16.784C817.061,739.028,786.294,748.818,758.721,753.613z M761.319,740.426
		c-0.801,3.397-1.598,6.793-1.998,9.99c15.385-1.998,45.154-8.991,45.154-31.769c0-4.994-1.598-13.386-14.185-13.386
		C783.497,705.263,769.71,708.06,761.319,740.426z"/>
</g>
</svg>
