<?xml version="1.0" encoding="utf-8"?>
<!-- Generator: Adobe Illustrator 25.4.1, SVG Export Plug-In . SVG Version: 6.00 Build 0)  -->
<svg version="1.1" id="Layer_1" xmlns="http://www.w3.org/2000/svg" xmlns:xlink="http://www.w3.org/1999/xlink" x="0px" y="0px"
	 width="51.2px" height="187.2px" viewBox="0 0 51.2 187.2" style="enable-background:new 0 0 51.2 187.2;" xml:space="preserve">
<style type="text/css">
	.st0{fill:#FFFFFF;}
	.st1{fill:none;stroke:#D1D3D4;stroke-width:0.75;}
</style>
<g id="Layer_2_00000025435631078085788930000000412831207454676886_">
	<g id="Layer_1-2">
		<path class="st0" d="M40,180.8c-1.1,2-2.8,3.6-4.8,4.7c-2.2,1.1-4.6,1.7-7,1.7c-2.5,0-4.9-0.5-7.1-1.6c-2-1-3.7-2.6-4.8-4.5
			c-2-3.6-2.3-7.9-0.6-11.8c0.7-1.6,1.7-3,3-4.1c1.3-1.1,2.9-1.9,4.6-2.2l0.8,3.6c-1.7,0.5-3.3,1.5-4.4,2.9c-1.1,1.4-1.7,3.2-1.7,5
			c0,1.6,0.4,3.2,1.3,4.5c0.9,1.4,2.2,2.4,3.6,3.1c1.6,0.8,3.4,1.2,5.3,1.1c1.8,0,3.6-0.4,5.3-1.2c1.5-0.8,2.7-1.9,3.6-3.4
			c0.9-1.5,1.3-3.2,1.3-4.9c0-1.5-0.3-2.9-0.9-4.2c-0.6-1.3-1.5-2.4-2.6-3.2c-1.1-0.9-2.4-1.4-3.8-1.6l0.8-3.7
			c1.9,0.3,3.6,1.1,5.1,2.3c1.5,1.2,2.7,2.8,3.6,4.6C42.3,172,42.2,176.8,40,180.8L40,180.8z"/>
		<path class="st0" d="M40.1,152.1c-1.1,2-2.8,3.6-4.8,4.7c-2.2,1.2-4.6,1.7-7.1,1.7c-2.5,0.1-5-0.5-7.2-1.7c-2-1.1-3.7-2.7-4.8-4.7
			c-2.3-4.4-2.3-9.7,0-14.1c1.1-2,2.8-3.7,4.8-4.8c2.2-1.2,4.7-1.7,7.2-1.7c2.5-0.1,4.9,0.5,7.1,1.7c2,1.1,3.7,2.7,4.8,4.8
			C42.4,142.4,42.4,147.7,40.1,152.1L40.1,152.1z M37.1,140c-0.8-1.5-2.1-2.6-3.6-3.4c-1.6-0.8-3.5-1.2-5.3-1.2
			c-1.9,0-3.7,0.4-5.4,1.2c-1.5,0.7-2.8,1.9-3.6,3.4c-0.9,1.5-1.3,3.3-1.2,5.1c0,1.8,0.4,3.5,1.2,5.1c0.8,1.5,2,2.6,3.5,3.4
			c1.7,0.8,3.5,1.2,5.4,1.2c1.8,0,3.7-0.4,5.3-1.2c1.5-0.8,2.7-1.9,3.6-3.4c0.9-1.6,1.3-3.3,1.3-5.1C38.3,143.3,37.9,141.5,37.1,140
			L37.1,140z"/>
		<path class="st0" d="M15.7,109.1c0.8-1.4,2-2.5,3.4-3.2c1.7-0.8,3.5-1.1,5.3-1.1h16.3v3.8h-16c-1.9-0.1-3.7,0.5-5.1,1.8
			c-1.3,1.2-2,3-1.9,4.8c0,1.6,0.4,3.1,1.1,4.5c0.7,1.3,1.8,2.4,3.1,3.1c1.4,0.7,2.9,1.1,4.5,1.1h14.3v3.8H15.5v-3.4l3.7-0.3l0,0
			c-1.5-1-2.7-2.4-3.5-4c-0.8-1.8-1.2-3.7-1.2-5.7C14.4,112.4,14.8,110.6,15.7,109.1z"/>
		<path class="st0" d="M40.7,94.2c-0.6,1.2-1.6,2.2-2.8,2.8c-1.2,0.7-2.6,1-4,1H18.6v5.6h-3.2V98H8l-0.9-3.8h8.4V82.8h3.1v11.3h14.9
			c0.9,0,1.8-0.2,2.6-0.6c0.7-0.4,1.3-0.9,1.7-1.6c0.4-0.7,0.6-1.5,0.6-2.4c0-1.3-0.5-2.6-1.3-3.5c-1-1-2.3-1.7-3.7-1.8l1.2-3.2
			c2.1,0.3,3.9,1.3,5.2,3c1.3,1.7,2,3.7,1.9,5.8C41.8,91.5,41.4,92.9,40.7,94.2z"/>
		<path class="st0" d="M40.8,74.2c-0.6,1.4-1.5,2.6-2.7,3.4c-3,2.1-7.2,1.5-9.4-1.5c-1.4-1.8-2.4-4.7-2.9-8.7l-0.8-6.2
			c0-0.6-0.2-1.1-0.6-1.5c-0.3-0.4-0.8-0.6-1.3-0.5c-1,0-2,0.3-2.8,1c-0.8,0.7-1.4,1.6-1.8,2.6c-0.4,1.2-0.7,2.5-0.6,3.8
			c0,1.4,0.3,2.9,0.9,4.2c0.5,1.2,1.3,2.2,2.3,3C22,74.5,23,74.9,24,75l-1.4,3.4c-1.5-0.2-2.9-0.8-4-1.8c-1.3-1.2-2.3-2.6-3-4.2
			c-0.8-1.8-1.2-3.8-1.2-5.8c0-2,0.4-3.9,1.2-5.7c0.7-1.6,1.8-2.9,3.3-3.9c1.5-0.9,3.2-1.4,4.9-1.4h12.8c0.4,0,0.9-0.1,1.2-0.4
			c0.3-0.2,0.5-0.6,0.5-1c0-0.4-0.2-0.8-0.4-1.1c-0.3-0.4-0.7-0.7-1.1-1l2.5-2.1c0.8,0.6,1.4,1.4,1.8,2.2c0.5,0.9,0.7,1.9,0.7,2.9
			c0,0.7-0.2,1.5-0.5,2.1c-0.3,0.6-0.8,1.1-1.4,1.4c-0.6,0.4-1.3,0.6-2.1,0.6l-1.1,0l0,0c1.1,0.6,2,1.4,2.8,2.3
			c0.8,1,1.4,2.2,1.8,3.4c0.4,1.3,0.6,2.7,0.6,4.1C41.8,70.9,41.4,72.6,40.8,74.2z M37.2,63.8c-0.7-1.3-1.7-2.5-2.9-3.3
			c-1.3-0.8-2.8-1.2-4.3-1.2h-1.8l1,7.8c0.1,2.2,0.8,4.2,1.9,6.1c0.7,1.1,1.8,1.8,3.1,1.9c1.3,0,2.5-0.7,3.1-1.8
			c0.8-1.4,1.2-3.1,1.2-4.8C38.4,66.9,38,65.3,37.2,63.8z"/>
		<path class="st0" d="M40,44.6c-1.1,2-2.8,3.6-4.8,4.7c-2.2,1.1-4.6,1.7-7,1.7c-2.5,0-4.9-0.5-7.1-1.6c-2-1-3.7-2.6-4.8-4.5
			c-2-3.6-2.3-7.9-0.6-11.8c0.7-1.6,1.7-3,3-4.1c1.3-1.1,2.9-1.9,4.6-2.2l0.8,3.6c-1.7,0.5-3.3,1.5-4.4,2.9c-1.1,1.4-1.7,3.2-1.7,5
			c0,1.6,0.4,3.2,1.3,4.5c0.9,1.4,2.2,2.4,3.6,3.2c1.6,0.8,3.4,1.2,5.3,1.2c1.8,0,3.6-0.4,5.3-1.2c1.5-0.8,2.7-1.9,3.6-3.4
			c0.9-1.5,1.3-3.2,1.3-4.9c0-1.5-0.3-2.9-0.9-4.2c-0.6-1.3-1.5-2.4-2.6-3.2c-1.1-0.9-2.4-1.4-3.8-1.6l0.8-3.7
			c1.9,0.3,3.6,1.1,5.1,2.3c1.5,1.2,2.7,2.8,3.6,4.6c0.9,1.9,1.3,3.9,1.3,6C41.8,40.1,41.2,42.5,40,44.6z"/>
		<path class="st0" d="M40.7,15.5c-0.6,1.2-1.6,2.2-2.8,2.8c-1.2,0.7-2.6,1-4,1H18.6v5.5h-3.2v-5.6H8l-0.9-3.8h8.4V4.2h3.1v11.3
			h14.9c0.9,0,1.8-0.1,2.6-0.5c0.7-0.3,1.3-0.9,1.8-1.6c0.4-0.7,0.6-1.6,0.6-2.4c0-1.3-0.5-2.6-1.3-3.5c-1-1-2.3-1.7-3.7-1.8
			l1.2-3.1c2.1,0.3,3.9,1.3,5.2,3c1.3,1.6,2,3.7,2,5.8C41.8,12.8,41.4,14.2,40.7,15.5z"/>
		<path class="st1" d="M42,178.7c-1.1,2-2.8,3.6-4.8,4.7c-2.2,1.1-4.6,1.7-7,1.7c-2.5,0-4.9-0.5-7.1-1.6c-2-1-3.7-2.6-4.9-4.5
			c-2-3.6-2.3-7.9-0.6-11.8c0.7-1.6,1.7-3,3-4.1c1.3-1.1,2.9-1.8,4.6-2.1l0.8,3.6c-1.7,0.5-3.3,1.5-4.4,2.9c-1.1,1.4-1.7,3.2-1.7,5
			c0,1.6,0.4,3.2,1.3,4.5c0.9,1.4,2.2,2.4,3.6,3.1c1.6,0.8,3.4,1.2,5.3,1.1c1.8,0,3.6-0.4,5.3-1.2c1.5-0.8,2.7-1.9,3.6-3.4
			c0.9-1.5,1.3-3.2,1.3-4.9c0-1.5-0.3-2.9-0.9-4.2c-0.6-1.3-1.5-2.4-2.6-3.2c-1.1-0.9-2.4-1.4-3.8-1.6l0.8-3.7
			c1.9,0.3,3.7,1.1,5.1,2.3c1.5,1.2,2.7,2.8,3.6,4.6C44.3,170,44.2,174.7,42,178.7L42,178.7z"/>
		<path class="st1" d="M42.1,150.1c-1.1,2-2.8,3.6-4.8,4.7c-2.2,1.2-4.6,1.7-7.1,1.7c-2.5,0.1-5-0.5-7.2-1.7c-2-1.1-3.7-2.7-4.8-4.7
			c-2.3-4.4-2.3-9.7,0-14.1c1.1-2,2.8-3.7,4.8-4.8c2.2-1.2,4.7-1.7,7.2-1.7c2.5-0.1,4.9,0.5,7.1,1.7c2,1.1,3.7,2.7,4.8,4.8
			C44.4,140.4,44.4,145.6,42.1,150.1z M39.1,137.9c-0.8-1.5-2.1-2.6-3.6-3.4c-1.6-0.8-3.5-1.2-5.3-1.2c-1.9,0-3.7,0.4-5.4,1.2
			c-1.5,0.7-2.7,1.9-3.5,3.4c-0.9,1.5-1.3,3.3-1.3,5.1c0,1.8,0.4,3.5,1.2,5.1c0.8,1.5,2,2.6,3.5,3.4c1.7,0.8,3.5,1.2,5.4,1.2
			c1.8,0,3.7-0.4,5.3-1.2c1.5-0.8,2.7-1.9,3.6-3.4c0.9-1.6,1.3-3.3,1.3-5.1C40.3,141.2,39.9,139.5,39.1,137.9L39.1,137.9z"/>
		<path class="st1" d="M17.7,107c0.8-1.4,2-2.5,3.4-3.2c1.7-0.8,3.5-1.2,5.3-1.1h16.3v3.8h-16c-1.9-0.1-3.7,0.5-5.1,1.8
			c-1.3,1.2-2,3-1.9,4.8c0,1.6,0.4,3.1,1.1,4.5c0.7,1.3,1.8,2.4,3.1,3.1c1.4,0.7,2.9,1.1,4.5,1.1h14.3v3.8H17.5v-3.4l3.8-0.3l0,0
			c-1.5-1-2.7-2.4-3.5-4c-0.9-1.8-1.3-3.8-1.2-5.8C16.4,110.3,16.9,108.5,17.7,107z"/>
		<path class="st1" d="M42.7,92.1c-0.6,1.2-1.6,2.2-2.8,2.8c-1.2,0.7-2.6,1-4,1H20.6v5.6h-3.2v-5.6H10l-0.9-3.8h8.4V80.8h3.1v11.3
			h14.9c0.9,0,1.8-0.2,2.6-0.6c0.7-0.3,1.3-0.9,1.8-1.6c0.4-0.7,0.6-1.5,0.6-2.4c0-1.3-0.5-2.6-1.4-3.6c-1-1-2.3-1.7-3.7-1.8
			l1.2-3.2c2.1,0.3,3.9,1.3,5.2,3c1.3,1.6,2,3.7,2,5.8C43.8,89.3,43.5,90.8,42.7,92.1z"/>
		<path class="st1" d="M42.8,72.2c-0.6,1.4-1.5,2.6-2.7,3.5c-3,2.1-7.2,1.5-9.4-1.5c-1.4-1.8-2.4-4.7-2.9-8.7l-0.8-6.2
			c0-0.6-0.2-1.1-0.6-1.5c-0.3-0.4-0.8-0.6-1.3-0.5c-1,0-2,0.3-2.8,1c-0.8,0.7-1.4,1.6-1.8,2.6C20.2,62,20,63.3,20,64.6
			c0,1.4,0.3,2.9,0.9,4.2c0.5,1.2,1.3,2.2,2.3,3c0.8,0.7,1.8,1.1,2.9,1.2l-1.5,3.4c-1.5-0.2-2.9-0.8-3.9-1.8c-1.3-1.2-2.3-2.6-3-4.2
			c-0.8-1.8-1.2-3.8-1.1-5.8c0-2,0.4-3.9,1.2-5.7c0.7-1.6,1.8-2.9,3.3-3.9c1.5-0.9,3.2-1.4,4.9-1.4h12.7c0.5,0,0.9-0.2,1.2-0.5
			c0.3-0.2,0.5-0.6,0.5-1c0-0.4-0.2-0.8-0.4-1.1c-0.3-0.4-0.7-0.7-1.1-1l2.5-2.1c0.8,0.6,1.4,1.4,1.8,2.2c0.5,0.9,0.7,1.9,0.7,2.9
			c0,0.7-0.2,1.5-0.5,2.1c-0.3,0.6-0.8,1.1-1.4,1.4c-0.6,0.4-1.3,0.6-2.1,0.6l-1.2,0l0,0c1.1,0.6,2,1.4,2.8,2.3
			c0.8,1,1.4,2.2,1.8,3.5c0.4,1.3,0.6,2.7,0.6,4.1C43.8,68.8,43.4,70.6,42.8,72.2z M39.2,61.7c-0.7-1.3-1.7-2.5-2.9-3.3
			c-1.3-0.8-2.8-1.2-4.3-1.2h-1.8l1,7.8c0.1,2.2,0.8,4.2,1.9,6.1c0.7,1.1,1.8,1.8,3.2,1.9c1.3,0,2.5-0.7,3.1-1.8
			c0.8-1.4,1.2-3.1,1.2-4.8C40.4,64.8,40,63.2,39.2,61.7z"/>
		<path class="st1" d="M42,42.5c-1.1,2-2.8,3.6-4.8,4.7c-2.2,1.1-4.6,1.7-7,1.7c-2.5,0-4.9-0.5-7.1-1.6c-2-1-3.7-2.6-4.8-4.5
			c-2-3.6-2.3-7.9-0.6-11.8c0.7-1.6,1.7-3,3-4.1c1.3-1.1,2.9-1.9,4.6-2.2l0.8,3.6c-1.7,0.5-3.3,1.5-4.4,2.9c-1.1,1.4-1.7,3.2-1.7,5
			c0,1.6,0.4,3.2,1.3,4.5c0.9,1.4,2.2,2.5,3.6,3.2c1.6,0.8,3.4,1.2,5.3,1.2c1.8,0,3.6-0.4,5.3-1.2c1.5-0.8,2.7-1.9,3.6-3.4
			c0.9-1.5,1.3-3.2,1.3-4.9c0-1.5-0.3-2.9-0.9-4.2c-0.6-1.3-1.5-2.4-2.6-3.2c-1.1-0.9-2.4-1.4-3.8-1.6l0.8-3.7
			c1.9,0.3,3.6,1,5.1,2.2c1.5,1.2,2.7,2.8,3.6,4.6c0.9,1.9,1.3,3.9,1.3,5.9C43.8,38,43.2,40.4,42,42.5z"/>
		<path class="st1" d="M42.7,13.4c-0.6,1.2-1.6,2.2-2.8,2.8c-1.2,0.7-2.6,1-4,1H20.6v5.6h-3.2v-5.6H10l-0.9-3.8h8.4V2.1h3.1v11.3
			h14.9c0.9,0,1.8-0.2,2.6-0.6c0.7-0.3,1.3-0.9,1.8-1.6c0.4-0.7,0.6-1.5,0.6-2.4c0-1.3-0.5-2.6-1.4-3.5c-1-1-2.3-1.7-3.7-1.8
			l1.2-3.1c2.1,0.3,3.9,1.3,5.2,3c1.3,1.6,2,3.7,2,5.8C43.8,10.7,43.4,12.1,42.7,13.4z"/>
	</g>
</g>
</svg>
