<svg xmlns="http://www.w3.org/2000/svg" viewBox="0 0 667.94 399.31"><defs><style>.a,.b{fill:#fff;}.a,.b,.c{stroke:#000;stroke-miterlimit:10;}.a,.c{stroke-width:8px;}.b{stroke-width:5px;}.c{fill:none;}</style></defs><title>contact</title><path class="a" d="M328.5,163.78c2.65-12,5.86-24.47,9.74-37.44a535.6,535.6,0,0,1,27.33-72,53.36,53.36,0,0,1,11,21c4.55,17.82-1.37,36.79-7.62,56.84l-.05.16c-3.94,13.4-11,22.86-11.33,22.67s2.26-5.44,11.38-22.83c6.14-11.73,15.29-29,28.62-53.84a95,95,0,0,1,5,47.31,121.43,121.43,0,0,1-11.92,36.69c-1.19,2.37-2.41,4.64-3.65,6.79a134.21,134.21,0,0,1-9.77,14.73"/><path class="a" d="M423.88,150.81l.09-.27A106.54,106.54,0,0,0,430.24,117a98.56,98.56,0,0,0-2-21.34,172.34,172.34,0,0,0-25.71,30c-6.51,9.69-12.21,20.39-20.94,36.9-1.63,3.08-3.16,6.05-4.57,8.85-2.5,5-4.63,9.39-6.24,13"/><path class="b" d="M445,172.94c-.07-4.66,7.17-9,13.08-9.74,7.64-1,16.72,3.6,16.91,8.67.18,4.77-7.48,9.82-14.2,10.27C453.5,182.63,445,177.94,445,172.94Z"/><path class="b" d="M459.56,164.46a8.2,8.2,0,0,0-1.78,4.15,15.65,15.65,0,0,0-.14,6.3,9.18,9.18,0,0,0,2.11,4.89c1.6,1.59,4.16,2,5.72.38.85-.9,1.09-2.1,1.46-3.91a17.34,17.34,0,0,0-.21-8.22,7.57,7.57,0,0,0-1.91-3.84A3.76,3.76,0,0,0,459.56,164.46Z"/><path class="b" d="M440.46,163.57a13.41,13.41,0,0,0,1.86,3.41,11.45,11.45,0,0,0,3.48,3.07"/><path class="b" d="M446.82,160.46q.56,1.28,1.19,2.61.81,1.71,1.64,3.26"/><path class="b" d="M452.91,158.26a13.9,13.9,0,0,0,.48,2.37,11.23,11.23,0,0,0,1.54,3.24"/><path class="b" d="M459.86,156.65c.07.66.12,1.33.17,2,.11,1.53.16,3,.17,4.41"/><path class="b" d="M466.08,164a12.9,12.9,0,0,0,1.24-2.63,13.1,13.1,0,0,0,.68-3.49"/><path class="b" d="M471.49,166.62a9,9,0,0,0,1.91-3.14,11.69,11.69,0,0,0,.69-3.72"/><path class="a" d="M391.57,178.34c.25-2.34,1.74-14.34,12-22,10.91-8.15,25.28-6.57,35-1,14.91,8.54,16.83,25.28,17,27l23,18-32,6a224.74,224.74,0,0,1-19,19c-17.63,15.64-41.56,36.86-72,43-19,3.83-34.42,1.25-42.61-.2-12.88-2.27-22-6-69.39-27.8-10-4.59-18.77-8.65-26-12-13.68,5.52-45.41,17.42-51,9-4.29-6.46,6.56-25.25,22-32,6-2.61,9.54-2.07,31-2,36.47.11,37.92-1.42,38-2,.39-3-33.24-2.51-56-25a70.07,70.07,0,0,1-16-25c68.17,22.42,83.1,27.68,83,28-.2.62-61.11-8.1-78-46-6.16-13.82-4.83-27.86-3-37,89.26,56.84,106.52,69.15,106,70-1,1.56-68.12-25.1-85-80a92.14,92.14,0,0,1-4-27c59.85,48.06,93.42,76.65,109,92,0,0,9,9.38,26,20,13.34,8.36,21.7,13.44,33,13A39.6,39.6,0,0,0,391.57,178.34Z"/><path class="a" d="M282.55,302.89a34.62,34.62,0,0,0,2.54-5.91,33.66,33.66,0,0,0,1.46-7.09,34.08,34.08,0,0,0-1-12l10.31-15.21"/><path class="b" d="M415.47,175.73c-.07-4.66,7.17-9,13.08-9.74,7.64-1,16.72,3.6,16.91,8.67.18,4.77-7.48,9.82-14.2,10.27C424,185.43,415.54,180.74,415.47,175.73Z"/><path class="b" d="M430.08,167.25a8.2,8.2,0,0,0-1.78,4.15,15.65,15.65,0,0,0-.14,6.3,9.18,9.18,0,0,0,2.11,4.89c1.6,1.59,4.16,2,5.72.38.85-.9,1.09-2.1,1.46-3.91a17.34,17.34,0,0,0-.21-8.22,7.57,7.57,0,0,0-1.91-3.84A3.76,3.76,0,0,0,430.08,167.25Z"/><path class="b" d="M411,166.37a13.41,13.41,0,0,0,1.86,3.41,11.45,11.45,0,0,0,3.48,3.07"/><path class="b" d="M417.33,163.26q.56,1.28,1.19,2.61.81,1.71,1.64,3.26"/><path class="b" d="M423.43,161.05a13.9,13.9,0,0,0,.48,2.37,11.23,11.23,0,0,0,1.54,3.24"/><path class="b" d="M430.38,159.45c.07.66.12,1.33.17,2,.11,1.53.16,3,.17,4.41"/><path class="b" d="M436.6,166.78a12.9,12.9,0,0,0,1.24-2.63,13.1,13.1,0,0,0,.68-3.49"/><path class="b" d="M442,169.42a9,9,0,0,0,1.91-3.14,11.69,11.69,0,0,0,.69-3.72"/><path class="a" d="M292.55,280.22a35,35,0,0,0-26.67,9.67"/><path class="a" d="M295.55,280.22a52.77,52.77,0,0,0-39.33-9.67"/><path class="a" d="M314.24,308.34a31.78,31.78,0,0,0,2.54-5.58,30.84,30.84,0,0,0,1.46-6.7,29.44,29.44,0,0,0-.12-7c-.08-.69-.19-1.34-.32-1.95-.17-.88-.37-1.67-.56-2.35l.07-.1,1.71-2.38,8.73-12.17"/><path class="a" d="M324.24,287.92a27.86,27.86,0,0,0-12.72,2,30.92,30.92,0,0,0-10.95,7.67"/><path class="a" d="M327.24,287.92a36.45,36.45,0,0,0-16.09-9.33,30.27,30.27,0,0,0-13.58-.33"/><path class="c" d="M11.57,80.34a281.18,281.18,0,0,0,71,50,277.44,277.44,0,0,0,37,15"/><path class="c" d="M1.89,164.19a281.18,281.18,0,0,0,81.89,28.89,277.44,277.44,0,0,0,39.68,4.41"/><path class="c" d="M62.68,1.38a281.18,281.18,0,0,0,42,76A277.44,277.44,0,0,0,131.42,107"/><path class="c" d="M656.37,95.55a281.18,281.18,0,0,1-71,50,277.44,277.44,0,0,1-37,15"/><path class="c" d="M666.05,179.39a281.18,281.18,0,0,1-81.89,28.89,277.44,277.44,0,0,1-39.68,4.41"/><path class="c" d="M605.26,16.58a281.18,281.18,0,0,1-42,76,277.44,277.44,0,0,1-26.73,29.66"/><path class="c" d="M228.33,263.62l138.25,60.72-66,70-131-70Z"/><line class="c" x1="228.33" y1="263.62" x2="300.57" y2="394.34"/><line class="c" x1="169.57" y1="324.34" x2="366.57" y2="324.34"/></svg>