<?xml version="1.0" encoding="utf-8"?>
<!-- Generator: Adobe Illustrator 25.3.1, SVG Export Plug-In . SVG Version: 6.00 Build 0)  -->
<svg version="1.1" id="Layer_1" xmlns="http://www.w3.org/2000/svg" xmlns:xlink="http://www.w3.org/1999/xlink" x="0px" y="0px"
	 viewBox="0 0 667.9 399.3" style="enable-background:new 0 0 667.9 399.3;" xml:space="preserve">
<style type="text/css">
	.st0{fill:none;stroke:#DAC5FC;stroke-miterlimit:10;}
	.st1{fill:#DAC5FC;}
	.st2{fill:none;}
	.st3{fill:none;stroke:#000000;stroke-miterlimit:10;}
	.st4{fill:#FFFFFF;stroke:#000000;stroke-miterlimit:10;}
	.st5{fill:none;stroke:#000000;stroke-width:0.5;stroke-miterlimit:10;}
</style>
<path class="st0" d="M338.2,163.4c2.6-12,5.9-24.5,9.7-37.4c7.4-24.6,16.5-48.7,27.3-72c5.2,6.1,9,13.3,11,21
	c4.5,17.8-1.4,36.8-7.6,56.8v0.2c-3.9,13.4-11,22.9-11.3,22.7s2.3-5.4,11.4-22.8c6.1-11.7,15.3-29,28.6-53.8
	c5.7,15.1,7.4,31.4,5,47.3c-2,12.8-6,25.2-11.9,36.7c-1.2,2.4-2.4,4.6-3.6,6.8c-2.9,5.1-6.2,10-9.8,14.7"/>
<path class="st0" d="M433.6,150.4l0.1-0.3c3.9-10.8,6-22.1,6.3-33.5c0.1-7.2-0.6-14.3-2-21.3c-9.7,9-18.3,19-25.7,30
	c-6.5,9.7-12.2,20.4-20.9,36.9c-1.6,3.1-3.2,6.1-4.6,8.9c-2.5,5-4.6,9.4-6.2,13"/>
<path class="st0" d="M454.7,172.6c-0.1-4.7,7.2-9,13.1-9.7c7.6-1,16.7,3.6,16.9,8.7c0.2,4.8-7.5,9.8-14.2,10.3
	C463.2,182.3,454.7,177.6,454.7,172.6z"/>
<path class="st1" d="M469.2,164.1c-1,1.2-1.6,2.6-1.8,4.1c-0.5,2.1-0.5,4.2-0.1,6.3c0.2,1.8,0.9,3.5,2.1,4.9c1.6,1.6,4.2,2,5.7,0.4
	c0.9-0.9,1.1-2.1,1.5-3.9c0.6-2.7,0.5-5.5-0.2-8.2c-0.3-1.4-0.9-2.8-1.9-3.8C473,162.5,470.6,162.6,469.2,164.1z"/>
<path class="st1" d="M456.5,160.1c0.4,0.9,0.8,1.7,1.2,2.6c0.5,1.1,1.1,2.2,1.6,3.3"/>
<path class="st0" d="M401.2,178c0.2-2.3,1.7-14.3,12-22c10.9-8.1,25.3-6.6,35-1c14.9,8.5,16.8,25.3,17,27l23,18l-32,6
	c-5.9,6.7-12.3,13.1-19,19c-17.6,15.6-41.6,36.9-72,43c-19,3.8-34.4,1.2-42.6-0.2c-12.9-2.3-22-6-69.4-27.8c-10-4.6-18.8-8.6-26-12
	c-13.7,5.5-45.4,17.4-51,9c-4.3-6.5,6.6-25.2,22-32c6-2.6,9.5-2.1,31-2c36.5,0.1,37.9-1.4,38-2c0.4-3-33.2-2.5-56-25
	c-7.1-7.1-12.5-15.6-16-25c68.2,22.4,83.1,27.7,83,28c-0.2,0.6-61.1-8.1-78-46c-6.2-13.8-4.8-27.9-3-37c89.3,56.8,106.5,69.2,106,70
	c-1,1.6-68.1-25.1-85-80c-2.7-8.8-4-17.9-4-27c59.9,48.1,93.4,76.7,109,92c0,0,9,9.4,26,20c13.3,8.4,21.7,13.4,33,13
	C389,183.6,395.5,181.6,401.2,178z"/>
<path class="st0" d="M425.1,175.4c-0.1-4.7,7.2-9,13.1-9.7c7.6-1,16.7,3.6,16.9,8.7c0.2,4.8-7.5,9.8-14.2,10.3
	C433.7,185.1,425.2,180.4,425.1,175.4z"/>
<path class="st1" d="M439.8,166.9c-1,1.2-1.6,2.6-1.8,4.1c-0.5,2.1-0.5,4.2-0.1,6.3c0.2,1.8,0.9,3.5,2.1,4.9c1.6,1.6,4.2,2,5.7,0.4
	c0.9-0.9,1.1-2.1,1.5-3.9c0.6-2.7,0.5-5.5-0.2-8.2c-0.3-1.4-0.9-2.8-1.9-3.8C443.5,165.3,441.2,165.4,439.8,166.9z"/>
<g>
	<path class="st0" d="M450.1,163.2c0.5,1.2,1.1,2.4,1.9,3.4c0.9,1.3,2.1,2.3,3.5,3.1"/>
	<path class="st0" d="M462.6,157.9c0.1,0.8,0.3,1.6,0.5,2.4c0.3,1.2,0.9,2.2,1.5,3.2"/>
	<path class="st0" d="M469.5,156.3c0.1,0.7,0.1,1.3,0.2,2c0.1,1.5,0.2,3,0.2,4.4"/>
	<path class="st0" d="M475.8,163.6c0.5-0.8,0.9-1.7,1.2-2.6c0.4-1.1,0.6-2.3,0.7-3.5"/>
	<path class="st0" d="M481.2,166.2c0.8-0.9,1.5-2,1.9-3.1c0.4-1.2,0.7-2.5,0.7-3.7"/>
	<path class="st0" d="M420.7,166c0.5,1.2,1.1,2.4,1.9,3.4c0.9,1.3,2.1,2.3,3.5,3.1"/>
	<path class="st0" d="M427,162.9c0.4,0.9,0.8,1.7,1.2,2.6c0.5,1.1,1.1,2.2,1.6,3.3"/>
	<path class="st0" d="M433.1,160.7c0.1,0.8,0.3,1.6,0.5,2.4c0.3,1.2,0.9,2.2,1.5,3.2"/>
	<path class="st0" d="M440.1,159.1c0.1,0.7,0.1,1.3,0.2,2c0.1,1.5,0.2,3,0.2,4.4"/>
	<path class="st0" d="M446.3,166.4c0.5-0.8,0.9-1.7,1.2-2.6c0.4-1.1,0.6-2.3,0.7-3.5"/>
	<path class="st0" d="M451.7,169.1c0.8-0.9,1.5-2,1.9-3.1c0.4-1.2,0.7-2.5,0.7-3.7"/>
</g>
<g>
	<path class="st0" d="M292.2,302.5c1-1.9,1.9-3.9,2.5-5.9c0.7-2.3,1.2-4.7,1.5-7.1c0.4-4,0-8.1-1-12l10.3-15.2"/>
	<path class="st0" d="M302.2,279.9c-9.9-0.7-19.5,2.8-26.7,9.7"/>
	<path class="st0" d="M305.2,279.9c-11.3-8.3-25.5-11.8-39.3-9.7"/>
	<path class="st0" d="M323.9,308c1-1.8,1.9-3.6,2.5-5.6c0.7-2.2,1.2-4.4,1.5-6.7c0.2-2.3,0.2-4.7-0.1-7c-0.1-0.7-0.2-1.3-0.3-2
		c-0.2-0.9-0.4-1.7-0.6-2.4l0.1-0.1l1.7-2.4l8.7-12.2"/>
	<path class="st0" d="M333.9,287.6c-4.3-0.3-8.7,0.3-12.7,2c-4.2,1.7-7.9,4.3-11,7.7"/>
	<path class="st0" d="M336.9,287.6c-4.5-4.4-10-7.7-16.1-9.3c-4.4-1.1-9.1-1.3-13.6-0.3"/>
</g>
<path class="st0" d="M21.2,80c20.9,20.2,44.9,37.1,71,50c12,5.9,24.3,10.9,37,15"/>
<path class="st0" d="M11.6,163.8c25.6,13.8,53.3,23.6,81.9,28.9c13.1,2.4,26.4,3.9,39.7,4.4"/>
<path class="st0" d="M72.4,1c10,27.4,24.1,53,42,76c8.2,10.5,17.1,20.4,26.7,29.6"/>
<path class="st0" d="M666,95.2c-20.9,20.2-44.9,37.1-71,50c-12,5.9-24.3,10.9-37,15"/>
<path class="st0" d="M675.7,179c-25.6,13.8-53.3,23.6-81.9,28.9c-13.1,2.4-26.4,3.9-39.7,4.4"/>
<path class="st0" d="M614.9,16.2c-10,27.4-24.1,53-42,76c-8.2,10.5-17.1,20.4-26.7,29.7"/>
<path class="st0" d="M238,263.2L376.3,324l-66,70l-131-70L238,263.2z"/>
<line class="st2" x1="238" y1="263.2" x2="310.2" y2="394"/>
<line class="st2" x1="179.2" y1="324" x2="376.2" y2="324"/>
<path class="st3" d="M328.5,163.8c2.6-12,5.9-24.5,9.7-37.4c7.4-24.6,16.5-48.7,27.3-72c5.2,6.1,9,13.3,11,21
	c4.5,17.8-1.4,36.8-7.6,56.8v0.2c-3.9,13.4-11,22.9-11.3,22.7s2.3-5.4,11.4-22.8c6.1-11.7,15.3-29,28.6-53.8
	c5.7,15.1,7.4,31.4,5,47.3c-2,12.8-6,25.2-11.9,36.7c-1.2,2.4-2.4,4.6-3.6,6.8c-2.9,5.1-6.2,10-9.8,14.7"/>
<path class="st3" d="M423.9,150.8l0.1-0.3c3.9-10.8,6-22.1,6.3-33.5c0.1-7.2-0.6-14.3-2-21.3c-9.7,9-18.3,19-25.7,30
	c-6.5,9.7-12.2,20.4-20.9,36.9c-1.6,3.1-3.2,6.1-4.6,8.9c-2.5,5-4.6,9.4-6.2,13"/>
<path class="st3" d="M445,172.9c-0.1-4.7,7.2-9,13.1-9.7c7.6-1,16.7,3.6,16.9,8.7c0.2,4.8-7.5,9.8-14.2,10.3
	C453.5,182.6,445,177.9,445,172.9z"/>
<path class="st3" d="M459.6,164.5c-1,1.2-1.6,2.6-1.8,4.1c-0.5,2.1-0.5,4.2-0.1,6.3c0.2,1.8,0.9,3.5,2.1,4.9c1.6,1.6,4.2,2,5.7,0.4
	c0.9-0.9,1.1-2.1,1.5-3.9c0.6-2.7,0.5-5.5-0.2-8.2c-0.3-1.4-0.9-2.8-1.9-3.8C463.3,162.9,461,163,459.6,164.5z"/>
<path class="st4" d="M440.5,163.6c0.5,1.2,1.1,2.4,1.9,3.4c0.9,1.3,2.1,2.3,3.5,3.1"/>
<path class="st4" d="M446.8,160.5c0.4,0.9,0.8,1.7,1.2,2.6c0.5,1.1,1.1,2.2,1.6,3.3"/>
<path class="st4" d="M452.9,158.3c0.1,0.8,0.3,1.6,0.5,2.4c0.3,1.2,0.9,2.2,1.5,3.2"/>
<path class="st4" d="M459.9,156.6c0.1,0.7,0.1,1.3,0.2,2c0.1,1.5,0.2,3,0.2,4.4"/>
<path class="st4" d="M466.1,164c0.5-0.8,0.9-1.7,1.2-2.6c0.4-1.1,0.6-2.3,0.7-3.5"/>
<path class="st4" d="M471.5,166.6c0.8-0.9,1.5-2,1.9-3.1c0.4-1.2,0.7-2.5,0.7-3.7"/>
<path class="st3" d="M391.6,178.3c0.2-2.3,1.7-14.3,12-22c10.9-8.1,25.3-6.6,35-1c14.9,8.5,16.8,25.3,17,27l23,18l-32,6
	c-5.9,6.7-12.3,13.1-19,19c-17.6,15.6-41.6,36.9-72,43c-19,3.8-34.4,1.2-42.6-0.2c-12.9-2.3-22-6-69.4-27.8c-10-4.6-18.8-8.6-26-12
	c-13.7,5.5-45.4,17.4-51,9c-4.3-6.5,6.6-25.2,22-32c6-2.6,9.5-2.1,31-2c36.5,0.1,37.9-1.4,38-2c0.4-3-33.2-2.5-56-25
	c-7.1-7.1-12.5-15.6-16-25c68.2,22.4,83.1,27.7,83,28c-0.2,0.6-61.1-8.1-78-46c-6.2-13.8-4.8-27.9-3-37c89.3,56.8,106.5,69.2,106,70
	c-1,1.6-68.1-25.1-85-80c-2.7-8.8-4-17.9-4-27c59.9,48.1,93.4,76.7,109,92c0,0,9,9.4,26,20c13.3,8.4,21.7,13.4,33,13
	C379.3,184,385.9,181.9,391.6,178.3z"/>
<path class="st4" d="M282.5,302.9c1-1.9,1.9-3.9,2.5-5.9c0.7-2.3,1.2-4.7,1.5-7.1c0.4-4,0-8.1-1-12l10.3-15.2"/>
<path class="st3" d="M415.5,175.7c-0.1-4.7,7.2-9,13.1-9.7c7.6-1,16.7,3.6,16.9,8.7c0.2,4.8-7.5,9.8-14.2,10.3
	C424,185.4,415.5,180.7,415.5,175.7z"/>
<path class="st3" d="M430.1,167.2c-1,1.2-1.6,2.6-1.8,4.1c-0.5,2.1-0.5,4.2-0.1,6.3c0.2,1.8,0.9,3.5,2.1,4.9c1.6,1.6,4.2,2,5.7,0.4
	c0.9-0.9,1.1-2.1,1.5-3.9c0.6-2.7,0.5-5.5-0.2-8.2c-0.3-1.4-0.9-2.8-1.9-3.8C433.8,165.6,431.5,165.8,430.1,167.2z"/>
<path class="st4" d="M411,166.4c0.5,1.2,1.1,2.4,1.9,3.4c0.9,1.3,2.1,2.3,3.5,3.1"/>
<path class="st4" d="M417.3,163.3c0.4,0.9,0.8,1.7,1.2,2.6c0.5,1.1,1.1,2.2,1.6,3.3"/>
<path class="st4" d="M423.4,161.1c0.1,0.8,0.3,1.6,0.5,2.4c0.3,1.2,0.9,2.2,1.5,3.2"/>
<path class="st4" d="M430.4,159.4c0.1,0.7,0.1,1.3,0.2,2c0.1,1.5,0.2,3,0.2,4.4"/>
<path class="st4" d="M436.6,166.8c0.5-0.8,0.9-1.7,1.2-2.6c0.4-1.1,0.6-2.3,0.7-3.5"/>
<path class="st4" d="M442,169.4c0.8-0.9,1.5-2,1.9-3.1c0.4-1.2,0.7-2.5,0.7-3.7"/>
<path class="st4" d="M292.5,280.2c-9.9-0.7-19.5,2.8-26.7,9.7"/>
<path class="st4" d="M295.5,280.2c-11.3-8.3-25.5-11.8-39.3-9.7"/>
<path class="st4" d="M314.2,308.3c1-1.8,1.9-3.6,2.5-5.6c0.7-2.2,1.2-4.4,1.5-6.7c0.2-2.3,0.2-4.7-0.1-7c-0.1-0.7-0.2-1.3-0.3-2
	c-0.2-0.9-0.4-1.7-0.6-2.4l0.1-0.1l1.7-2.4l8.7-12.2"/>
<path class="st4" d="M324.2,287.9c-4.3-0.3-8.7,0.3-12.7,2c-4.2,1.7-7.9,4.3-11,7.7"/>
<path class="st4" d="M327.2,287.9c-4.5-4.4-10-7.7-16.1-9.3c-4.4-1.1-9.1-1.3-13.6-0.3"/>
<path class="st3" d="M11.6,80.3c20.9,20.2,44.9,37.1,71,50c12,5.9,24.3,10.9,37,15"/>
<path class="st3" d="M1.9,164.2c25.6,13.8,53.3,23.6,81.9,28.9c13.1,2.4,26.4,3.9,39.7,4.4"/>
<path class="st3" d="M62.7,1.4c10,27.4,24.1,53,42,76c8.2,10.5,17.1,20.4,26.7,29.6"/>
<path class="st3" d="M656.4,95.6c-20.9,20.2-44.9,37.1-71,50c-12,5.9-24.3,10.9-37,15"/>
<path class="st3" d="M666,179.4c-25.6,13.8-53.3,23.6-81.9,28.9c-13.1,2.4-26.4,3.9-39.7,4.4"/>
<path class="st3" d="M605.3,16.6c-10,27.4-24.1,53-42,76c-8.2,10.5-17.1,20.4-26.7,29.7"/>
<path class="st3" d="M228.3,263.6l138.3,60.7l-66,70l-131-70L228.3,263.6z"/>
<line class="st3" x1="228.3" y1="263.6" x2="300.6" y2="394.3"/>
<line class="st5" x1="169.6" y1="324.3" x2="366.6" y2="324.3"/>
</svg>
