<svg xmlns="http://www.w3.org/2000/svg" viewBox="0 0 587.02 477.93"><defs><style>.a{fill:#f96e10;}.b{fill:none;stroke-width:8px;}.b,.c{stroke:#000;stroke-miterlimit:10;}.c{stroke-width:4px;}</style></defs><title>logo-site-v2_2</title><path d="M21.6,104.64A30.47,30.47,0,0,1,10.4,97a34.09,34.09,0,0,1-7.68-11.2,36.16,36.16,0,0,1,0-27.52A37.45,37.45,0,0,1,10.4,46.88a33.68,33.68,0,0,1,11.2-7.52,33,33,0,0,1,13.76-2.72,33,33,0,0,1,13.76,2.72,36.08,36.08,0,0,1,11.36,7.52A36.07,36.07,0,0,1,68,58.24l.8,1.6-3.36,1.44-.8-1.76a34.73,34.73,0,0,0-6.72-10.08,32.68,32.68,0,0,0-10.08-6.72,29.54,29.54,0,0,0-12.48-2.56A28.32,28.32,0,0,0,23,42.72,30.91,30.91,0,0,0,13,49.44,32.32,32.32,0,0,0,6.08,59.52,33.3,33.3,0,0,0,3.68,72a31.9,31.9,0,0,0,2.4,12.32A26.33,26.33,0,0,0,13,94.4,26.33,26.33,0,0,0,23,101.28a30.38,30.38,0,0,0,12.32,2.56,32.86,32.86,0,0,0,12.48-2.56A35.27,35.27,0,0,0,57.92,94.4a30.93,30.93,0,0,0,6.72-10.08l.8-1.6,3.36,1.44-.8,1.6A33.67,33.67,0,0,1,60.48,97a35.68,35.68,0,0,1-11.36,7.68,37.64,37.64,0,0,1-13.76,2.72A37.64,37.64,0,0,1,21.6,104.64Z"/><path d="M152.32,75V107.2H149V87.36a35.72,35.72,0,0,1-32,20A34.08,34.08,0,0,1,92,97,34.08,34.08,0,0,1,81.6,72,34.7,34.7,0,0,1,92,46.88a35.5,35.5,0,0,1,25-10.24,35.87,35.87,0,0,1,25.12,10.24A33.85,33.85,0,0,1,149,56.64V37.92h3.36V68.8c0,1.12.16,2.08.16,3.2S152.32,73.92,152.32,75Zm-3.52-3A31.76,31.76,0,1,0,117,103.84,31.82,31.82,0,0,0,148.8,72Z"/><path d="M202.24,36.8v3.36h-1.76a32.06,32.06,0,0,0-31.84,32v35.2h-3.36V36.8h3.36V57.12a30.43,30.43,0,0,1,7-9.92,33.46,33.46,0,0,1,24.8-10.4Z"/><path d="M225.44,97.12a34.07,34.07,0,0,1-10.4-25,33.82,33.82,0,0,1,10.4-25,33.46,33.46,0,0,1,24.8-10.4,33.82,33.82,0,0,1,25,10.4,33.82,33.82,0,0,1,10.4,25,34.08,34.08,0,0,1-10.4,25,34.94,34.94,0,0,1-25,10.24A34.57,34.57,0,0,1,225.44,97.12Zm-7-25a31.92,31.92,0,0,0,63.84,0,31.92,31.92,0,1,0-63.84,0Z"/><path d="M301.76,107.36H298.4V0h3.36Z"/><path d="M385.12,36.8V109a33.47,33.47,0,0,1-10.4,24.8,33.17,33.17,0,0,1-24,10.4h-1A35.4,35.4,0,0,1,325,133.92v-.16l-1.28-1.12A34.06,34.06,0,0,1,314.56,109V107.2h3.36V109a31.69,31.69,0,0,0,31.84,31.84,31.19,31.19,0,0,0,22.56-9.28h.16A32.54,32.54,0,0,0,381.76,109V87a35.13,35.13,0,0,1-7,9.92,33.82,33.82,0,0,1-25,10.4A33.47,33.47,0,0,1,325,97a33.47,33.47,0,0,1-10.4-24.8V36.8h3.36V72.16a31.92,31.92,0,0,0,63.84,0V36.8Z"/><path d="M468.48,72.64v34.72h-3.36V72.64a31.8,31.8,0,0,0-54.56-22.88,32.72,32.72,0,0,0-9.28,22.88v34.72h-3.36V36.8h3.36V57.44a33.29,33.29,0,0,1,6.88-10.08,34.78,34.78,0,0,1,49.92,0A35.06,35.06,0,0,1,468.48,72.64Z"/><path d="M502.88,104.64a34.52,34.52,0,0,1-11.2-7.52A35.66,35.66,0,0,1,484,85.76a36.81,36.81,0,0,1-2.72-13.6A37.63,37.63,0,0,1,484,58.4a30.46,30.46,0,0,1,7.68-11.2,34.52,34.52,0,0,1,11.2-7.52,32.94,32.94,0,0,1,13.6-2.88,36,36,0,0,1,25,10.4A34.26,34.26,0,0,1,549,58.72L550.08,61H486.55a32.29,32.29,0,0,0-1.92,11.2A31.9,31.9,0,0,0,487,84.48a32,32,0,0,0,17.12,17.12,31.91,31.91,0,0,0,12.32,2.4A33.31,33.31,0,0,0,529,101.6a33.92,33.92,0,0,0,10.24-6.88,35.45,35.45,0,0,0,6.72-10.24l.64-1.44,3,1.28L549,85.76a36.07,36.07,0,0,1-7.52,11.36,33.67,33.67,0,0,1-11.2,7.52,37.64,37.64,0,0,1-13.76,2.72A36.82,36.82,0,0,1,502.88,104.64ZM545,57.6a35.51,35.51,0,0,0-5.76-8A31.21,31.21,0,0,0,529,42.72a29.54,29.54,0,0,0-12.48-2.56,28.32,28.32,0,0,0-12.32,2.56,31.21,31.21,0,0,0-10.24,6.88,38.44,38.44,0,0,0-5.92,8Z"/><path d="M15.69,162.6V336.3H0V146.91S15.69,146.91,15.69,162.6ZM63,178.51V304.69s0,31.6-31.38,31.6c15.69,0,15.69-15.69,15.69-15.69v-158s0-15.69-15.69-15.69C63,146.91,63,178.51,63,178.51Z"/><path d="M103.87,146.91C88,146.91,88,162.6,88,162.6v158s0,15.69,15.91,15.69c-31.6,0-31.6-31.6-31.6-31.6V178.51S72.27,146.91,103.87,146.91Zm15.69,110.5V162.6s0-15.69-15.69-15.69c31.38,0,31.38,31.6,31.38,31.6v63s0,31.6-31.38,31.6C119.56,273.09,119.56,257.4,119.56,257.4ZM103.87,336.3c15.69,0,15.69-15.69,15.69-15.69s0-15.91,15.69-15.91C135.25,304.69,135.25,336.3,103.87,336.3Z"/><path d="M175.69,241.49c-31.6,0-31.6-31.38-31.6-31.38v-31.6s0-31.6,31.6-31.6c-15.91,0-15.91,15.69-15.91,15.69v63.2S159.78,241.49,175.69,241.49Zm0,94.81c-31.6,0-31.6-31.6-31.6-31.6,15.69,0,15.69,15.91,15.69,15.91S159.78,336.3,175.69,336.3Zm0-189.39c31.38,0,31.38,31.6,31.38,31.6-15.69,0-15.69-15.91-15.69-15.91S191.38,146.91,175.69,146.91Zm31.38,126.19v31.6s0,31.6-31.38,31.6c15.69,0,15.69-15.69,15.69-15.69V257.4s0-15.91-15.69-15.91C207.07,241.49,207.07,273.09,207.07,273.09Z"/><path d="M232,336.08H216.13V162.38s0-15.69,15.91-15.69Z"/><path d="M272.93,336.3c-31.6,0-31.6-31.6-31.6-31.6V178.51s0-31.6,31.6-31.6C257,146.91,257,162.6,257,162.6v158S257,336.3,272.93,336.3Zm0-189.39c31.38,0,31.38,31.6,31.38,31.6-15.69,0-15.69-15.91-15.69-15.91S288.62,146.91,272.93,146.91Zm31.38,94.58c0-15.69-15.69-15.69-15.69-15.69s-15.69,0-15.69-15.69C272.93,210.11,304.31,210.11,304.31,241.49Zm0,15.91v47.29s0,31.6-31.38,31.6c15.69,0,15.69-15.69,15.69-15.69V241.49S304.31,241.49,304.31,257.4Z"/><path d="M326.41,152.65s8.84-5.75,19-5.75c-15.69,0-15.69,15.69-15.69,15.69V336.3H313.81V146.91C320.22,146.91,324.2,149.56,326.41,152.65ZM377,178.51V336.3H361.11V162.6s0-15.69-15.69-15.69C377,146.91,377,178.51,377,178.51Z"/><circle class="a" cx="497.5" cy="231.84" r="60.5"/><path d="M75.57,454.3a39.59,39.59,0,0,1-28.42,11.4,41.24,41.24,0,0,1-30.28-12.5,42.86,42.86,0,0,1,0-60.5,41.14,41.14,0,0,1,30.28-12.56,41.29,41.29,0,0,1,28.77,11.17l-3.6,3.19A36.79,36.79,0,0,0,47.15,385a36.64,36.64,0,0,0-26.85,11.11,37.94,37.94,0,0,0,0,53.71,36.64,36.64,0,0,0,26.85,11.11,36.8,36.8,0,0,0,23.75-8.27V427.18h4.67Z"/><path d="M107.23,435.75H91.64v29H86.91V381.16h21.92a27.61,27.61,0,0,1,16.25,8A27.4,27.4,0,0,1,112.37,435l19.26,29.72h-5.79Zm-15.6-49.81v45h14.18a22.51,22.51,0,1,0,0-45Z"/><path d="M172.4,381.16l30.31,83.54h-5L184.4,428H155.5L141.92,464.7h-5l30.66-83.54Zm10.28,42.13-12.7-35-12.76,35Z"/><path d="M214.23,435.75v29H209.5V381.16h21.92a27.61,27.61,0,0,1,16.25,8,27.31,27.31,0,0,1-19.26,46.62Zm0-49.81v45h14.18a22.51,22.51,0,1,0,0-45Z"/><path d="M269.83,425.29V464.7H265.1V381.16h4.73v39.41H312.6V381.16h4.73V464.7H312.6V425.29Z"/><path d="M334.82,381.16V464.7h-4.73V381.16Z"/><path d="M388.05,465.7a42.11,42.11,0,1,1,10-1A42.05,42.05,0,0,1,408.85,470a26.62,26.62,0,0,0,9,3q6.32-.18,6.91-7.09h4.73Q428.11,476,419,476.75a26.75,26.75,0,0,1-14.06-4q-7.33-3.84-11.58-4.13a9.66,9.66,0,0,0-5.91,2.07,8.79,8.79,0,0,0-2.63,4.19,25.81,25.81,0,0,0-.74,3h-4.73Q380.9,467.59,388.05,465.7Zm.47-80.94a38.12,38.12,0,1,0,26.94,11.17A36.64,36.64,0,0,0,388.52,384.76Z"/><path d="M491.5,381.16h4.73v60a27.6,27.6,0,0,1-8,16.25,27.27,27.27,0,0,1-46.56-19.26v-57h4.73v57a22.54,22.54,0,0,0,45.08,0Z"/><path d="M551.24,381.16v4.73h-37v34.68h37v4.73h-37V460h37v4.73H509.46V381.16Z"/><path class="b" d="M569,241.56c.21-12.64-23-24.39-42-26.41-24.51-2.62-53.66,9.75-54.28,23.52-.58,12.92,24,26.64,45.59,27.86C541.52,267.85,568.73,255.13,569,241.56Z"/><path class="b" d="M566.2,233.74a35.24,35.24,0,0,0,17.16-17.58"/><path class="b" d="M553.9,223.65c1.77-2.81,3.53-5.75,5.27-8.85,1.34-2.39,2.62-4.75,3.8-7.07"/><path class="b" d="M536.9,217a28.58,28.58,0,0,0,5-8.79,32,32,0,0,0,1.54-6.44"/><path class="b" d="M521.1,197.41q-.3,2.65-.54,5.43c-.35,4.14-.52,8.13-.56,11.95v.55"/><path class="b" d="M495,200.67a30.57,30.57,0,0,0,2.17,9.47,33.4,33.4,0,0,0,4,7.13"/><path class="b" d="M475.42,205.82a27.52,27.52,0,0,0,2.22,10.09,24.27,24.27,0,0,0,6.14,8.51"/><path class="c" d="M513.73,248.55a15.14,15.14,0,0,1-3.23-9.6,15,15,0,0,1,3.23-9.6,9.67,9.67,0,0,1,15.68,0l.23.28-.5.61-.23-.32a9.1,9.1,0,0,0-14.69,0,14.89,14.89,0,0,0,0,18,9.1,9.1,0,0,0,14.69,0l.23-.28.5.57-.23.32a9.73,9.73,0,0,1-15.68,0Z"/><rect x="527" y="233.34" width="16" height="4"/><rect x="527" y="241.34" width="14" height="4"/></svg>