<svg xmlns="http://www.w3.org/2000/svg" viewBox="0 0 2952 979"><defs><style>.a,.c,.d{fill:none;stroke-linecap:round;stroke-linejoin:round;}.a{stroke:#4d4d4d;stroke-width:2.5px;stroke-dasharray:7 7;}.b{font-size:300px;font-family:Moodyrock, Moodyrock;letter-spacing:-0.01em;}.c,.d{stroke:#000;}.c{stroke-width:0.5px;}.d{stroke-width:5px;}.e{font-size:190px;font-family:MADESAONARA, MADE SAONARA;letter-spacing:0em;}.f,.g{fill:#b7620d;}.g{letter-spacing:-0.01em;}.h{font-family:Champagne&amp;Limousines, Champagne &amp; Limousines;letter-spacing:-0.01em;}.i,.j,.k,.l{font-size:170px;font-family:NixieOne, Nixie One;}.i{letter-spacing:-0.02em;}.j{letter-spacing:-0.01em;}.k{letter-spacing:-0.02em;}.l{letter-spacing:-0.02em;}.m{font-size:120px;font-family:JosefinSans-Thin, Josefin Sans;text-decoration:line-through;letter-spacing:-0.01em;}</style></defs><title>Logo CF v4 SVG</title><line class="a" x1="506.5" y1="936.1" x2="506.5" y2="36.1"/><text class="b" transform="translate(1046.5 349.57)">Carolyne Fabre</text><line class="a" x1="26.5" y1="161.1" x2="916.5" y2="161.1"/><line class="a" x1="26.5" y1="361.1" x2="916.5" y2="361.1"/><line class="a" x1="26.5" y1="501.1" x2="916.5" y2="501.1"/><circle class="a" cx="306.5" cy="366.1" r="135"/><line class="c" x1="816.5" y1="446.1" x2="506.5" y2="446.1"/><line class="d" x1="506.5" y1="451.1" x2="506.5" y2="846.1"/><line class="a" x1="446.5" y1="926.1" x2="886.5" y2="356.1"/><circle class="a" cx="301.5" cy="363.6" r="202.5"/><line class="a" x1="566.5" y1="856.1" x2="566.5" y2="106.1"/><line class="a" x1="26.5" y1="446.1" x2="916.5" y2="446.1"/><line class="a" x1="386.5" y1="646.1" x2="916.5" y2="646.1"/><path class="d" d="M391.5,471.1l50,30,2.12,4.24c-15,14.48-67.54,61.45-141.75,60.75-97.42-.92-202.5-83.7-202.5-202.5,0-118.33,104.8-201.58,202.5-202.5,74.21-.7,126.72,46.27,141.75,60.75C430.12,232,406.5,252.22,393,262.35"/><line class="a" x1="386.5" y1="601.1" x2="916.5" y2="601.1"/><line class="d" x1="571.5" y1="501.1" x2="771.5" y2="501.1"/><line class="d" x1="566.5" y1="601.5" x2="696.5" y2="601.5"/><line class="d" x1="566.5" y1="601.5" x2="566.5" y2="771.5"/><text class="e" transform="translate(1046.5 642.49)"><tspan class="f">D</tspan><tspan class="g" x="139.46" y="0">esign</tspan><tspan class="h" x="540.35" y="0"> </tspan><tspan class="i" x="585.2" y="0">G</tspan><tspan class="j" x="711.51" y="0">ra</tspan><tspan class="k" x="890.86" y="0">p</tspan><tspan class="j" x="993.54" y="0">h</tspan><tspan class="l" x="1102.17" y="0">i</tspan><tspan class="j" x="1147.72" y="0">q</tspan><tspan class="l" x="1249.72" y="0">u</tspan><tspan class="j" x="1357.16" y="0">e. </tspan><tspan class="m" x="1536.17" y="0" xml:space="preserve">          </tspan></text><line class="d" x1="506.5" y1="446.5" x2="816.5" y2="446.5"/></svg>