<svg xmlns="http://www.w3.org/2000/svg" width="170.872" height="92.238" viewBox="0 0 170.872 92.238">
  <g>
    <g>
      <path d="M22.023,26.573l3.948,1.446a24.462,24.462,0,0,1-1.859,2.294A11.547,11.547,0,0,1,15.6,33.825a11.47,11.47,0,0,1-8.434-3.454,11.4,11.4,0,0,1,0-16.351A11.491,11.491,0,0,1,15.6,10.577a11.436,11.436,0,0,1,8.422,3.4,22.037,22.037,0,0,1,1.951,2.363l-3.948,1.469Q21.2,16.774,20.9,16.452a7.441,7.441,0,0,0-10.649.081,7.7,7.7,0,0,0-2.271,5.656,7.68,7.68,0,0,0,2.271,5.635A7.3,7.3,0,0,0,15.6,30.107a7.4,7.4,0,0,0,5.393-2.318Q21.2,27.582,22.023,26.573Z" fill="#dac5fc"/>
      <path d="M52.385,33.274H48.231V29.6a8.085,8.085,0,0,1-7.481,4.223,11.473,11.473,0,0,1-8.434-3.454,11.4,11.4,0,0,1,0-16.351,11.5,11.5,0,0,1,8.434-3.443,8.1,8.1,0,0,1,7.481,4.177V12.3h4.154Zm-4.154-9.409V20.514a7.408,7.408,0,0,0-2.088-3.924,7.406,7.406,0,0,0-10.763-.046,7.739,7.739,0,0,0-2.272,5.668,7.637,7.637,0,0,0,2.272,5.623,7.457,7.457,0,0,0,10.763-.046A7.408,7.408,0,0,0,48.231,23.865Z" fill="#dac5fc"/>
      <path d="M66.315,15.419a6.939,6.939,0,0,0-4.406,2.261,6.8,6.8,0,0,0-1.56,4.578V33.274H56.2V12.3h4.154v2.984a5.728,5.728,0,0,1,3.947-3.42Z" fill="#dac5fc"/>
      <path d="M81.049,10.577a11.435,11.435,0,0,1,8.445,3.443,11.482,11.482,0,0,1,0,16.351,12.038,12.038,0,0,1-16.879,0,11.4,11.4,0,0,1,0-16.351A11.493,11.493,0,0,1,81.049,10.577Zm-5.37,5.967a7.739,7.739,0,0,0-2.272,5.668,7.637,7.637,0,0,0,2.272,5.623,7.468,7.468,0,0,0,10.728,0,7.616,7.616,0,0,0,2.284-5.623,7.718,7.718,0,0,0-2.284-5.668,7.416,7.416,0,0,0-10.728,0Z" fill="#dac5fc"/>
      <path d="M101.244.25V33.274H97.09V.25Z" fill="#dac5fc"/>
      <path d="M110.814,40.549h-4.475L111.8,28.8l-7.688-16.5h4.475l5.462,11.59,5.462-11.59h4.475Z" fill="#dac5fc"/>
      <path d="M130.757,17.623V33.274H126.6V12.3h4.154q1.055-1.146,4.36-1.147a8.66,8.66,0,0,1,6.4,2.432A8.252,8.252,0,0,1,144,19.527V33.274h-4.131V19.711a4.745,4.745,0,0,0-1.446-3.545,4.586,4.586,0,0,0-6.541-.081A5.216,5.216,0,0,0,130.757,17.623Z" fill="#dac5fc"/>
      <path d="M151.709,22.144v.068a7.64,7.64,0,0,0,2.272,5.623,7.458,7.458,0,0,0,10.764-.046q.32-.321,1.239-1.446l3.9,1.377a12.624,12.624,0,0,1-2.019,2.593,12.05,12.05,0,0,1-16.948.058,11.4,11.4,0,0,1,0-16.351,12.093,12.093,0,0,1,16.948.045,10.968,10.968,0,0,1,3.006,8.079Zm.735-3.626H166.19q-1.468-4.269-6.838-4.269Q153.958,14.249,152.444,18.518Z" fill="#dac5fc"/>
      <path d="M9.1,72.278v17.4H4.949v-17.4H3.021V68.7H4.949V64.407a6.441,6.441,0,0,1,6.541-6.1,8.4,8.4,0,0,1,3.718.826l-1.217,3.443a5,5,0,0,0-2.341-.8,2.549,2.549,0,0,0-1.675.757A3.078,3.078,0,0,0,9.1,64.567V68.7H13v3.58Z" fill="#dac5fc"/>
      <path d="M38.753,89.674H34.6V86a8.088,8.088,0,0,1-7.482,4.223,11.47,11.47,0,0,1-8.433-3.454,11.4,11.4,0,0,1,0-16.352,11.494,11.494,0,0,1,8.433-3.442A8.106,8.106,0,0,1,34.6,71.154V68.7h4.153ZM34.6,80.265V76.914a7.837,7.837,0,0,0-7.482-6.265,7.307,7.307,0,0,0-5.37,2.3,7.739,7.739,0,0,0-2.272,5.668,7.637,7.637,0,0,0,2.272,5.623A7.637,7.637,0,0,0,34.6,80.265Z" fill="#dac5fc"/>
      <path d="M43.068,56.65h4.154V71.108a8.1,8.1,0,0,1,7.458-4.131,11.484,11.484,0,0,1,8.445,3.442,11.429,11.429,0,0,1,0,16.352,11.46,11.46,0,0,1-8.445,3.454,8.092,8.092,0,0,1-7.458-4.154v3.6H43.068Zm4.154,20.2v3.534a7.73,7.73,0,0,0,7.458,6.128,7.355,7.355,0,0,0,5.359-2.272,7.619,7.619,0,0,0,2.283-5.623,7.721,7.721,0,0,0-2.283-5.668,7.32,7.32,0,0,0-5.359-2.3,7.435,7.435,0,0,0-5.416,2.341A7.194,7.194,0,0,0,47.222,76.845Z" fill="#dac5fc"/>
      <path d="M80.154,71.819a6.936,6.936,0,0,0-4.406,2.261,6.792,6.792,0,0,0-1.561,4.578V89.674H70.033V68.7h4.154v2.984a5.732,5.732,0,0,1,3.947-3.42Z" fill="#dac5fc"/>
      <path d="M86.786,78.543v.069a7.637,7.637,0,0,0,2.272,5.623,7.457,7.457,0,0,0,10.763-.046q.321-.321,1.24-1.446l3.9,1.377a12.628,12.628,0,0,1-2.02,2.593A12.049,12.049,0,0,1,86,86.771a11.4,11.4,0,0,1,0-16.352,12.093,12.093,0,0,1,16.947.046,10.967,10.967,0,0,1,3.007,8.078Zm.735-3.626h13.746Q99.8,70.65,94.428,70.649,89.036,70.649,87.521,74.917Z" fill="#dac5fc"/>
    </g>
    <g>
      <path d="M19.252,26.573,23.2,28.019a24.3,24.3,0,0,1-1.859,2.294,11.544,11.544,0,0,1-8.514,3.512,11.47,11.47,0,0,1-8.433-3.454,11.4,11.4,0,0,1,0-16.351,11.491,11.491,0,0,1,8.433-3.443,11.437,11.437,0,0,1,8.423,3.4,21.93,21.93,0,0,1,1.95,2.363l-3.947,1.469q-.826-1.032-1.125-1.354a7.275,7.275,0,0,0-5.3-2.2,7.3,7.3,0,0,0-5.347,2.284,7.7,7.7,0,0,0-2.272,5.656,7.676,7.676,0,0,0,2.272,5.635,7.3,7.3,0,0,0,5.347,2.283,7.4,7.4,0,0,0,5.393-2.318Q18.426,27.582,19.252,26.573Z" fill="none" stroke="#000" stroke-width="0.5"/>
      <path d="M49.614,33.274H45.46V29.6a8.086,8.086,0,0,1-7.481,4.223,11.47,11.47,0,0,1-8.434-3.454,11.4,11.4,0,0,1,0-16.351,11.491,11.491,0,0,1,8.434-3.443,8.1,8.1,0,0,1,7.481,4.177V12.3h4.154ZM45.46,23.865V20.514a7.415,7.415,0,0,0-2.088-3.924,7.407,7.407,0,0,0-10.764-.046,7.743,7.743,0,0,0-2.272,5.668,7.64,7.64,0,0,0,2.272,5.623,7.458,7.458,0,0,0,10.764-.046A7.415,7.415,0,0,0,45.46,23.865Z" fill="none" stroke="#000" stroke-width="0.5"/>
      <path d="M63.544,15.419a6.936,6.936,0,0,0-4.406,2.261,6.792,6.792,0,0,0-1.561,4.578V33.274H53.423V12.3h4.154v2.984a5.732,5.732,0,0,1,3.947-3.42Z" fill="none" stroke="#000" stroke-width="0.5"/>
      <path d="M78.277,10.577a11.436,11.436,0,0,1,8.446,3.443,11.484,11.484,0,0,1,0,16.351,12.038,12.038,0,0,1-16.879,0,11.4,11.4,0,0,1,0-16.351A11.491,11.491,0,0,1,78.277,10.577Zm-5.37,5.967a7.743,7.743,0,0,0-2.272,5.668,7.64,7.64,0,0,0,2.272,5.623,7.469,7.469,0,0,0,10.729,0,7.619,7.619,0,0,0,2.283-5.623,7.721,7.721,0,0,0-2.283-5.668,7.417,7.417,0,0,0-10.729,0Z" fill="none" stroke="#000" stroke-width="0.5"/>
      <path d="M98.473.25V33.274H94.319V.25Z" fill="none" stroke="#000" stroke-width="0.5"/>
      <path d="M108.042,40.549h-4.475l5.462-11.75-7.688-16.5h4.475l5.462,11.59L116.74,12.3h4.475Z" fill="none" stroke="#000" stroke-width="0.5"/>
      <path d="M127.985,17.623V33.274h-4.153V12.3h4.153q1.056-1.146,4.361-1.147a8.663,8.663,0,0,1,6.4,2.432,8.256,8.256,0,0,1,2.478,5.944V33.274H137.1V19.711a4.745,4.745,0,0,0-1.446-3.545,4.585,4.585,0,0,0-6.54-.081A5.2,5.2,0,0,0,127.985,17.623Z" fill="none" stroke="#000" stroke-width="0.5"/>
      <path d="M148.938,22.144v.068a7.637,7.637,0,0,0,2.272,5.623,7.457,7.457,0,0,0,10.763-.046q.321-.321,1.239-1.446l3.9,1.377a12.628,12.628,0,0,1-2.02,2.593,12.05,12.05,0,0,1-16.948.058,11.4,11.4,0,0,1,0-16.351,12.093,12.093,0,0,1,16.948.045,10.968,10.968,0,0,1,3.007,8.079Zm.734-3.626h13.747q-1.47-4.269-6.839-4.269Q151.186,14.249,149.672,18.518Z" fill="none" stroke="#000" stroke-width="0.5"/>
      <path d="M6.332,72.278v17.4H2.178v-17.4H.25V68.7H2.178V64.407a6.439,6.439,0,0,1,6.54-6.1,8.4,8.4,0,0,1,3.718.826L11.22,62.571a5,5,0,0,0-2.341-.8,2.547,2.547,0,0,0-1.675.757,3.073,3.073,0,0,0-.872,2.042V68.7h3.9v3.58Z" fill="none" stroke="#000" stroke-width="0.5"/>
      <path d="M35.982,89.674H31.828V86a8.086,8.086,0,0,1-7.481,4.223,11.47,11.47,0,0,1-8.434-3.454,11.4,11.4,0,0,1,0-16.352,11.494,11.494,0,0,1,8.434-3.442,8.1,8.1,0,0,1,7.481,4.177V68.7h4.154Zm-4.154-9.409V76.914a7.834,7.834,0,0,0-7.481-6.265,7.3,7.3,0,0,0-5.37,2.3A7.739,7.739,0,0,0,16.7,78.612a7.637,7.637,0,0,0,2.272,5.623,7.457,7.457,0,0,0,10.763-.046A7.419,7.419,0,0,0,31.828,80.265Z" fill="none" stroke="#000" stroke-width="0.5"/>
      <path d="M40.3,56.65H44.45V71.108a8.1,8.1,0,0,1,7.459-4.131,11.486,11.486,0,0,1,8.445,3.442,11.431,11.431,0,0,1,0,16.352,11.461,11.461,0,0,1-8.445,3.454,8.093,8.093,0,0,1-7.459-4.154v3.6H40.3Zm4.154,20.2v3.534a7.553,7.553,0,0,0,12.818,3.856,7.619,7.619,0,0,0,2.283-5.623,7.721,7.721,0,0,0-2.283-5.668,7.322,7.322,0,0,0-5.359-2.3,7.432,7.432,0,0,0-5.416,2.341A7.2,7.2,0,0,0,44.45,76.845Z" fill="none" stroke="#000" stroke-width="0.5"/>
      <path d="M77.382,71.819a6.939,6.939,0,0,0-4.406,2.261,6.8,6.8,0,0,0-1.56,4.578V89.674H67.262V68.7h4.154v2.984a5.728,5.728,0,0,1,3.947-3.42Z" fill="none" stroke="#000" stroke-width="0.5"/>
      <path d="M84.015,78.543v.069a7.637,7.637,0,0,0,2.272,5.623,7.457,7.457,0,0,0,10.763-.046q.321-.321,1.239-1.446l3.9,1.377a12.59,12.59,0,0,1-2.019,2.593,12.05,12.05,0,0,1-16.948.058,11.4,11.4,0,0,1,0-16.352,12.095,12.095,0,0,1,16.948.046,10.967,10.967,0,0,1,3.006,8.078Zm.734-3.626H98.5q-1.47-4.267-6.839-4.268Q86.263,70.649,84.749,74.917Z" fill="none" stroke="#000" stroke-width="0.5"/>
    </g>
    <circle cx="140.355" cy="74.34" r="17.69" fill="#d9f4d3"/>
    <circle cx="135.091" cy="74.34" r="17.69" fill="none" stroke="#000" stroke-width="0.414"/>
  </g>
</svg>
