<?xml version="1.0" encoding="utf-8"?>
<!-- Generator: Adobe Illustrator 21.0.0, SVG Export Plug-In . SVG Version: 6.00 Build 0)  -->
<svg version="1.1" id="Calque_1" xmlns="http://www.w3.org/2000/svg" xmlns:xlink="http://www.w3.org/1999/xlink" x="0px" y="0px"
	 viewBox="0 0 590 477.9" style="enable-background:new 0 0 590 477.9;" xml:space="preserve">
<style type="text/css">
	.st0{fill:#F96E10;}
	.st1{fill:none;stroke:#000000;stroke-width:8;stroke-miterlimit:10;}
	.st2{stroke:#000000;stroke-width:4;stroke-miterlimit:10;}
</style>
<title>logo-site-v2_2</title>
<path d="M21.6,104.6c-4.3-1.7-8.1-4.3-11.2-7.6c-3.3-3.2-5.9-7-7.7-11.2c-3.6-8.8-3.6-18.7,0-27.5c1.8-4.2,4.4-8.1,7.7-11.4
	c3.2-3.2,7-5.8,11.2-7.5c4.3-1.9,9-2.8,13.8-2.7c4.7-0.1,9.4,0.8,13.8,2.7c4.2,1.8,8.1,4.3,11.4,7.5c3.2,3.3,5.8,7.1,7.5,11.4
	l0.8,1.6l-3.4,1.4l-0.8-1.8c-1.6-3.7-3.9-7.1-6.7-10.1c-2.9-2.8-6.3-5.1-10.1-6.7c-3.9-1.8-8.2-2.6-12.5-2.6
	c-4.3-0.1-8.5,0.8-12.4,2.6c-3.7,1.6-7.1,3.8-10,6.7c-2.9,2.9-5.3,6.3-6.9,10.1c-1.6,4-2.4,8.2-2.4,12.5c0,4.2,0.8,8.4,2.4,12.3
	c1.5,3.9,3.9,7.3,6.9,10.1c2.8,3,6.2,5.4,10,6.9c3.9,1.7,8.1,2.6,12.3,2.6c4.3,0,8.5-0.9,12.5-2.6c3.7-1.7,7.2-4,10.1-6.9
	c2.9-2.9,5.2-6.3,6.7-10.1l0.8-1.6l3.4,1.4L68,85.8c-1.7,4.2-4.3,8-7.5,11.2c-3.3,3.3-7.1,5.9-11.4,7.7c-4.4,1.8-9,2.7-13.8,2.7
	C30.6,107.4,26,106.4,21.6,104.6z"/>
<path d="M152.3,75v32.2H149V87.4c-6,12.2-18.4,20-32,20c-9.4,0.1-18.5-3.6-25-10.4c-6.8-6.5-10.5-15.6-10.4-25
	c-0.1-9.4,3.7-18.5,10.4-25.1c6.7-6.6,15.6-10.3,25-10.2c9.4,0,18.4,3.7,25.1,10.2c2.9,2.8,5.2,6.1,6.9,9.8V37.9h3.4v30.9
	c0,1.1,0.2,2.1,0.2,3.2S152.3,73.9,152.3,75z M148.8,72c0-17.5-14.3-31.7-31.8-31.7S85.2,54.6,85.3,72.2c0,17.5,14.2,31.7,31.7,31.7
	C134.6,103.8,148.8,89.6,148.8,72C148.8,72,148.8,72,148.8,72z"/>
<path d="M202.2,36.8v3.4h-1.8c-17.6,0.1-31.8,14.4-31.8,32v35.2h-3.4V36.8h3.4v20.3c1.6-3.7,4-7.1,7-9.9
	c6.4-6.8,15.4-10.6,24.8-10.4L202.2,36.8z"/>
<path d="M225.4,97.1c-6.8-6.5-10.5-15.6-10.4-25c-0.2-9.4,3.6-18.5,10.4-25c6.4-6.8,15.4-10.6,24.8-10.4c9.4-0.2,18.5,3.6,25,10.4
	c6.8,6.5,10.6,15.6,10.4,25c0.1,9.4-3.6,18.5-10.4,25c-6.6,6.6-15.6,10.3-25,10.2C240.9,107.4,232,103.7,225.4,97.1z M218.4,72.1
	c0,17.6,14.3,31.9,31.9,31.9c17.6,0,31.9-14.3,31.9-31.9c0-17.6-14.3-31.9-31.9-31.9C232.7,40.2,218.4,54.5,218.4,72.1
	C218.4,72.1,218.4,72.1,218.4,72.1z"/>
<path d="M301.8,107.4h-3.4V0h3.4L301.8,107.4z"/>
<path d="M385.1,36.8V109c0.2,9.4-3.6,18.4-10.4,24.8c-6.2,6.6-14.9,10.4-24,10.4h-1c-9.3-0.1-18.1-3.7-24.7-10.3v-0.2l-1.3-1.1
	c-6-6.4-9.3-14.9-9.2-23.6v-1.8h3.4v1.8c-0.1,17.5,14,31.8,31.5,31.8c0.1,0,0.2,0,0.3,0c8.5,0.1,16.6-3.3,22.6-9.3h0.2
	c5.9-6,9.2-14.1,9.3-22.6V87c-1.7,3.7-4.1,7-7,9.9c-6.5,6.8-15.6,10.6-25,10.4c-9.3,0.2-18.3-3.6-24.8-10.3
	c-6.8-6.4-10.6-15.4-10.4-24.8V36.8h3.4v35.4c0,17.6,14.3,31.9,31.9,31.9c17.6,0,31.9-14.3,31.9-31.9V36.8H385.1z"/>
<path d="M468.5,72.6v34.7h-3.4V72.6c0.4-17.6-13.6-32.1-31.1-32.5c-8.8-0.2-17.3,3.3-23.4,9.6c-6,6.1-9.3,14.3-9.3,22.9v34.7h-3.4
	V36.8h3.4v20.6c1.7-3.8,4-7.2,6.9-10.1c13.4-13.8,35.4-14.1,49.2-0.7c0.3,0.2,0.5,0.5,0.7,0.7C464.8,54,468.6,63.2,468.5,72.6z"/>
<path d="M502.9,104.6c-4.2-1.7-8-4.3-11.2-7.5c-3.3-3.3-5.9-7.1-7.7-11.4c-1.8-4.3-2.7-8.9-2.7-13.6c0-4.7,1-9.4,2.7-13.8
	c1.7-4.3,4.3-8.1,7.7-11.2c3.2-3.2,7-5.8,11.2-7.5c4.3-1.9,8.9-2.9,13.6-2.9c9.4,0.1,18.3,3.8,25,10.4c3.3,3.3,5.8,7.2,7.5,11.5
	l1.1,2.3h-63.5c-1.3,3.6-1.9,7.4-1.9,11.2c0,4.2,0.8,8.4,2.4,12.3c3.2,7.7,9.4,13.9,17.1,17.1c3.9,1.6,8.1,2.4,12.3,2.4
	c4.3,0,8.6-0.8,12.6-2.4c3.8-1.6,7.3-4,10.2-6.9c2.8-3,5.1-6.5,6.7-10.2l0.6-1.4l3,1.3l-0.6,1.4c-1.8,4.2-4.3,8.1-7.5,11.4
	c-3.2,3.2-7,5.8-11.2,7.5c-4.4,1.8-9,2.7-13.8,2.7C511.8,107.3,507.2,106.4,502.9,104.6z M545,57.6c-1.5-2.9-3.5-5.6-5.8-8
	c-2.9-3-6.4-5.3-10.2-6.9c-3.9-1.8-8.2-2.6-12.5-2.6c-4.2-0.1-8.5,0.8-12.3,2.6c-3.8,1.6-7.3,3.9-10.2,6.9c-2.3,2.4-4.3,5.1-5.9,8
	L545,57.6z"/>
<path d="M15.7,162.6v173.7H0V146.9C0,146.9,15.7,146.9,15.7,162.6z M63,178.5v126.2c0,0,0,31.6-31.4,31.6
	c15.7,0,15.7-15.7,15.7-15.7v-158c0,0,0-15.7-15.7-15.7C63,146.9,63,178.5,63,178.5z"/>
<path d="M103.9,146.9C88,146.9,88,162.6,88,162.6v158c0,0,0,15.7,15.9,15.7c-31.6,0-31.6-31.6-31.6-31.6V178.5
	C72.3,178.5,72.3,146.9,103.9,146.9z M119.6,257.4v-94.8c0,0,0-15.7-15.7-15.7c31.4,0,31.4,31.6,31.4,31.6v63c0,0,0,31.6-31.4,31.6
	C119.6,273.1,119.6,257.4,119.6,257.4L119.6,257.4z M103.9,336.3c15.7,0,15.7-15.7,15.7-15.7s0-15.9,15.7-15.9
	C135.2,304.7,135.2,336.3,103.9,336.3z"/>
<path d="M175.7,241.5c-31.6,0-31.6-31.4-31.6-31.4v-31.6c0,0,0-31.6,31.6-31.6c-15.9,0-15.9,15.7-15.9,15.7v63.2
	C159.8,225.8,159.8,241.5,175.7,241.5z M175.7,336.3c-31.6,0-31.6-31.6-31.6-31.6c15.7,0,15.7,15.9,15.7,15.9
	S159.8,336.3,175.7,336.3z M175.7,146.9c31.4,0,31.4,31.6,31.4,31.6c-15.7,0-15.7-15.9-15.7-15.9S191.4,146.9,175.7,146.9
	L175.7,146.9z M207.1,273.1v31.6c0,0,0,31.6-31.4,31.6c15.7,0,15.7-15.7,15.7-15.7v-63.2c0,0,0-15.9-15.7-15.9
	C207.1,241.5,207.1,273.1,207.1,273.1L207.1,273.1z"/>
<path d="M232,336.1h-15.9V162.4c0,0,0-15.7,15.9-15.7L232,336.1z"/>
<path d="M272.9,336.3c-31.6,0-31.6-31.6-31.6-31.6V178.5c0,0,0-31.6,31.6-31.6c-15.9,0-15.9,15.7-15.9,15.7v158
	C257,320.6,257,336.3,272.9,336.3z M272.9,146.9c31.4,0,31.4,31.6,31.4,31.6c-15.7,0-15.7-15.9-15.7-15.9S288.6,146.9,272.9,146.9
	L272.9,146.9z M304.3,241.5c0-15.7-15.7-15.7-15.7-15.7s-15.7,0-15.7-15.7C272.9,210.1,304.3,210.1,304.3,241.5L304.3,241.5z
	 M304.3,257.4v47.3c0,0,0,31.6-31.4,31.6c15.7,0,15.7-15.7,15.7-15.7v-79.1C288.6,241.5,304.3,241.5,304.3,257.4z"/>
<path d="M326.4,152.6c0,0,8.8-5.8,19-5.8c-15.7,0-15.7,15.7-15.7,15.7v173.7h-15.9V146.9C320.2,146.9,324.2,149.6,326.4,152.6z
	 M377,178.5v157.8h-15.9V162.6c0,0,0-15.7-15.7-15.7C377,146.9,377,178.5,377,178.5z"/>
<circle class="st0" cx="497.5" cy="231.8" r="60.5"/>
<path d="M75.6,454.3c-7.6,7.5-17.8,11.6-28.4,11.4c-11.4,0.2-22.3-4.3-30.3-12.5c-16.7-16.7-16.7-43.8,0-60.5
	c7.9-8.2,18.9-12.7,30.3-12.6c10.7-0.1,21,3.9,28.8,11.2l-3.6,3.2c-6.9-6.2-15.9-9.6-25.2-9.5c-10.1-0.2-19.8,3.9-26.9,11.1
	c-14.8,14.8-14.9,38.8-0.1,53.7c0,0,0,0,0.1,0.1c7,7.2,16.8,11.3,26.9,11.1c8.6,0.1,17.1-2.8,23.8-8.3v-25.5h4.7V454.3z"/>
<path d="M107.2,435.8H91.6v29h-4.7v-83.6h21.9c6.2,0.8,11.9,3.6,16.2,8c10.7,10.7,10.6,28.1-0.2,38.7c-3.5,3.4-7.8,5.9-12.5,7.1
	l19.3,29.7h-5.8L107.2,435.8z M91.6,385.9v45h14.2c12.4,0.4,22.8-9.4,23.2-21.8c0.4-12.4-9.4-22.8-21.8-23.2c-0.4,0-0.9,0-1.3,0
	H91.6z"/>
<path d="M172.4,381.2l30.3,83.5h-5L184.4,428h-28.9l-13.6,36.7h-5l30.7-83.5H172.4z M182.7,423.3l-12.7-35l-12.8,35H182.7z"/>
<path d="M214.2,435.8v29h-4.7v-83.6h21.9c6.2,0.8,11.9,3.6,16.2,8c10.7,10.7,10.7,28,0,38.6c-5.1,5.1-12,8-19.3,8L214.2,435.8z
	 M214.2,385.9v45h14.2c12.4,0.4,22.8-9.4,23.2-21.8c0.4-12.4-9.4-22.8-21.8-23.2c-0.4,0-0.9,0-1.3,0H214.2z"/>
<path d="M269.8,425.3v39.4h-4.7v-83.5h4.7v39.4h42.8v-39.4h4.7v83.5h-4.7v-39.4H269.8z"/>
<path d="M334.8,381.2v83.5h-4.7v-83.5H334.8z"/>
<path d="M388,465.7c-23.3-0.5-41.7-19.7-41.3-42.9s19.7-41.7,42.9-41.3c23.3,0.5,41.7,19.7,41.3,42.9c-0.4,19.4-14,36-32.9,40.3
	c3.8,1.2,7.5,3,10.8,5.3c2.8,1.5,5.8,2.5,9,3c4.2-0.1,6.5-2.5,6.9-7.1h4.7c-0.9,6.7-4.4,10.3-10.5,10.8c-5,0-9.8-1.4-14.1-4
	c-4.9-2.6-8.7-3.9-11.6-4.1c-2.1,0-4.2,0.7-5.9,2.1c-1.3,1.1-2.2,2.6-2.6,4.2c-0.3,1-0.6,2-0.7,3h-4.7
	C380.4,471,383.3,467,388,465.7z M388.5,384.8c-21.1,0-38.1,17-38.1,38.1s17,38.1,38.1,38.1s38.1-17,38.1-38.1
	c0-10.1-4-19.8-11.2-27C408.4,388.6,398.7,384.6,388.5,384.8z"/>
<path d="M491.5,381.2h4.7v60c-0.8,6.2-3.6,11.9-8,16.2c-10.6,10.7-27.9,10.7-38.6,0c-5.1-5.1-8-12-8-19.3v-57h4.7v57
	c0,12.4,10.1,22.5,22.5,22.5s22.5-10.1,22.5-22.5L491.5,381.2z"/>
<path d="M551.2,381.2v4.7h-37v34.7h37v4.7h-37V460h37v4.7h-41.8v-83.6H551.2z"/>
<path class="st1" d="M572,241.6c0.2-12.6-23-24.4-42-26.4c-24.5-2.6-53.7,9.8-54.3,23.5c-0.6,12.9,24,26.6,45.6,27.9
	C544.5,267.9,571.7,255.1,572,241.6z"/>
<path class="st1" d="M569.2,233.7c7.6-3.6,13.7-9.9,17.2-17.6"/>
<path class="st1" d="M556.9,223.6c1.8-2.8,3.5-5.8,5.3-8.9c1.3-2.4,2.6-4.8,3.8-7.1"/>
<path class="st1" d="M539.9,217c2.2-2.6,3.9-5.6,5-8.8c0.7-2.1,1.3-4.2,1.5-6.4"/>
<path class="st1" d="M524.1,197.4c-0.2,1.8-0.4,3.6-0.5,5.4c-0.3,4.1-0.5,8.1-0.6,11.9v0.6"/>
<path class="st1" d="M498,200.7c0.2,3.3,0.9,6.4,2.2,9.5c1,2.5,2.4,4.9,4,7.1"/>
<path class="st1" d="M478.4,205.8c0.1,3.5,0.8,6.9,2.2,10.1c1.4,3.3,3.5,6.2,6.1,8.5"/>
<path class="st2" d="M513.3,252.7c-2.9-3.7-4.4-8.2-4.3-12.9c-0.1-4.7,1.4-9.2,4.3-12.9c4.2-5.8,12.3-7.1,18.1-2.9
	c1.1,0.8,2.1,1.8,2.9,2.9l0.3,0.4l-0.7,0.8l-0.3-0.4c-4-5.4-11.6-6.6-17.1-2.7c-1,0.7-1.9,1.6-2.7,2.7c-5.4,7.1-5.4,17,0,24.2
	c4,5.4,11.6,6.6,17.1,2.7c1-0.7,1.9-1.6,2.7-2.7l0.3-0.4l0.7,0.8l-0.3,0.4c-4.3,5.8-12.5,7.1-18.3,2.8
	C515,254.7,514,253.7,513.3,252.7L513.3,252.7z"/>
<rect x="531.1" y="232.3" width="21.5" height="5.4"/>
<rect x="531.1" y="243" width="18.8" height="5.4"/>
</svg>
