<svg xmlns="http://www.w3.org/2000/svg" viewBox="0 0 613.63 357.27"><defs><style>.a{fill:#fff;stroke:#000;stroke-miterlimit:10;stroke-width:8px;}</style></defs><title>yeux-about_1</title><path class="a" d="M18.59,73.88c-.22-13.1,23.84-25.27,43.49-27.37,25.39-2.71,55.59,10.1,56.23,24.37.6,13.39-24.88,27.6-47.24,28.87C47,101.11,18.82,87.94,18.59,73.88Z"/><path class="a" d="M53.45,50.89c-4.31,3-5.69,7.19-7.12,11.53a30.51,30.51,0,0,0-.56,17.5c1.1,3.88,2.73,9.65,8.43,13.58,6.4,4.42,16.65,5.65,22.87,1,3.39-2.51,4.36-5.84,5.84-10.87a34,34,0,0,0-.83-22.82c-1.74-4.2-3.32-8-7.63-10.67A20.06,20.06,0,0,0,53.45,50.89Z"/><path class="a" d="M3.65,47.56A36.59,36.59,0,0,0,21.44,65.77"/><path class="a" d="M24.78,38.83c1.24,2.4,2.55,4.84,3.95,7.32,1.8,3.21,3.63,6.27,5.46,9.18"/><path class="a" d="M45.07,32.63a33,33,0,0,0,1.59,6.67,30,30,0,0,0,5.12,9.11"/><path class="a" d="M68.16,28.13q.33,2.75.57,5.63c.35,4.29.53,8.42.57,12.38"/><path class="a" d="M88.83,48.71A34.6,34.6,0,0,0,93,41.32a31.74,31.74,0,0,0,2.26-9.81"/><path class="a" d="M106.83,56.12a25,25,0,0,0,6.37-8.82,28.45,28.45,0,0,0,2.29-10.45"/><path class="a" d="M270.25,73.88c.22-13.1-23.84-25.27-43.49-27.37-25.39-2.71-55.59,10.1-56.23,24.37-.6,13.39,24.88,27.6,47.24,28.87C241.83,101.11,270,87.94,270.25,73.88Z"/><path class="a" d="M231.85,50.1c4.31,3.08,5.69,7.31,7.12,11.72a31.54,31.54,0,0,1,.56,17.8c-1.1,3.95-2.73,9.81-8.43,13.81-6.4,4.5-16.65,5.74-22.87,1.07-3.39-2.55-4.36-5.94-5.84-11.06a35.08,35.08,0,0,1,.83-23.21c1.74-4.27,3.32-8.16,7.63-10.85A19.77,19.77,0,0,1,231.85,50.1Z"/><path class="a" d="M267.4,65.77a36.5,36.5,0,0,0,17.78-18.21"/><path class="a" d="M254.65,55.32c1.83-2.91,3.66-6,5.46-9.17,1.39-2.48,2.71-4.92,3.94-7.32"/><path class="a" d="M237,48.41a29.61,29.61,0,0,0,5.13-9.11,33.11,33.11,0,0,0,1.6-6.67"/><path class="a" d="M220.67,28.13q-.31,2.75-.56,5.63c-.36,4.29-.54,8.42-.58,12.38v.57"/><path class="a" d="M193.63,31.51a31.68,31.68,0,0,0,2.25,9.81A34.6,34.6,0,0,0,200,48.71"/><path class="a" d="M173.34,36.85a28.51,28.51,0,0,0,2.3,10.45A25.14,25.14,0,0,0,182,56.12"/><path class="a" d="M219.57,239.65c-.22-13.51,24.59-26.06,44.84-28.22,26.19-2.8,57.33,10.42,58,25.13.62,13.81-25.65,28.46-48.71,29.77C248.88,267.74,219.81,254.15,219.57,239.65Z"/><path class="a" d="M271.06,215.09c-4.06,3.16-5.36,7.5-6.72,12a35.08,35.08,0,0,0-.53,18.26c1,4.05,2.58,10.06,8,14.17,6,4.61,15.7,5.89,21.56,1.09,3.19-2.61,4.11-6.09,5.5-11.34a39,39,0,0,0-.79-23.81c-1.64-4.38-3.13-8.37-7.19-11.13A17.38,17.38,0,0,0,271.06,215.09Z"/><path class="a" d="M204.17,212.51a37.41,37.41,0,0,0,6.39,9.88,38.15,38.15,0,0,0,11.95,8.9"/><path class="a" d="M226,203.51c1.27,2.48,2.62,5,4.07,7.56q2.79,5,5.62,9.45"/><path class="a" d="M246.87,197.12a34.85,34.85,0,0,0,1.65,6.88,30.72,30.72,0,0,0,5.29,9.39"/><path class="a" d="M270.69,192.47c.23,1.9.42,3.84.59,5.81.37,4.43.55,8.69.59,12.77"/><path class="a" d="M292,213.7a35.16,35.16,0,0,0,4.25-7.62A32.77,32.77,0,0,0,298.58,196"/><path class="a" d="M310.57,221.35a25.81,25.81,0,0,0,6.56-9.11,29.22,29.22,0,0,0,2.37-10.77"/><path class="a" d="M479.09,239.65c.22-13.51-24.59-26.06-44.84-28.22-26.19-2.8-57.33,10.42-58,25.13-.62,13.81,25.65,28.46,48.71,29.77C449.79,267.74,478.85,254.15,479.09,239.65Z"/><path class="a" d="M452.43,217.14c4.15,3.13,5.48,7.42,6.86,11.9a33.66,33.66,0,0,1,.54,18.07c-1.06,4-2.63,10-8.12,14-6.17,4.56-16,5.83-22,1.08-3.26-2.59-4.2-6-5.62-11.22a37.41,37.41,0,0,1,.8-23.56c1.67-4.34,3.2-8.28,7.35-11A18.24,18.24,0,0,1,452.43,217.14Z"/><path class="a" d="M476.15,231.29a38.15,38.15,0,0,0,12-8.9,37.67,37.67,0,0,0,6.39-9.88"/><path class="a" d="M463,220.52q2.82-4.5,5.62-9.45,2.16-3.84,4.07-7.56"/><path class="a" d="M445.84,212.13a31.2,31.2,0,0,0,4.3-8.13,34.06,34.06,0,0,0,1.64-6.88"/><path class="a" d="M426.79,211.05c0-4.08.22-8.34.59-12.77q.26-3,.58-5.81"/><path class="a" d="M400.08,196a32.77,32.77,0,0,0,2.32,10.12,35.16,35.16,0,0,0,4.25,7.62"/><path class="a" d="M379.16,201.47a29.38,29.38,0,0,0,2.36,10.77,25.82,25.82,0,0,0,6.57,9.11"/><path class="a" d="M611.94,3.63c-10.91,5.09-30,16.14-38.41,37.09-1.19,3-4.76,11.6-3.31,35.76,2.89,48.36,15.49,66.2,6,77.48-3.65,4.32-11.71,9.08-32.45,6,9.3,1.32,21.74,4.73,30.46,14.57,16.45,18.55,11.47,50.66,4,95.36-6.42,38.26-13.18,52.67-4,66.23,8.2,12.07,23.93,15.92,36.42,17.22"/></svg>