<?xml version="1.0" encoding="utf-8"?>
<!-- Generator: Adobe Illustrator 25.3.1, SVG Export Plug-In . SVG Version: 6.00 Build 0)  -->
<svg version="1.1" id="Layer_1" xmlns="http://www.w3.org/2000/svg" xmlns:xlink="http://www.w3.org/1999/xlink" x="0px" y="0px"
	 viewBox="0 0 495.8 369.2" style="enable-background:new 0 0 495.8 369.2;" xml:space="preserve">
<style type="text/css">
	.st0{fill:none;stroke:#000000;stroke-width:0.75;stroke-miterlimit:10;}
	.st1{fill:none;stroke:#DAC5FC;stroke-width:0.75;stroke-miterlimit:10;}
</style>
<g>
	<path class="st0" d="M18.6,46.2C18.4,33.1,42.4,21,62.1,18.9c25.4-2.7,55.6,10.1,56.2,24.4c0.6,13.4-24.9,27.6-47.2,28.9
		C47,73.4,18.8,60.3,18.6,46.2z"/>
	<path class="st0" d="M53.5,23.2c-4.3,3-5.7,7.2-7.1,11.5c-1.9,5.7-2.1,11.7-0.6,17.5c1.1,3.9,2.7,9.6,8.4,13.6
		c6.4,4.4,16.6,5.7,22.9,1c3.4-2.5,4.4-5.8,5.8-10.9c2.4-7.5,2.1-15.5-0.8-22.8c-1.7-4.2-3.3-8-7.6-10.7
		C67.9,18.8,59.7,19.1,53.5,23.2z"/>
	<path class="st0" d="M3.7,19.9c1.6,3.5,3.6,6.7,6.2,9.6c3.3,3.6,7.2,6.6,11.6,8.6"/>
	<path class="st0" d="M24.8,11.2c1.2,2.4,2.5,4.8,3.9,7.3c1.8,3.2,3.6,6.3,5.5,9.2"/>
	<path class="st0" d="M45.1,5c0.3,2.3,0.8,4.5,1.6,6.7c1.2,3.3,2.9,6.4,5.1,9.1"/>
	<path class="st0" d="M68.2,0.5c0.2,1.8,0.4,3.7,0.6,5.6c0.3,4.3,0.5,8.4,0.6,12.4"/>
	<path class="st0" d="M88.8,21.1c1.7-2.3,3.1-4.8,4.2-7.4c1.3-3.1,2-6.4,2.3-9.8"/>
	<path class="st0" d="M106.8,28.5c2.7-2.4,4.9-5.4,6.4-8.8c1.4-3.3,2.2-6.9,2.3-10.4"/>
	<path class="st0" d="M270.2,46.2c0.2-13.1-23.8-25.3-43.5-27.4c-25.4-2.7-55.6,10.1-56.2,24.4c-0.6,13.4,24.9,27.6,47.2,28.9
		C241.8,73.4,270,60.3,270.2,46.2z"/>
	<path class="st0" d="M231.9,22.4c4.3,3.1,5.7,7.3,7.1,11.7c1.9,5.8,2.1,11.9,0.6,17.8c-1.1,4-2.7,9.8-8.4,13.8
		c-6.4,4.5-16.6,5.7-22.9,1.1c-3.4-2.6-4.4-5.9-5.8-11.1c-2.4-7.6-2.1-15.8,0.8-23.2c1.7-4.3,3.3-8.2,7.6-10.9
		C217.4,17.9,225.6,18.2,231.9,22.4z"/>
	<path class="st0" d="M267.4,38.1c4.4-2.1,8.3-5,11.6-8.6c2.6-2.8,4.6-6.1,6.2-9.6"/>
	<path class="st0" d="M254.6,27.7c1.8-2.9,3.7-6,5.5-9.2c1.4-2.5,2.7-4.9,3.9-7.3"/>
	<path class="st0" d="M237,20.8c2.2-2.7,4-5.8,5.1-9.1c0.8-2.2,1.3-4.4,1.6-6.7"/>
	<path class="st0" d="M220.7,0.5c-0.2,1.8-0.4,3.7-0.6,5.6c-0.4,4.3-0.5,8.4-0.6,12.4v0.6"/>
	<path class="st0" d="M193.6,3.9c0.2,3.4,1,6.7,2.2,9.8c1.1,2.6,2.4,5.1,4.1,7.4"/>
	<path class="st0" d="M173.3,9.2c0.1,3.6,0.9,7.1,2.3,10.4c1.5,3.4,3.6,6.4,6.4,8.8"/>
	<path class="st0" d="M219.6,216.6c-0.2-11.2,24.6-21.6,44.8-23.4c26.2-2.3,57.3,8.6,58,20.8c0.6,11.4-25.6,23.6-48.7,24.7
		C248.9,239.9,219.8,228.6,219.6,216.6z"/>
	<path class="st0" d="M260,209.9c-3.8,1.7-5,4-6.2,6.5c-1.7,3-1.8,6.7-0.5,9.9c1.3,3.5,4,6.3,7.4,7.6c5.6,2.5,14.6,3.2,20,0.6
		c3-1.4,3.8-3.3,5.1-6.1c2.1-4.1,1.8-9-0.7-12.9c-1.5-2.4-2.9-4.5-6.7-6C272.4,207.4,265.9,207.5,260,209.9z"/>
	<path class="st0" d="M206.8,194.3c1.6,3.6,3.7,6.9,6.3,9.9c3.3,3.7,7.4,6.7,11.9,8.9"/>
	<path class="st0" d="M228.4,185.3c1.3,2.5,2.6,5,4,7.6c1.8,3.3,3.7,6.5,5.6,9.4"/>
	<path class="st0" d="M249.2,178.9c0.3,2.3,0.9,4.6,1.6,6.9c1.2,3.4,3,6.6,5.2,9.4"/>
	<path class="st0" d="M272.8,174.3c0.2,1.9,0.4,3.8,0.6,5.8c0.4,4.4,0.5,8.7,0.6,12.8"/>
	<path class="st0" d="M294,195.5c1.7-2.4,3.1-4.9,4.2-7.6c1.3-3.2,2.1-6.6,2.3-10.1"/>
	<path class="st0" d="M312.4,203.2c2.8-2.5,5-5.6,6.5-9.1c1.5-3.4,2.3-7.1,2.4-10.8"/>
	<path class="st0" d="M492.4,367.1c-6.6-10.9-21.1-30-48.4-38.4c-3.9-1.2-15.1-4.8-46.7-3.3c-63.2,2.9-86.5,15.5-101.2,6
		c-5.6-3.6-11.9-11.7-7.8-32.5c-1.7,9.3-6.2,21.7-19,30.5c-24.2,16.5-66.2,11.5-124.5,4c-50-6.4-68.8-13.2-86.5-4
		c-15.8,8.2-20.8,23.9-22.5,36.4"/>
	<path class="st0" d="M469.8,216.1c0.2-11.2-24.6-21.6-44.8-23.4c-26.2-2.3-57.3,8.6-58,20.8c-0.6,11.4,25.6,23.6,48.7,24.7
		C440.5,239.4,469.6,228.2,469.8,216.1z"/>
	<path class="st0" d="M427.8,210c3.6,1.7,4.8,4.1,6,6.6c1.6,3.1,1.7,6.8,0.5,10c-1.2,3.4-3.7,6.3-7,7.8c-5.4,2.5-13.9,3.2-19.1,0.6
		c-2.8-1.4-3.6-3.3-4.9-6.2c-2-4.2-1.7-9.1,0.7-13.1c1.5-2.4,2.8-4.6,6.4-6.1C416,207.5,422.2,207.6,427.8,210z"/>
	<path class="st0" d="M464.4,212.7c4.5-2.2,8.5-5.2,11.9-8.9c2.6-2.9,4.8-6.3,6.3-9.9"/>
	<path class="st0" d="M451.3,201.9c1.9-3,3.7-6.1,5.6-9.4c1.4-2.6,2.8-5.1,4-7.6"/>
	<path class="st0" d="M433.3,194.8c2.3-2.8,4.1-6,5.2-9.4c0.8-2.2,1.3-4.5,1.6-6.9"/>
	<path class="st0" d="M415.4,192.4c0-4.1,0.2-8.3,0.6-12.8c0.2-2,0.4-3.9,0.6-5.8"/>
	<path class="st0" d="M388.9,177.4c0.2,3.5,1,6.9,2.3,10.1c1.1,2.7,2.5,5.3,4.2,7.6"/>
	<path class="st0" d="M368.1,182.9c0.1,3.7,0.9,7.4,2.4,10.8c1.5,3.5,3.7,6.6,6.5,9.1"/>
</g>
<g>
	<path class="st1" d="M12.1,46.2C11.9,33.1,36,21,55.6,18.9C81,16.1,111.2,29,111.8,43.2c0.6,13.4-24.9,27.6-47.2,28.9
		C40.5,73.4,12.3,60.3,12.1,46.2z"/>
	<path class="st1" d="M47,23.2c-4.3,3-5.7,7.2-7.1,11.5c-1.9,5.7-2.1,11.7-0.6,17.5c1.1,3.9,2.7,9.6,8.4,13.6
		c6.4,4.4,16.6,5.7,22.9,1C74,64.3,74.9,61,76.4,56c2.4-7.5,2.1-15.5-0.8-22.8c-1.7-4.2-3.3-8-7.6-10.7C61.4,18.8,53.3,19.1,47,23.2
		z"/>
	<path class="st1" d="M-2.8,19.9c1.6,3.5,3.6,6.7,6.2,9.6c3.3,3.6,7.2,6.6,11.6,8.6"/>
	<path class="st1" d="M18.3,11.2c1.2,2.4,2.5,4.8,3.9,7.3c1.8,3.2,3.6,6.3,5.5,9.2"/>
	<path class="st1" d="M38.6,5c0.3,2.3,0.8,4.5,1.6,6.7c1.2,3.3,2.9,6.4,5.1,9.1"/>
	<path class="st1" d="M61.7,0.5c0.2,1.8,0.4,3.7,0.6,5.6c0.3,4.3,0.5,8.4,0.6,12.4"/>
	<path class="st1" d="M82.3,21.1c1.7-2.3,3.1-4.8,4.2-7.4c1.3-3.1,2-6.4,2.3-9.8"/>
	<path class="st1" d="M100.3,28.5c2.7-2.4,4.9-5.4,6.4-8.8c1.4-3.3,2.2-6.9,2.3-10.4"/>
	<path class="st1" d="M263.8,46.2c0.2-13.1-23.8-25.3-43.5-27.4c-25.4-2.7-55.6,10.1-56.2,24.4c-0.6,13.4,24.9,27.6,47.2,28.9
		C235.4,73.4,263.5,60.3,263.8,46.2z"/>
	<path class="st1" d="M225.4,22.4c4.3,3.1,5.7,7.3,7.1,11.7c1.9,5.8,2.1,11.9,0.6,17.8c-1.1,4-2.7,9.8-8.4,13.8
		c-6.4,4.5-16.6,5.7-22.9,1.1c-3.4-2.6-4.4-5.9-5.8-11.1c-2.4-7.6-2.1-15.8,0.8-23.2c1.7-4.3,3.3-8.2,7.6-10.9
		C210.9,17.9,219.1,18.2,225.4,22.4z"/>
	<path class="st1" d="M260.9,38.1c4.4-2.1,8.3-5,11.6-8.6c2.6-2.8,4.6-6.1,6.2-9.6"/>
	<path class="st1" d="M248.2,27.7c1.8-2.9,3.7-6,5.5-9.2c1.4-2.5,2.7-4.9,3.9-7.3"/>
	<path class="st1" d="M230.5,20.8c2.2-2.7,4-5.8,5.1-9.1c0.8-2.2,1.3-4.4,1.6-6.7"/>
	<path class="st1" d="M214.2,0.5c-0.2,1.8-0.4,3.7-0.6,5.6c-0.4,4.3-0.5,8.4-0.6,12.4v0.6"/>
	<path class="st1" d="M187.2,3.9c0.2,3.4,1,6.7,2.2,9.8c1.1,2.6,2.4,5.1,4.1,7.4"/>
	<path class="st1" d="M166.9,9.2c0.1,3.6,0.9,7.1,2.3,10.4c1.5,3.4,3.6,6.4,6.4,8.8"/>
	<path class="st1" d="M213.1,216.6c-0.2-11.2,24.6-21.6,44.8-23.4c26.2-2.3,57.3,8.6,58,20.8c0.6,11.4-25.6,23.6-48.7,24.7
		C242.4,239.9,213.3,228.6,213.1,216.6z"/>
	<path class="st1" d="M253.5,209.9c-3.8,1.7-5,4-6.2,6.5c-1.7,3-1.8,6.7-0.5,9.9c1.3,3.5,4,6.3,7.4,7.6c5.6,2.5,14.6,3.2,20,0.6
		c3-1.4,3.8-3.3,5.1-6.1c2.1-4.1,1.8-9-0.7-12.9c-1.5-2.4-2.9-4.5-6.7-6C265.9,207.4,259.4,207.5,253.5,209.9z"/>
	<path class="st1" d="M200.4,194.3c1.6,3.6,3.7,6.9,6.3,9.9c3.3,3.7,7.4,6.7,11.9,8.9"/>
	<path class="st1" d="M222,185.3c1.3,2.5,2.6,5,4,7.6c1.8,3.3,3.7,6.5,5.6,9.4"/>
	<path class="st1" d="M242.7,178.9c0.3,2.3,0.9,4.6,1.6,6.9c1.2,3.4,3,6.6,5.2,9.4"/>
	<path class="st1" d="M266.4,174.3c0.2,1.9,0.4,3.8,0.6,5.8c0.4,4.4,0.5,8.7,0.6,12.8"/>
	<path class="st1" d="M287.5,195.5c1.7-2.4,3.1-4.9,4.2-7.6c1.3-3.2,2.1-6.6,2.3-10.1"/>
	<path class="st1" d="M305.9,203.2c2.8-2.5,5-5.6,6.5-9.1c1.5-3.4,2.3-7.1,2.4-10.8"/>
	<path class="st1" d="M485.9,367.1c-6.6-10.9-21.1-30-48.4-38.4c-3.9-1.2-15.1-4.8-46.7-3.3c-63.2,2.9-86.5,15.5-101.2,6
		c-5.6-3.6-11.9-11.7-7.8-32.5c-1.7,9.3-6.2,21.7-19,30.5c-24.2,16.5-66.2,11.5-124.5,4c-50-6.4-68.8-13.2-86.5-4
		C36,337.6,31,353.3,29.3,365.8"/>
	<path class="st1" d="M463.3,216.1c0.2-11.2-24.6-21.6-44.8-23.4c-26.2-2.3-57.3,8.6-58,20.8c-0.6,11.4,25.6,23.6,48.7,24.7
		C434,239.4,463.1,228.2,463.3,216.1z"/>
	<path class="st1" d="M421.3,210c3.6,1.7,4.8,4.1,6,6.6c1.6,3.1,1.7,6.8,0.5,10c-1.2,3.4-3.7,6.3-7,7.8c-5.4,2.5-13.9,3.2-19.1,0.6
		c-2.8-1.4-3.6-3.3-4.9-6.2c-2-4.2-1.7-9.1,0.7-13.1c1.5-2.4,2.8-4.6,6.4-6.1C409.5,207.5,415.7,207.6,421.3,210z"/>
	<path class="st1" d="M457.9,212.7c4.5-2.2,8.5-5.2,11.9-8.9c2.6-2.9,4.8-6.3,6.3-9.9"/>
	<path class="st1" d="M444.8,201.9c1.9-3,3.7-6.1,5.6-9.4c1.4-2.6,2.8-5.1,4-7.6"/>
	<path class="st1" d="M426.8,194.8c2.3-2.8,4.1-6,5.2-9.4c0.8-2.2,1.3-4.5,1.6-6.9"/>
	<path class="st1" d="M408.9,192.4c0-4.1,0.2-8.3,0.6-12.8c0.2-2,0.4-3.9,0.6-5.8"/>
	<path class="st1" d="M382.4,177.4c0.2,3.5,1,6.9,2.3,10.1c1.1,2.7,2.5,5.3,4.2,7.6"/>
	<path class="st1" d="M361.6,182.9c0.1,3.7,0.9,7.4,2.4,10.8c1.5,3.5,3.7,6.6,6.5,9.1"/>
</g>
</svg>
