<svg xmlns="http://www.w3.org/2000/svg" viewBox="0 0 495.8 369.21"><defs><style>.a{fill:none;stroke:#000;stroke-miterlimit:10;stroke-width:8px;}</style></defs><title>yeux-about-low-eyes</title><path class="a" d="M18.59,46.22C18.37,33.12,42.43,21,62.08,18.85c25.39-2.71,55.59,10.1,56.23,24.37.6,13.39-24.88,27.6-47.24,28.87C47,73.45,18.82,60.28,18.59,46.22Z"/><path class="a" d="M53.45,23.24c-4.31,3-5.69,7.19-7.12,11.53a30.51,30.51,0,0,0-.56,17.5c1.1,3.88,2.73,9.65,8.43,13.58,6.4,4.42,16.65,5.65,22.87,1,3.39-2.51,4.36-5.84,5.84-10.87a34,34,0,0,0-.83-22.82c-1.74-4.2-3.32-8-7.63-10.67A20.06,20.06,0,0,0,53.45,23.24Z"/><path class="a" d="M3.65,19.91a36.6,36.6,0,0,0,6.2,9.57,36.7,36.7,0,0,0,11.59,8.64"/><path class="a" d="M24.78,11.18C26,13.58,27.33,16,28.73,18.5c1.8,3.21,3.63,6.27,5.46,9.18"/><path class="a" d="M45.07,5a33,33,0,0,0,1.59,6.67,30,30,0,0,0,5.12,9.11"/><path class="a" d="M68.16.48q.33,2.74.57,5.63c.35,4.29.53,8.42.57,12.38"/><path class="a" d="M88.83,21.06A34.6,34.6,0,0,0,93,13.67a31.74,31.74,0,0,0,2.26-9.81"/><path class="a" d="M106.83,28.47a25,25,0,0,0,6.37-8.82A28.45,28.45,0,0,0,115.49,9.2"/><path class="a" d="M270.25,46.22c.22-13.1-23.84-25.27-43.49-27.37-25.39-2.71-55.59,10.1-56.23,24.37-.6,13.39,24.88,27.6,47.24,28.87C241.83,73.45,270,60.28,270.25,46.22Z"/><path class="a" d="M231.85,22.44c4.31,3.08,5.69,7.31,7.12,11.72a31.54,31.54,0,0,1,.56,17.8c-1.1,3.95-2.73,9.81-8.43,13.81-6.4,4.5-16.65,5.74-22.87,1.07-3.39-2.55-4.36-5.94-5.84-11.06a35.08,35.08,0,0,1,.83-23.21c1.74-4.27,3.32-8.16,7.63-10.85A19.77,19.77,0,0,1,231.85,22.44Z"/><path class="a" d="M267.4,38.12A36.81,36.81,0,0,0,279,29.48a36.53,36.53,0,0,0,6.19-9.57"/><path class="a" d="M254.65,27.67c1.83-2.91,3.66-6,5.46-9.17,1.39-2.48,2.71-4.92,3.94-7.32"/><path class="a" d="M237,20.76a29.61,29.61,0,0,0,5.13-9.11A33.11,33.11,0,0,0,243.77,5"/><path class="a" d="M220.67.48q-.31,2.74-.56,5.63c-.36,4.29-.54,8.42-.58,12.38v.57"/><path class="a" d="M193.63,3.86a31.68,31.68,0,0,0,2.25,9.81A34.6,34.6,0,0,0,200,21.06"/><path class="a" d="M173.34,9.2a28.51,28.51,0,0,0,2.3,10.45A25.14,25.14,0,0,0,182,28.47"/><path class="a" d="M219.57,216.58c-.22-11.2,24.59-21.6,44.84-23.4,26.19-2.32,57.33,8.64,58,20.83.62,11.45-25.65,23.59-48.71,24.68C248.88,239.86,219.81,228.6,219.57,216.58Z"/><path class="a" d="M260,209.88c-3.77,1.71-5,4-6.24,6.49a11.39,11.39,0,0,0-.49,9.86,13.17,13.17,0,0,0,7.39,7.65c5.61,2.49,14.59,3.18,20,.59,3-1.41,3.82-3.29,5.11-6.12a12.82,12.82,0,0,0-.73-12.86c-1.52-2.37-2.91-4.52-6.68-6A26.12,26.12,0,0,0,260,209.88Z"/><path class="a" d="M206.83,194.33a37.45,37.45,0,0,0,6.34,9.88,37.87,37.87,0,0,0,11.86,8.9"/><path class="a" d="M228.45,185.33c1.26,2.48,2.6,5,4,7.56q2.77,5,5.58,9.45"/><path class="a" d="M249.2,178.94a35.07,35.07,0,0,0,1.64,6.88,30.78,30.78,0,0,0,5.25,9.39"/><path class="a" d="M272.84,174.29c.23,1.9.42,3.84.59,5.81.37,4.43.55,8.69.59,12.77"/><path class="a" d="M294,195.52a35.24,35.24,0,0,0,4.22-7.62,33,33,0,0,0,2.3-10.12"/><path class="a" d="M312.42,203.17a25.8,25.8,0,0,0,6.51-9.11,29.42,29.42,0,0,0,2.35-10.77"/><path class="a" d="M492.38,367.13c-6.65-10.91-21.08-30-48.43-38.41-3.87-1.19-15.15-4.76-46.7-3.31-63.16,2.89-86.45,15.49-101.19,6-5.64-3.65-11.86-11.71-7.78-32.45-1.73,9.3-6.18,21.74-19,30.46-24.22,16.45-66.16,11.47-124.54,4-50-6.42-68.78-13.18-86.49-4-15.76,8.2-20.79,23.93-22.49,36.42"/><path class="a" d="M469.82,216.15c.22-11.2-24.59-21.6-44.84-23.4-26.19-2.32-57.33,8.64-58,20.83-.62,11.45,25.65,23.59,48.71,24.68C440.51,239.44,469.58,228.17,469.82,216.15Z"/><path class="a" d="M427.77,210c3.6,1.73,4.75,4.11,6,6.6a12.26,12.26,0,0,1,.47,10,13.1,13.1,0,0,1-7,7.77c-5.35,2.53-13.91,3.23-19.11.6-2.83-1.43-3.65-3.34-4.88-6.22a13.76,13.76,0,0,1,.7-13.06c1.45-2.4,2.77-4.59,6.37-6.11A23.48,23.48,0,0,1,427.77,210Z"/><path class="a" d="M464.36,212.68a37.87,37.87,0,0,0,11.86-8.9,37.45,37.45,0,0,0,6.34-9.88"/><path class="a" d="M451.32,201.91q2.8-4.5,5.58-9.45c1.44-2.56,2.78-5.08,4-7.56"/><path class="a" d="M433.3,194.78a30.78,30.78,0,0,0,5.25-9.39,35.07,35.07,0,0,0,1.64-6.88"/><path class="a" d="M415.38,192.44c0-4.08.22-8.34.59-12.77.17-2,.36-3.91.59-5.81"/><path class="a" d="M388.88,177.35a33,33,0,0,0,2.3,10.12,35.24,35.24,0,0,0,4.22,7.62"/><path class="a" d="M368.12,182.86a29.42,29.42,0,0,0,2.35,10.77,25.8,25.8,0,0,0,6.51,9.11"/></svg>