<?xml version="1.0" encoding="utf-8"?>
<!-- Generator: Adobe Illustrator 25.3.1, SVG Export Plug-In . SVG Version: 6.00 Build 0)  -->
<svg version="1.1" id="Layer_1" xmlns="http://www.w3.org/2000/svg" xmlns:xlink="http://www.w3.org/1999/xlink" x="0px" y="0px"
	 viewBox="0 0 613.6 357.3" style="enable-background:new 0 0 613.6 357.3;" xml:space="preserve">
<style type="text/css">
	.st0{fill:#FFFFFF;stroke:#000000;stroke-width:0.75;stroke-miterlimit:10;}
	.st1{fill:none;stroke:#DAC5FC;stroke-width:0.75;stroke-miterlimit:10;}
</style>
<g>
	<path class="st0" d="M18.6,73.9c-0.2-13.1,23.8-25.3,43.5-27.4c25.4-2.7,55.6,10.1,56.2,24.4c0.6,13.4-24.9,27.6-47.2,28.9
		C47,101.1,18.8,87.9,18.6,73.9z"/>
	<path class="st0" d="M53.5,50.9c-4.3,3-5.7,7.2-7.1,11.5c-1.9,5.7-2.1,11.7-0.6,17.5c1.1,3.9,2.7,9.7,8.4,13.6
		c6.4,4.4,16.6,5.7,22.9,1c3.4-2.5,4.4-5.8,5.8-10.9c2.4-7.5,2.1-15.5-0.8-22.8c-1.7-4.2-3.3-8-7.6-10.7
		C67.9,46.4,59.7,46.7,53.5,50.9z"/>
	<path class="st0" d="M3.7,47.6c3.6,8,9.9,14.5,17.8,18.2"/>
	<path class="st0" d="M24.8,38.8c1.2,2.4,2.5,4.8,4,7.3c1.8,3.2,3.6,6.3,5.5,9.2"/>
	<path class="st0" d="M45.1,32.6c0.3,2.3,0.8,4.5,1.6,6.7c1.2,3.3,2.9,6.4,5.1,9.1"/>
	<path class="st0" d="M68.2,28.1c0.2,1.8,0.4,3.7,0.6,5.6c0.3,4.3,0.5,8.4,0.6,12.4"/>
	<path class="st0" d="M88.8,48.7c1.7-2.3,3.1-4.8,4.2-7.4c1.3-3.1,2-6.4,2.3-9.8"/>
	<path class="st0" d="M106.8,56.1c2.7-2.4,4.9-5.4,6.4-8.8c1.4-3.3,2.2-6.9,2.3-10.5"/>
	<path class="st0" d="M270.2,73.9c0.2-13.1-23.8-25.3-43.5-27.4c-25.4-2.7-55.6,10.1-56.2,24.4c-0.6,13.4,24.9,27.6,47.2,28.9
		C241.8,101.1,270,87.9,270.2,73.9z"/>
	<path class="st0" d="M231.9,50.1c4.3,3.1,5.7,7.3,7.1,11.7c1.9,5.8,2.1,11.9,0.6,17.8c-1.1,3.9-2.7,9.8-8.4,13.8
		c-6.4,4.5-16.6,5.7-22.9,1.1c-3.4-2.6-4.4-5.9-5.8-11.1c-2.4-7.6-2.1-15.8,0.8-23.2c1.7-4.3,3.3-8.2,7.6-10.8
		C217.4,45.6,225.6,45.9,231.9,50.1z"/>
	<path class="st0" d="M267.4,65.8c7.9-3.7,14.2-10.2,17.8-18.2"/>
	<path class="st0" d="M254.6,55.3c1.8-2.9,3.7-6,5.5-9.2c1.4-2.5,2.7-4.9,3.9-7.3"/>
	<path class="st0" d="M237,48.4c2.2-2.7,4-5.8,5.1-9.1c0.8-2.2,1.3-4.4,1.6-6.7"/>
	<path class="st0" d="M220.7,28.1c-0.2,1.8-0.4,3.7-0.6,5.6c-0.4,4.3-0.5,8.4-0.6,12.4v0.6"/>
	<path class="st0" d="M193.6,31.5c0.2,3.4,1,6.7,2.2,9.8c1.1,2.6,2.4,5.1,4.1,7.4"/>
	<path class="st0" d="M173.3,36.8c0.1,3.6,0.9,7.1,2.3,10.5c1.5,3.4,3.6,6.4,6.4,8.8"/>
	<path class="st0" d="M219.6,239.6c-0.2-13.5,24.6-26.1,44.8-28.2c26.2-2.8,57.3,10.4,58,25.1c0.6,13.8-25.6,28.5-48.7,29.8
		C248.9,267.7,219.8,254.1,219.6,239.6z"/>
	<path class="st0" d="M271.1,215.1c-4.1,3.2-5.4,7.5-6.7,12c-1.8,5.9-2,12.2-0.5,18.3c1,4.1,2.6,10.1,8,14.2
		c6,4.6,15.7,5.9,21.6,1.1c3.2-2.6,4.1-6.1,5.5-11.3c2.2-7.8,2-16.1-0.8-23.8c-1.6-4.4-3.1-8.4-7.2-11.1
		C284.8,210.4,276.9,210.7,271.1,215.1z"/>
	<path class="st0" d="M204.2,212.5c1.6,3.6,3.8,6.9,6.4,9.9c3.4,3.7,7.4,6.7,11.9,8.9"/>
	<path class="st0" d="M226,203.5c1.3,2.5,2.6,5,4.1,7.6c1.9,3.3,3.7,6.5,5.6,9.4"/>
	<path class="st0" d="M246.9,197.1c0.3,2.3,0.9,4.6,1.6,6.9c1.2,3.4,3,6.6,5.3,9.4"/>
	<path class="st0" d="M270.7,192.5c0.2,1.9,0.4,3.8,0.6,5.8c0.4,4.4,0.5,8.7,0.6,12.8"/>
	<path class="st0" d="M292,213.7c1.7-2.4,3.2-4.9,4.2-7.6c1.3-3.2,2.1-6.6,2.3-10.1"/>
	<path class="st0" d="M310.6,221.4c2.8-2.5,5.1-5.6,6.6-9.1c1.5-3.4,2.3-7.1,2.4-10.8"/>
	<path class="st0" d="M479.1,239.6c0.2-13.5-24.6-26.1-44.8-28.2c-26.2-2.8-57.3,10.4-58,25.1c-0.6,13.8,25.6,28.5,48.7,29.8
		C449.8,267.7,478.9,254.1,479.1,239.6z"/>
	<path class="st0" d="M452.4,217.1c4.1,3.1,5.5,7.4,6.9,11.9c1.8,5.9,2,12.1,0.5,18.1c-1.1,4-2.6,10-8.1,14c-6.2,4.6-16,5.8-22,1.1
		c-3.3-2.6-4.2-6-5.6-11.2c-2.3-7.7-2-16,0.8-23.6c1.7-4.3,3.2-8.3,7.4-11C438.5,212.6,446.5,212.9,452.4,217.1z"/>
	<path class="st0" d="M476.1,231.3c4.5-2.1,8.6-5.2,12-8.9c2.6-2.9,4.8-6.3,6.4-9.9"/>
	<path class="st0" d="M463,220.5c1.9-3,3.8-6.2,5.6-9.4c1.4-2.6,2.8-5.1,4.1-7.6"/>
	<path class="st0" d="M445.8,212.1c1.8-2.5,3.3-5.2,4.3-8.1c0.8-2.2,1.3-4.5,1.6-6.9"/>
	<path class="st0" d="M426.8,211.1c0-4.1,0.2-8.3,0.6-12.8c0.2-2,0.4-3.9,0.6-5.8"/>
	<path class="st0" d="M400.1,196c0.2,3.5,1,6.9,2.3,10.1c1.1,2.7,2.5,5.3,4.2,7.6"/>
	<path class="st0" d="M379.2,201.5c0.1,3.7,0.9,7.4,2.4,10.8c1.5,3.5,3.7,6.6,6.6,9.1"/>
	<path class="st0" d="M611.9,3.6c-10.9,5.1-30,16.1-38.4,37.1c-1.2,3-4.8,11.6-3.3,35.8c2.9,48.4,15.5,66.2,6,77.5
		c-3.7,4.3-11.7,9.1-32.5,6c9.3,1.3,21.7,4.7,30.5,14.6c16.5,18.6,11.5,50.7,4,95.4c-6.4,38.3-13.2,52.7-4,66.2
		c8.2,12.1,23.9,15.9,36.4,17.2"/>
</g>
<g>
	<path class="st1" d="M11.2,74C10.9,60.9,35,48.8,54.6,46.7C80,43.9,110.2,56.8,110.9,71c0.6,13.4-24.9,27.6-47.2,28.9
		C39.6,101.3,11.4,88.1,11.2,74z"/>
	<path class="st1" d="M46,51c-4.3,3-5.7,7.2-7.1,11.5c-1.9,5.7-2.1,11.7-0.6,17.5c1.1,3.9,2.7,9.7,8.4,13.6c6.4,4.4,16.6,5.7,22.9,1
		c3.4-2.5,4.4-5.8,5.8-10.9c2.4-7.5,2.1-15.5-0.8-22.8c-1.7-4.2-3.3-8-7.6-10.7C60.4,46.6,52.3,46.9,46,51z"/>
	<path class="st1" d="M-1.6,47.7c3.6,8,9.9,14.5,17.8,18.2"/>
	<path class="st1" d="M17.3,39c1.2,2.4,2.5,4.8,4,7.3c1.8,3.2,3.6,6.3,5.5,9.2"/>
	<path class="st1" d="M37.6,32.8c0.3,2.3,0.8,4.5,1.6,6.7c1.2,3.3,2.9,6.4,5.1,9.1"/>
	<path class="st1" d="M60.7,28.3c0.2,1.8,0.4,3.7,0.6,5.6c0.3,4.3,0.5,8.4,0.6,12.4"/>
	<path class="st1" d="M81.4,48.9c1.7-2.3,3.1-4.8,4.2-7.4c1.3-3.1,2-6.4,2.3-9.8"/>
	<path class="st1" d="M99.4,56.3c2.7-2.4,4.9-5.4,6.4-8.8c1.4-3.3,2.2-6.9,2.3-10.5"/>
	<path class="st1" d="M262.8,74c0.2-13.1-23.8-25.3-43.5-27.4c-25.4-2.7-55.6,10.1-56.2,24.4c-0.6,13.4,24.9,27.6,47.2,28.9
		C234.4,101.3,262.6,88.1,262.8,74z"/>
	<path class="st1" d="M224.4,50.2c4.3,3.1,5.7,7.3,7.1,11.7c1.9,5.8,2.1,11.9,0.6,17.8c-1.1,3.9-2.7,9.8-8.4,13.8
		c-6.4,4.5-16.6,5.7-22.9,1.1c-3.4-2.6-4.4-5.9-5.8-11.1c-2.4-7.6-2.1-15.8,0.8-23.2c1.7-4.3,3.3-8.2,7.6-10.8
		C210,45.7,218.1,46,224.4,50.2z"/>
	<path class="st1" d="M260,65.9c7.9-3.7,14.2-10.2,17.8-18.2"/>
	<path class="st1" d="M247.2,55.5c1.8-2.9,3.7-6,5.5-9.2c1.4-2.5,2.7-4.9,3.9-7.3"/>
	<path class="st1" d="M229.6,48.6c2.2-2.7,4-5.8,5.1-9.1c0.8-2.2,1.3-4.4,1.6-6.7"/>
	<path class="st1" d="M213.2,28.3c-0.2,1.8-0.4,3.7-0.6,5.6c-0.4,4.3-0.5,8.4-0.6,12.4v0.6"/>
	<path class="st1" d="M186.2,31.7c0.2,3.4,1,6.7,2.2,9.8c1.1,2.6,2.4,5.1,4.1,7.4"/>
	<path class="st1" d="M165.9,37c0.1,3.6,0.9,7.1,2.3,10.5c1.5,3.4,3.6,6.4,6.4,8.8"/>
	<path class="st1" d="M212.1,239.8c-0.2-13.5,24.6-26.1,44.8-28.2c26.2-2.8,57.3,10.4,58,25.1c0.6,13.8-25.6,28.5-48.7,29.8
		C241.4,267.9,212.4,254.3,212.1,239.8z"/>
	<path class="st1" d="M263.6,215.2c-4.1,3.2-5.4,7.5-6.7,12c-1.8,5.9-2,12.2-0.5,18.3c1,4.1,2.6,10.1,8,14.2
		c6,4.6,15.7,5.9,21.6,1.1c3.2-2.6,4.1-6.1,5.5-11.3c2.2-7.8,2-16.1-0.8-23.8c-1.6-4.4-3.1-8.4-7.2-11.1
		C277.3,210.6,269.4,210.9,263.6,215.2z"/>
	<path class="st1" d="M196.7,212.7c1.6,3.6,3.8,6.9,6.4,9.9c3.4,3.7,7.4,6.7,11.9,8.9"/>
	<path class="st1" d="M218.6,203.7c1.3,2.5,2.6,5,4.1,7.6c1.9,3.3,3.7,6.5,5.6,9.4"/>
	<path class="st1" d="M239.4,197.3c0.3,2.3,0.9,4.6,1.6,6.9c1.2,3.4,3,6.6,5.3,9.4"/>
	<path class="st1" d="M263.3,192.6c0.2,1.9,0.4,3.8,0.6,5.8c0.4,4.4,0.5,8.7,0.6,12.8"/>
	<path class="st1" d="M284.6,213.8c1.7-2.4,3.2-4.9,4.2-7.6c1.3-3.2,2.1-6.6,2.3-10.1"/>
	<path class="st1" d="M303.1,221.5c2.8-2.5,5.1-5.6,6.6-9.1c1.5-3.4,2.3-7.1,2.4-10.8"/>
	<path class="st1" d="M471.7,239.8c0.2-13.5-24.6-26.1-44.8-28.2c-26.2-2.8-57.3,10.4-58,25.1c-0.6,13.8,25.6,28.5,48.7,29.8
		C442.4,267.9,471.4,254.3,471.7,239.8z"/>
	<path class="st1" d="M445,217.3c4.1,3.1,5.5,7.4,6.9,11.9c1.8,5.9,2,12.1,0.5,18.1c-1.1,4-2.6,10-8.1,14c-6.2,4.6-16,5.8-22,1.1
		c-3.3-2.6-4.2-6-5.6-11.2c-2.3-7.7-2-16,0.8-23.6c1.7-4.3,3.2-8.3,7.4-11C431.1,212.7,439,213,445,217.3z"/>
	<path class="st1" d="M468.7,231.4c4.5-2.1,8.6-5.2,12-8.9c2.6-2.9,4.8-6.3,6.4-9.9"/>
	<path class="st1" d="M455.6,220.7c1.9-3,3.8-6.2,5.6-9.4c1.4-2.6,2.8-5.1,4.1-7.6"/>
	<path class="st1" d="M438.4,212.3c1.8-2.5,3.3-5.2,4.3-8.1c0.8-2.2,1.3-4.5,1.6-6.9"/>
	<path class="st1" d="M419.4,211.2c0-4.1,0.2-8.3,0.6-12.8c0.2-2,0.4-3.9,0.6-5.8"/>
	<path class="st1" d="M392.6,196.1c0.2,3.5,1,6.9,2.3,10.1c1.1,2.7,2.5,5.3,4.2,7.6"/>
	<path class="st1" d="M371.7,201.6c0.1,3.7,0.9,7.4,2.4,10.8c1.5,3.5,3.7,6.6,6.6,9.1"/>
	<path class="st1" d="M604.5,3.8c-10.9,5.1-30,16.1-38.4,37.1c-1.2,3-4.8,11.6-3.3,35.8c2.9,48.4,15.5,66.2,6,77.5
		c-3.7,4.3-11.7,9.1-32.5,6c9.3,1.3,21.7,4.7,30.5,14.6c16.5,18.6,11.5,50.7,4,95.4c-6.4,38.3-13.2,52.7-4,66.2
		c8.2,12.1,23.9,15.9,36.4,17.2"/>
</g>
</svg>
